<ttFont>
          <CharString index="0">
            rmoveto
            -55 -32 -51 -56 -83 93 callgsubr
            178 hlineto
            return
          </CharString>
          <CharString index="1">
            -101 callgsubr
            364 -106 callgsubr
            return
          </CharString>
          <CharString index="2">
            -103 callsubr
            96 -32 rlineto
            -12 31 -8 37 35 vvcurveto
            return
          </CharString>
          <CharString index="3">
            229 callgsubr
            -53 hhcurveto
            -54 39 callsubr
            -67 callsubr
            return
          </CharString>
          <CharString index="4">
            -76 callgsubr
            -96 -69 -73 -95 -58 callsubr
            hvcurveto
            -100 callgsubr
            return
          </CharString>
          <CharString index="5">
            43 24 35 35 hvcurveto
            -4 -135 -96 callsubr
          </CharString>
          <CharString index="6">
            242 callgsubr
            -17 -19 16 22 -24 vhcurveto
            -53 -48 72 -109 87 -114 105 -127 rlinecurve
            73 42 -78 81 -68 84 -35 51 rlinecurve
            return
          </CharString>
          <CharString index="7">
            rmoveto
            -130 vlineto
            -22 -20 -21 -8 -25 hhcurveto
            -33 -23 22 38 42 25 30 53 16 hvcurveto
            236 -144 rmoveto
            -3 -16 -10 -3 -11 hhcurveto
            -18 -14 13 38 hvcurveto
            200 vlineto
            98 -50 58 -101 -76 -63 -24 -48 -55 vhcurveto
            25 -37 rlineto
            14 40 38 8 42 hhcurveto
            53 24 -23 -51 hvcurveto
            -35 vlineto
            -108 -23 rlineto
            -96 -19 -49 -42 -76 vvcurveto
            -72 53 -56 86 52 37 22 35 29 vhcurveto
            -38 13 43 -19 43 hhcurveto
            46 28 26 31 25 hvcurveto
            endchar
          </CharString>
          <CharString index="8">
            -71 callgsubr
            64 25 58 73 18 19 -4 -5 14 vhcurveto
            -319 vlineto
            -96 callsubr
          </CharString>
          <CharString index="9">
            -91 callsubr
            endchar
          </CharString>
          <CharString index="10">
            -41 -52 -91 callgsubr
            return
          </CharString>
          <CharString index="11">
            108 -67 -98 callsubr
          </CharString>
          <CharString index="12">
            -85 callsubr
            43 24 -21 -21 20 hvcurveto
            return
          </CharString>
          <CharString index="13">
            -1 callsubr
            61 34 -49 -50 -59 -45 -29 -49 -25 -20 4 10 -26 hvcurveto
            28 -102 rlineto
            -9 24 30 -5 24 hhcurveto
            89 57 63 83 109 -115 136 -98 -84 callgsubr
            return
          </CharString>
          <CharString index="14">
            -71 callsubr
            249 hlineto
            2 181 callsubr
            -19 -21 157 callgsubr
            return
          </CharString>
          <CharString index="15">
            20 -48 hhcurveto
            -73 -62 -57 -76 -106 93 -60 94 -11 hvcurveto
            -33 -31 -44 -21 -61 hhcurveto
            -87 -77 56 59 -40 hvcurveto
            69 12 25 45 55 vvcurveto
            return
          </CharString>
          <CharString index="16">
            rlineto
            -83 callsubr
            return
          </CharString>
          <CharString index="17">
            hlineto
            63 -87 rlineto
            121 -190 hlineto
            -72 callsubr
            return
          </CharString>
          <CharString index="18">
            hlineto
            -87 callgsubr
            return
          </CharString>
          <CharString index="19">
            284 394 rmoveto
            -35 17 -31 29 33 vvcurveto
            43 26 28 41 48 30 -45 -55 214 callgsubr
            -38 -33 26 27 -28 vhcurveto
            -52 -46 51 -71 124 -146 112 -128 rlinecurve
            69 44 -61 61 -84 88 -37 45 rlinecurve
            20 1 18 3 18 4 rrcurveto
            91 20 69 71 105 vvcurveto
            104 -94 138 -113 -76 -53 -62 -71 -79 83 -61 54 -19 vhcurveto
            return
          </CharString>
          <CharString index="20">
            rcurveline
            -85 callgsubr
            return
          </CharString>
          <CharString index="21">
            rmoveto
            101 -63 53 -84 -66 -57 -32 -65 -33 vhcurveto
            -2 31 -3 29 -6 32 -61 -5 91 callgsubr
            -281 -93 callsubr
            237 vlineto
            61 24 37 32 44 hhcurveto
            43 30 -27 -60 hvcurveto
            -200 vlineto
            -39 -17 -10 -37 -6 vhcurveto
            -4 -14 -1 -18 1 -15 rrcurveto
            246 272 callgsubr
            rrcurveto
            -23 -16 4 8 -29 hvcurveto
            endchar
          </CharString>
          <CharString index="22">
            -66 callsubr
            -57 -30 39 49 61 47 64 65 return
          </CharString>
          <CharString index="23">
            194 callsubr
            -22 -8 callsubr
            return
          </CharString>
          <CharString index="24">
            588 159 vlineto
            return
          </CharString>
          <CharString index="25">
            hlineto
            60 -87 rlineto
            180 220 callgsubr
            rlineto
            -141 88 110 -162 179 hhcurveto
            return
          </CharString>
          <CharString index="26">
            rmoveto
            120 -3 33 64 71 hhcurveto
            69 36 -64 -120 4 hvcurveto
            -121 3 -31 -62 -71 hhcurveto
            -70 -36 62 121 -5 hvcurveto
            342 hmoveto
            158 -100 83 -136 -136 -101 -83 -158 -157 97 -84 139 136 101 84 157 vhcurveto
            return
          </CharString>
          <CharString index="27">
            hlineto
            3 -5 53 -76 4 -6 rrcurveto
            83 -159 hlineto
            -25 -14 -51 -25 -44 hhcurveto
            -20 -28 7 13 -19 hvcurveto
            23 26 14 28 33 vvcurveto
            85 -88 112 -87 -59 -56 -39 -48 -39 vhcurveto
            78 -78 rlineto
            44 40 41 21 32 hhcurveto
            29 25 -23 -30 -55 -69 -40 -94 -32 hvcurveto
            60 -100 33 13 34 15 28 19 rlinecurve
            21 -20 10 -24 -28 vvcurveto
            -57 -42 -50 -74 -87 -57 115 100 -45 vhcurveto
            -54 -30 rlineto
            -105 41 88 -180 149 hhcurveto
            108 61 78 88 27 -6 20 -9 19 hvcurveto
            -12 24 27 -9 25 hhcurveto
            20 20 4 11 17 hvcurveto
            -6 -236 108 -61 rlineto
            588 return
          </CharString>
          <CharString index="28">
            57 -87 rlineto
            134 -211 -8 hlineto
            -39 -25 -12 -31 -54 102 -95 44 156 callsubr
            hvcurveto
            60 return
          </CharString>
          <CharString index="29">
            rmoveto
            239 66 vlineto
            76 42 -41 -79 -78 -42 -41 -76 hvcurveto
            178 -103 rmoveto
            -15 28 -16 23 -23 13 rrcurveto
            83 24 46 56 78 vvcurveto
            107 -84 65 -145 vhcurveto
            -282 202 callgsubr
            27 -4 -9 22 hvcurveto
            -475 vlineto
            109 callsubr
            -5 -13 -1 -18 1 -15 rrcurveto
            275 hlineto
            3 14 2 18 -2 14 -27 3 -32 6 -25 10 rrcurveto
            227 45 vlineto
            33 12 -14 -25 12 hvcurveto
            122 -253 rlineto
            165 hlineto
            4 16 1 18 16 vvcurveto
            -39 -20 12 49 -24 hvcurveto
            endchar
          </CharString>
          <CharString index="30">
            rmoveto
            205 callgsubr
            -42 -25 32 47 hvcurveto
            199 173 vlineto
            return
          </CharString>
          <CharString index="31">
            rmoveto
            71 25 36 42 47 vvcurveto
            44 -33 31 -41 -33 -26 -19 -27 vhcurveto
            -34 46 -6 -26 vvcurveto
            -23 -21 -18 -31 -16 vhcurveto
            return
          </CharString>
          <CharString index="32">
            rmoveto
            -40 -33 30 84 -3 hvcurveto
            84 -3 31 30 40 hhcurveto
            40 33 -30 -84 3 hvcurveto
            -84 3 -32 -30 -39 hhcurveto
            115 -212 rmoveto
            36 15 -18 -26 -44 -62 -51 -108 -92 -48 30 47 20 9 25 19 19 hvcurveto
            -2 11 12 -1 13 hhcurveto
            4 97 rmoveto
            -33 -17 16 22 18 12 16 24 12 hvcurveto
            -9 26 29 -4 31 hhcurveto
            114 88 59 100 35 -11 31 -19 24 hvcurveto
            101 12 3 20 3 35 -2 14 rlinecurve
            -43 -61 -12 -34 -42 hvcurveto
            22 -35 -45 11 -51 hhcurveto
            -113 -91 -58 -100 -57 30 -44 46 -27 hvcurveto
            -42 -19 -32 -36 -44 vvcurveto
            -34 14 -31 33 -18 vhcurveto
            -45 -27 -28 -36 -51 vvcurveto
            -85 80 -50 111 166 122 116 112 1 vhcurveto
            62 -37 40 -91 -1 vhcurveto
            endchar
          </CharString>
          <CharString index="33">
            rmoveto
            8 17 17 4 17 hhcurveto
            82 61 -103 -48 37 hvcurveto
            50 35 rlineto
            76 -58 -85 136 -118 hhcurveto
            -26 -29 -8 -15 -24 hvcurveto
            return
          </CharString>
          <CharString index="34">
            -106 callgsubr
            54 25 35 30 38 hhcurveto
            33 19 -30 -38 24 hvcurveto
            1 1 69 -104 84 -109 99 -120 rlinecurve
            73 42 -78 81 -68 84 -35 51 rlinecurve
            43 8 27 23 9 64 callsubr
            return
          </CharString>
          <CharString index="35">
            -41 -26 -9 -28 -51 87 -89 50 25 10 17 52 hvcurveto
            298 return
          </CharString>
          <CharString index="36">
            vlineto
            -73 callgsubr
            return
          </CharString>
          <CharString index="37">
            -93 120 callgsubr
            hvcurveto
            10 callgsubr
            return
          </CharString>
          <CharString index="38">
            -32 rlineto
            -12 31 -8 37 35 vvcurveto
            return
          </CharString>
          <CharString index="39">
            50 43 38 41 hhcurveto
            24 12 -16 -17 -64 -93 -41 -78 -1 hvcurveto
            49 -38 -40 45 -28 hhcurveto
            -32 -31 -25 -30 -52 84 -62 72 -16 hvcurveto
            138 -179 69 45 -126 134 rlineto
            88 18 91 61 79 vvcurveto
            22 -9 32 -18 25 vhcurveto
            return
          </CharString>
          <CharString index="40">
            -58 callgsubr
            29 return
          </CharString>
          <CharString index="41">
            3 -241 rlineto
            -74 -48 -69 -57 -58 hhcurveto
            return
          </CharString>
          <CharString index="42">
            32 -45 callsubr
            return
          </CharString>
          <CharString index="43">
            rmoveto
            -3 -14 -2 -14 -17 vvcurveto
            24 -1 14 -3 17 -5 -116 -193 rcurveline
            -13 -22 -13 -27 -7 -24 rrcurveto
            -3 hlineto
            -116 211 -20 37 10 22 63 5 rlinecurve
            17 -3 13 -4 15 vhcurveto
            -275 hlineto
            -14 2 -14 2 -17 vhcurveto
            18 18 -2 -6 18 hvcurveto
            187 -317 rlineto
            -163 vlineto
            -42 -31 -8 -37 -6 vhcurveto
            -3 -15 -1 -15 1 -16 rrcurveto
            280 hlineto
            3 15 1 17 14 vvcurveto
            -26 1 -26 1 -23 8 rrcurveto
            213 vlineto
            162 266 20 32 13 17 44 6 rlinecurve
            5 17 1 13 1 15 rrcurveto
            endchar
          </CharString>
          <CharString index="44">
            rmoveto
            55 callgsubr
            2 19 -1 14 -30 2 -36 7 -27 10 rrcurveto
            173 vlineto
            93 14 79 24 77 hhcurveto
            10 41 2 51 -7 23 rrcurveto
            -78 -65 -60 -81 -32 hvcurveto
            -1 47 -3 42 -8 46 76 callgsubr
            endchar
          </CharString>
          <CharString index="45">
            46 callgsubr
            -45 -47 -64 -27 -70 -42 callsubr
            return
          </CharString>
          <CharString index="46">
            6 vhcurveto
            4 13 1 19 -1 13 rrcurveto
            return
          </CharString>
          <CharString index="47">
            59 191 -48 callsubr
            return
          </CharString>
          <CharString index="48">
            2 callgsubr
            vhcurveto
            -74 callgsubr
          </CharString>
          <CharString index="49">
            -127 122 -118 88 -76 return
          </CharString>
          <CharString index="50">
            hhcurveto
            -35 -36 16 24 -27 hvcurveto
            return
          </CharString>
          <CharString index="51">
            rmoveto
            242 337 6 23 -3 30 -4 17 rlinecurve
            -358 hlineto
            -7 -49 -3 -43 -45 vvcurveto
            -6 10 12 -1 10 hhcurveto
            71 13 23 21 54 hhcurveto
            114 hlineto
            -245 -338 -5 -22 2 -29 5 -18 rlinecurve
            368 hlineto
            7 50 3 42 -1 46 rrcurveto
            4 -10 -12 3 -9 hhcurveto
            -72 -14 -22 -21 -55 hhcurveto
            endchar
          </CharString>
          <CharString index="52">
            vlineto
            108 -67 rlineto
            588 return
          </CharString>
          <CharString index="53">
            rmoveto
            -3 -15 -1 -21 -15 vvcurveto
            28 -1 27 -3 27 -9 rrcurveto
            -172 vlineto
            -15 -30 -37 -10 -37 hhcurveto
            -111 -78 81 184 160 80 96 123 78 55 -45 -79 14 hvcurveto
            -1 12 18 0 9 hhcurveto
            13 59 6 55 2 48 rrcurveto
            19 -58 -65 14 -83 hhcurveto
            -179 -162 -130 -206 -208 141 -118 159 59 51 18 25 43 hvcurveto
            21 -30 rlineto
            67 212 hlineto
            41 29 7 37 8 vhcurveto
            3 14 2 21 -1 16 rrcurveto
            endchar
          </CharString>
          <CharString index="54">
            -101 callgsubr
            83 -187 hlineto
            -54 34 -61 54 -44 vhcurveto
            -41 48 51 -21 40 hhcurveto
            86 52 57 91 hvcurveto
            260 return
          </CharString>
          <CharString index="55">
            205 rmoveto
            64 callgsubr
            -41 -22 -33 -9 -8 201 callgsubr
            -136 hlineto
            -35 callgsubr
            return
          </CharString>
          <CharString index="56">
            -35 callsubr
            219 callgsubr
          </CharString>
          <CharString index="57">
            -60 87 rlineto
            return
          </CharString>
          <CharString index="58">
            hlineto
            -84 callsubr
            return
          </CharString>
          <CharString index="59">
            -210 -55 callsubr
            156 vlineto
            return
          </CharString>
          <CharString index="60">
            rmoveto
            17 vlineto
            17 -18 -41 25 -32 hhcurveto
            -101 -178 33 -19 rlineto
            return
          </CharString>
          <CharString index="61">
            hvcurveto
            97 -50 -66 59 -77 276 callgsubr
            -44 hvcurveto
            80 -86 rlineto
            28 21 37 27 35 hhcurveto
            50 31 -36 -48 -75 -46 -43 -74 -86 -71 97 84 -60 hvcurveto
            -49 -44 rlineto
            -107 78 105 -127 124 hhcurveto
            return
          </CharString>
          <CharString index="62">
            -17 21 -36 -23 vvcurveto
            return
          </CharString>
          <CharString index="63">
            rmoveto
            -27 -25 -41 -18 211 callsubr
            211 vlineto
            return
          </CharString>
          <CharString index="64">
            43 8 27 23 9 64 callsubr
            -22 callsubr
            endchar
          </CharString>
          <CharString index="65">
            hhcurveto
            -62 -50 24 48 51 55 12 36 30 28 -5 -4 19 hvcurveto
            -39 97 rlineto
            -64 callgsubr
            return
          </CharString>
          <CharString index="66">
            rmoveto
            216 callsubr
            -172 157 -115 124 96 78 66 81 82 -82 70 -66 -64 -47 -54 -61 -41 20 -34 19 -22 hvcurveto
            76 callsubr
            154 196 178 hlineto
            -284 -411 rmoveto
            37 29 38 41 22 11 -12 -18 -43 -42 -36 -44 -12 vhcurveto
            -11 13 -6 17 16 vvcurveto
            return
          </CharString>
          <CharString index="67">
            143 callsubr
            -174 hlineto
            -102 7 118 -112 90 hhcurveto
            return
          </CharString>
          <CharString index="68">
            69 44 rcurveline
            -61 61 -84 88 -37 225 callgsubr
            -96 137 -111 -75 -54 -62 -71 -79 82 -58 55 -19 hvcurveto
            498 280 rmoveto
            -332 hlineto
            50 -87 rlineto
            75 -522 -51 callgsubr
            149 vlineto
            endchar
          </CharString>
          <CharString index="69">
            17 552 117 rmoveto
            -31 -45 -57 -15 -55 hhcurveto
            -114 -92 80 172 167 85 89 109 78 43 -54 -75 2 hvcurveto
            -1 3 35 0 2 hhcurveto
            12 59 6 55 3 52 rrcurveto
            22 -41 -76 12 -62 hhcurveto
            -186 -150 -130 -207 return
          </CharString>
          <CharString index="70">
            -62 callsubr
            -43 33 -40 34 -29 hvcurveto
            return
          </CharString>
          <CharString index="71">
            37 rlineto
            -28 callsubr
            return
          </CharString>
          <CharString index="72">
            -40 callgsubr
            108 -66 rlineto
            588 return
          </CharString>
          <CharString index="73">
            46 56 27 9 25 14 18 hvcurveto
            return
          </CharString>
          <CharString index="74">
            109 50 callgsubr
            return
          </CharString>
          <CharString index="75">
            9 16 18 6 19 hhcurveto
            40 25 -20 -22 22 hvcurveto
            36 48 rlineto
            35 -30 -53 44 -74 hhcurveto
            return
          </CharString>
          <CharString index="76">
            39 54 64 53 32 return
          </CharString>
          <CharString index="77">
            -52 65 -52 78 73 vvcurveto
            return
          </CharString>
          <CharString index="78">
            rmoveto
            47 callsubr
            -74 -44 104 93 -33 vhcurveto
            44 -36 -47 30 -45 hhcurveto
            -40 -28 -16 -19 -22 hvcurveto
            1 144 rlineto
            632 hlineto
            -739 -215 -77 callsubr
            947 87 rmoveto
            -1366 -82 callgsubr
            43 30 48 hhcurveto
            23 16 -11 -17 11 hvcurveto
            -126 48 70 -120 111 -51 callsubr
          </CharString>
          <CharString index="79">
            -30 callsubr
            63 return
          </CharString>
          <CharString index="80">
            -33 hhcurveto
            -49 -41 -76 callgsubr
            return
          </CharString>
          <CharString index="81">
            rmoveto
            79 -77 79 77 -81 79 rlineto
            return
          </CharString>
          <CharString index="82">
            -20 -43 -47 -13 -44 hhcurveto
            -64 -53 48 119 127 50 52 65 50 38 -36 -61 4 hvcurveto
            10 -3 12 -1 9 -1 6 35 7 55 1 41 rrcurveto
            21 -40 -45 11 -48 hhcurveto
            -137 -113 -96 -156 return
          </CharString>
          <CharString index="83">
            rmoveto
            130 callgsubr
            -73 -63 -47 -82 -55 28 -57 36 -40 hvcurveto
            -425 -101 callgsubr
            343 -84 -149 hlineto
            -69 -59 -40 -71 -88 102 -110 68 hvcurveto
            64 53 39 35 hhcurveto
            19 12 -18 -19 -65 -108 -42 -76 1 hvcurveto
            48 -37 -38 41 -28 hhcurveto
            -32 -32 -25 -29 -52 87 -60 71 -17 hvcurveto
            134 -176 69 46 -122 132 rlineto
            94 14 95 65 80 vvcurveto
            74 -79 92 -76 vhcurveto
            -49 -49 -35 -52 hhcurveto
            -28 -15 21 27 40 31 27 43 hvcurveto
            226 184 164 hlineto
            -59 87 rlineto
            -116 hlineto
            -29 28 -23 37 43 83 callgsubr
          </CharString>
          <CharString index="84">
            rmoveto
            33 -19 159 138 rlineto
            17 vlineto
            17 -18 -41 25 -32 hhcurveto
            endchar
          </CharString>
          <CharString index="85">
            24 29 9 14 19 hvcurveto
            -5 -212 105 -66 -91 callsubr
            return
          </CharString>
          <CharString index="86">
            rmoveto
            -39 callgsubr
            return
          </CharString>
          <CharString index="87">
            hlineto
            5 40 2 6 hhcurveto
            -15 -14 -9 -25 -22 vvcurveto
            -42 33 -39 37 -25 vhcurveto
            -40 -20 -25 -33 -45 vvcurveto
            return
          </CharString>
          <CharString index="88">
            55 37 rlineto
            -63 callgsubr
          </CharString>
          <CharString index="89">
            hhcurveto
            -58 -34 40 51 72 48 52 65 34 33 -21 -23 22 hvcurveto
            29 49 rlineto
            39 -33 -48 51 -78 hhcurveto
            -83 -85 -68 -107 return
          </CharString>
          <CharString index="90">
            12 -10 89 -68 10 -8 50 59 rcurveline
            -11 7 -94 64 -14 10 rrcurveto
            84 callsubr
            return
          </CharString>
          <CharString index="91">
            162 callgsubr
            -29 -19 16 32 38 24 18 48 hvcurveto
            208 164 188 273 callgsubr
            61 -87 rlineto
            344 -69 228 callsubr
            -92 95 -94 75 hvcurveto
            48 50 38 38 hhcurveto
            21 11 -12 -13 -53 -69 -46 -84 -75 -56 58 62 -39 hvcurveto
            -54 -38 return
          </CharString>
          <CharString index="92">
            -84 callsubr
            -15 -7 -5 -8 -16 -50 callgsubr
          </CharString>
          <CharString index="93">
            hlineto
            157 callsubr
            -63 54 -67 -63 vvcurveto
            -57 -32 -35 -59 -33 -17 9 5 -6 vhcurveto
            77 -39 -35 85 -32 hhcurveto
            -29 -23 -30 -27 -35 49 -63 61 -48 hvcurveto
            1 -1 106 -215 0 vvcurveto
            66 43 -76 124 rlineto
            -4 13 14 -1 14 hhcurveto
            83 57 60 75 59 -25 52 -42 43 hvcurveto
            return
          </CharString>
          <CharString index="94">
            -9 -17 -17 -21 12 24 -23 vhcurveto
            return
          </CharString>
          <CharString index="95">
            -54 0 callgsubr
            return
          </CharString>
          <CharString index="96">
            -43 rmoveto
            -94 callsubr
            416 hlineto
            58 callsubr
            rlineto
            return
          </CharString>
          <CharString index="97">
            35 17 12 20 hvcurveto
            -7 -174 106 -65 -98 callsubr
          </CharString>
          <CharString index="98">
            rmoveto
            -52 -35 -18 -58 -60 -35 18 52 vhcurveto
            -36 hlineto
            -2 -11 -1 -11 -12 vvcurveto
            -72 53 -50 81 81 52 50 73 11 -1 11 -3 11 vhcurveto
            return
          </CharString>
          <CharString index="99">
            -21 -117 -60 vhcurveto
            return
          </CharString>
          <CharString index="100">
            -74 -4 -54 -12 -57 -21 -4 -13 -2 -19 -1 -14 24 1 25 1 19 -2 rrcurveto
            return
          </CharString>
          <CharString index="101">
            79 -56 228 233 -6 -177 108 -62 183 callsubr
            53 29 48 30 49 hhcurveto
            54 38 -44 -55 -60 -42 -30 -54 -16 -21 1 10 -28 hvcurveto
            36 -104 rlineto
            -5 24 21 -3 21 hhcurveto
            93 58 53 102 101 -126 132 -90 57 callgsubr
            return
          </CharString>
          <CharString index="102">
            rmoveto
            -35 183 callgsubr
            52 27 49 43 33 10 -35 -27 -63 -31 -62 -19 -22 vhcurveto
            35 354 rmoveto
            243 -33 callgsubr
            return
          </CharString>
          <CharString index="103">
            632 rmoveto
            return
          </CharString>
          <CharString index="104">
            -4 -12 -2 -20 -1 -12 24 1 return
          </CharString>
          <CharString index="105">
            334 rmoveto
            -191 211 191 hlineto
            return
          </CharString>
          <CharString index="106">
            315 vlineto
            54 28 88 callgsubr
            return
          </CharString>
          <CharString index="107">
            200 447 -43 rmoveto
            52 callsubr
            79 -152 hlineto
            -98 135 -123 77 171 callgsubr
            vhcurveto
            -7 -173 rlineto
            -105 244 26 callgsubr
            return
          </CharString>
          <CharString index="108">
            hhcurveto
            -53 -45 39 54 64 54 32 52 16 21 56 callgsubr
            return
          </CharString>
          <CharString index="109">
            1 16 0 11 -3 16 -23 -1 -18 3 -19 3 rrcurveto
            endchar
          </CharString>
          <CharString index="110">
            rmoveto
            21 16 -12 -31 -31 -17 -12 -20 -19 -18 12 31 31 18 12 19 hvcurveto
            -120 vmoveto
            55 49 30 47 47 -49 30 -55 -55 -48 -30 -47 -47 48 -30 55 hvcurveto
            return
          </CharString>
          <CharString index="111">
            -101 callgsubr
            86 -164 hlineto
            -101 136 -113 78 return
          </CharString>
          <CharString index="112">
            73 234 53 rmoveto
            239 114 vlineto
            5 19 0 19 -5 18 rrcurveto
            -114 236 57 hlineto
            20 callgsubr
            -230 -75 vlineto
            -4 -18 0 -19 4 -19 rrcurveto
            75 -190 hlineto
            13 callsubr
          </CharString>
          <CharString index="113">
            -107 callsubr
            102 callgsubr
            return
          </CharString>
          <CharString index="114">
            -22 callgsubr
            -117 121 -98 107 return
          </CharString>
          <CharString index="115">
            rmoveto
            71 25 36 42 47 vvcurveto
            44 -33 31 -40 -33 -27 -19 -27 vhcurveto
            -34 47 -6 -26 vvcurveto
            -23 -22 -18 -31 -16 vhcurveto
            return
          </CharString>
          <CharString index="116">
            rmoveto
            -66 -26 -25 -47 -48 -30 39 59 vhcurveto
            222 151 vlineto
            return
          </CharString>
          <CharString index="117">
            228 353 hmoveto
            79 -55 206 216 -3 -141 107 -63 127 callsubr
            -913 -101 callgsubr
            647 hlineto
            4 -207 rlineto
            48 -50 -76 46 -101 hhcurveto
            -182 hlineto
            157 callsubr
            -62 44 -60 -49 vvcurveto
            -45 -26 -79 callgsubr
            45 52 73 49 -20 52 -42 38 hvcurveto
            74 hlineto
            101 75 -24 -56 43 hvcurveto
            return
          </CharString>
          <CharString index="118">
            rlineto
            -32 callsubr
            return
          </CharString>
          <CharString index="119">
            hhcurveto
            -20 -27 -4 -10 -22 hvcurveto
            42 -86 rlineto
            5 13 13 2 11 hhcurveto
            88 62 -170 -42 15 hvcurveto
            85 -53 -92 76 -83 hhcurveto
            -29 -31 -7 -19 -28 hvcurveto
            68 248 callsubr
            50 45 -31 -37 33 hvcurveto
            return
          </CharString>
          <CharString index="120">
            -9 callgsubr
            277 hlineto
            181 137 111 207 207 -143 110 -186 hvcurveto
            endchar
          </CharString>
          <CharString index="121">
            100 callsubr
            -1 -1 -1 5 rlineto
            -327 -95 callgsubr
            170 hlineto
            -131 50 74 -133 121 148 callgsubr
            return
          </CharString>
          <CharString index="122">
            -64 callgsubr
            -43 33 -40 34 245 callsubr
            127 83 77 36 57 57 vhcurveto
            -17 callsubr
            return
          </CharString>
          <CharString index="123">
            -46 callsubr
            80 return
          </CharString>
          <CharString index="124">
            39 23 10 40 -61 callsubr
            return
          </CharString>
          <CharString index="125">
            rmoveto
            5 13 13 2 11 hhcurveto
            88 62 -170 -42 15 hvcurveto
            85 -53 -91 66 callsubr
            18 hhcurveto
            89 70 -103 -24 13 hvcurveto
            65 14 rlineto
            -11 45 -15 48 50 vvcurveto
            63 35 44 64 14 277 callsubr
            -30 17 -46 hhcurveto
            -49 -56 -42 -89 1 hvcurveto
            87 -32 -59 66 -64 hhcurveto
            -21 -27 -4 -10 -22 hvcurveto
            endchar
          </CharString>
          <CharString index="126">
            -101 callgsubr
            502 -201 hlineto
            242 callgsubr
            -11 -11 6 10 -13 vhcurveto
            -9 9 -9 9 -9 7 rrcurveto
            15 -19 -29 5 -36 hhcurveto
            -206 hlineto
            -80 callgsubr
            128 vlineto
            15 12 -1 -3 10 hvcurveto
            68 -100 81 155 callsubr
            return
          </CharString>
          <CharString index="127">
            vvcurveto
            -53 50 -34 58 50 31 27 31 25 vhcurveto
            -11 26 rlineto
            -4 -15 -15 -5 -16 hhcurveto
            -18 -28 7 36 return
          </CharString>
          <CharString index="128">
            -64 57 -44 31 -16 hvcurveto
            56 33 rlineto
            -19 10 -25 23 29 vvcurveto
            return
          </CharString>
          <CharString index="129">
            73 42 rcurveline
            -78 81 -68 84 -35 51 return
          </CharString>
          <CharString index="130">
            25 callsubr
            53 -273 231 callsubr
            133 vlineto
            189 callsubr
            endchar
          </CharString>
          <CharString index="131">
            -8 callgsubr
            -402 -101 callgsubr
            377 260 callsubr
            -154 vlineto
            22 -32 -45 19 -60 hhcurveto
            -166 hlineto
            -80 callgsubr
            119 281 callgsubr
            -82 40 hhcurveto
            87 callsubr
            60 return
          </CharString>
          <CharString index="132">
            rmoveto
            -162 vlineto
            -9 -2 -8 -3 -7 vhcurveto
            -28 29 -121 132 -24 25 rrcurveto
            return
          </CharString>
          <CharString index="133">
            -12 -1 -1 -7 hvcurveto
            -20 16 -14 18 27 vvcurveto
            return
          </CharString>
          <CharString index="134">
            rmoveto
            196 183 vlineto
            -53 87 rlineto
            return
          </CharString>
          <CharString index="135">
            -44 -39 -9 -14 -33 vhcurveto
            -15 15 -15 19 22 204 callsubr
            244 173 225 -33 callgsubr
            -713 -101 callgsubr
            383 -79 -198 136 callgsubr
            -39 21 -46 54 -52 hvcurveto
            -43 -36 -23 -51 -55 vvcurveto
            -176 239 -134 49 -28 vhcurveto
            57 37 rlineto
            -44 22 -210 106 131 vvcurveto
            89 68 61 122 return
          </CharString>
          <CharString index="136">
            44 callsubr
            107 241 callsubr
          </CharString>
          <CharString index="137">
            -134 hlineto
            20 -30 -36 13 -32 hhcurveto
            -50 -40 -23 -33 -26 hvcurveto
            32 -31 -47 26 -54 hhcurveto
            -96 -68 -73 -95 -58 callsubr
            hvcurveto
            54 38 rlineto
            -75 62 -87 81 98 vvcurveto
            71 44 43 57 27 21 -8 -12 16 vhcurveto
            -7 -20 -2 -22 -22 vvcurveto
            -35 8 -36 18 -36 vhcurveto
            97 -69 callsubr
            64 24 58 73 return
          </CharString>
          <CharString index="138">
            80 -2 8 42 40 hhcurveto
            40 8 -41 -81 2 hvcurveto
            -79 1 -8 -42 -39 hhcurveto
            -41 -8 43 78 -1 hvcurveto
            211 hmoveto
            105 return
          </CharString>
          <CharString index="139">
            rmoveto
            189 callsubr
            -41 -29 26 51 hvcurveto
            195 196 25 callsubr
            return
          </CharString>
          <CharString index="140">
            243 callgsubr
            hvcurveto
            59 174 -212 vlineto
            108 -67 256 callsubr
          </CharString>
          <CharString index="141">
            rmoveto
            -33 21 -19 34 33 vvcurveto
            44 36 36 46 41 24 -23 -35 -42 -70 -51 -25 -17 vhcurveto
            return
          </CharString>
          <CharString index="142">
            108 -66 -91 callsubr
            return
          </CharString>
          <CharString index="143">
            -107 callgsubr
            70 18 15 -5 -7 return
          </CharString>
          <CharString index="144">
            229 callgsubr
            -53 hhcurveto
            -54 -44 -31 callsubr
            52 16 22 -2 -9 21 hvcurveto
            -33 166 callgsubr
            -24 hhcurveto
            -41 -42 -15 -32 -28 hvcurveto
            return
          </CharString>
          <CharString index="145">
            rmoveto
            45 -10 121 146 rlineto
            15 vlineto
            -27 15 -26 6 -36 3 rrcurveto
            58 -175 rmoveto
            44 -10 146 143 1 16 -27 14 -26 8 -36 2 rlinecurve
            endchar
          </CharString>
          <CharString index="146">
            -44 -31 callsubr
            52 16 22 -2 -9 21 hvcurveto
            -33 166 callgsubr
            -24 hhcurveto
            -71 -76 -46 -103 return
          </CharString>
          <CharString index="147">
            2 44 callgsubr
            return
          </CharString>
          <CharString index="148">
            -83 368 -24 rmoveto
            50 callsubr
            return
          </CharString>
          <CharString index="149">
            vlineto
            1 -9 -9 0 -9 hhcurveto
            -161 -123 -91 -162 -157 102 -72 93 51 41 20 28 33 hvcurveto
            -32 17 35 -18 41 hhcurveto
            46 28 26 31 26 hvcurveto
            return
          </CharString>
          <CharString index="150">
            -49 callsubr
            -15 66 callgsubr
            return
          </CharString>
          <CharString index="151">
            -68 callsubr
            -4 15 33 -6 17 hhcurveto
            23 19 5 11 18 hvcurveto
            -6 -204 return
          </CharString>
          <CharString index="152">
            vlineto
            -95 callsubr
            return
          </CharString>
          <CharString index="153">
            -78 78 78 -80 79 rlineto
            return
          </CharString>
          <CharString index="154">
            -290 63 callsubr
            return
          </CharString>
          <CharString index="155">
            428 49 callsubr
            -631 218 callgsubr
            341 119 callgsubr
            return
          </CharString>
          <CharString index="156">
            349 27 callsubr
            return
          </CharString>
          <CharString index="157">
            66 31 30 50 48 vvcurveto
            85 -75 101 -119 -28 -28 -7 -13 -27 vhcurveto
            -14 14 -13 18 21 vvcurveto
            36 27 12 44 vhcurveto
            197 173 162 -33 callgsubr
            -600 -101 callgsubr
            333 -79 -150 136 callgsubr
            -39 21 -46 53 -51 hvcurveto
            -34 -32 -24 -43 -50 vvcurveto
            return
          </CharString>
          <CharString index="158">
            -201 hlineto
            -101 callsubr
            return
          </CharString>
          <CharString index="159">
            298 vlineto
            54 29 48 29 49 hhcurveto
            54 37 -44 -55 -60 -42 -30 -53 -16 -21 1 10 -29 hvcurveto
            36 -104 rlineto
            -5 24 22 -3 21 hhcurveto
            92 58 53 102 101 -125 132 -90 57 callgsubr
            1 140 rlineto
            427 -33 callgsubr
            -892 103 callsubr
            return
          </CharString>
          <CharString index="160">
            149 callgsubr
            -26 56 -40 32 vhcurveto
            178 hlineto
            102 callgsubr
            return
          </CharString>
          <CharString index="161">
            vvcurveto
            133 callgsubr
            return
          </CharString>
          <CharString index="162">
            -84 hhcurveto
            -29 -31 -7 -19 -27 hvcurveto
            67 -85 rlineto
            12 22 24 6 return
          </CharString>
          <CharString index="163">
            -47 -57 callsubr
            return
          </CharString>
          <CharString index="164">
            172 callgsubr
            588 return
          </CharString>
          <CharString index="165">
            264 callgsubr
            -104 callsubr
            16 25 24 hvcurveto
            -4 -98 return
          </CharString>
          <CharString index="166">
            837 rmoveto
            51 callgsubr
            88 71 -103 -24 13 hvcurveto
            65 14 rlineto
            116 -20 -62 234 -146 hhcurveto
            -21 -26 -4 -10 -23 hvcurveto
            return
          </CharString>
          <CharString index="167">
            -62 551 -4 callsubr
            -631 hlineto
            62 -87 rlineto
            128 -169 hlineto
            -41 -26 -9 -28 -51 87 -89 50 24 10 17 52 hvcurveto
            277 130 -294 vlineto
            -264 -237 79 -55 185 185 rlineto
            -119 234 callgsubr
            589 163 vlineto
            return
          </CharString>
          <CharString index="168">
            342 rmoveto
            43 -23 37 -41 -60 vvcurveto
            -76 -55 -60 -92 -83 -71 58 78 88 60 36 66 vhcurveto
            return
          </CharString>
          <CharString index="169">
            -81 callsubr
            endchar
          </CharString>
          <CharString index="170">
            149 callsubr
            -26 -24 -43 return
          </CharString>
          <CharString index="171">
            99 callgsubr
            44 hhcurveto
            return
          </CharString>
          <CharString index="172">
            -4 36 callgsubr
            return
          </CharString>
          <CharString index="173">
            76 55 callsubr
            return
          </CharString>
          <CharString index="174">
            hlineto
            32 -17 20 210 callgsubr
            -14 66 callgsubr
            return
          </CharString>
          <CharString index="175">
            36 callgsubr
            21 return
          </CharString>
          <CharString index="176">
            97 rlineto
            5 -23 -27 3 -22 hhcurveto
            -19 -18 -2 -4 -17 hvcurveto
            -17 14 -14 16 20 vvcurveto
            39 38 15 54 23 27 -3 -6 return
          </CharString>
          <CharString index="177">
            -70 hhcurveto
            -38 -41 16 40 52 56 7 48 30 31 -5 -7 19 hvcurveto
            -30 93 rlineto
            6 -21 -28 3 -24 hhcurveto
            -17 -17 -2 -3 -17 hvcurveto
            -16 13 -17 18 23 vvcurveto
            35 31 3 46 vhcurveto
            18 71 -1 26 hhcurveto
            144 vlineto
            endchar
          </CharString>
          <CharString index="178">
            -44 callgsubr
            endchar
          </CharString>
          <CharString index="179">
            154 callgsubr
            -55 -93 103 callgsubr
            return
          </CharString>
          <CharString index="180">
            72 callsubr
            76 -94 hvcurveto
            56 147 callsubr
            68 vhcurveto
            return
          </CharString>
          <CharString index="181">
            rmoveto
            -51 -33 -32 -55 -59 vvcurveto
            -59 35 -32 33 28 20 20 27 vhcurveto
            40 -43 13 43 vvcurveto
            31 13 21 27 23 vhcurveto
            return
          </CharString>
          <CharString index="182">
            rmoveto
            84 callgsubr
            return
          </CharString>
          <CharString index="183">
            -76 4 -67 60 76 vvcurveto
            89 61 39 76 vhcurveto
            return
          </CharString>
          <CharString index="184">
            393 96 callsubr
            return
          </CharString>
          <CharString index="185">
            rmoveto
            203 168 253 callsubr
            return
          </CharString>
          <CharString index="186">
            -4 callsubr
            -685 -101 callgsubr
            416 -89 callsubr
            -77 -82 -62 -107 -13 return
          </CharString>
          <CharString index="187">
            hhcurveto
            156 callgsubr
          </CharString>
          <CharString index="188">
            342 87 rmoveto
            -15 -22 -23 -7 -29 hhcurveto
            -62 -44 41 128 130 44 40 83 19 18 -2 -3 16 hvcurveto
            return
          </CharString>
          <CharString index="189">
            hlineto
            -63 -32 -27 -43 -46 vvcurveto
            -53 50 -34 58 50 31 27 31 25 vhcurveto
            endchar
          </CharString>
          <CharString index="190">
            105 callsubr
            -57 -33 rlineto
            -146 50 77 -176 138 -40 callgsubr
            return
          </CharString>
          <CharString index="191">
            30 46 18 53 56 vvcurveto
            70 -37 76 -58 35 vhcurveto
            return
          </CharString>
          <CharString index="192">
            hlineto
            -65 callsubr
            -24 return
          </CharString>
          <CharString index="193">
            -13 -18 -23 hvcurveto
            1 140 rlineto
            203 -33 callgsubr
            return
          </CharString>
          <CharString index="194">
            22 153 callsubr
            return
          </CharString>
          <CharString index="195">
            47 3 23 37 33 hhcurveto
            27 15 -19 -25 -50 -51 -42 -66 -73 -70 61 61 -50 hvcurveto
            -47 -35 rlineto
            -85 62 105 -89 111 hhcurveto
            106 56 72 68 32 -19 41 -31 35 hvcurveto
            33 -30 -41 25 -39 hhcurveto
            return
          </CharString>
          <CharString index="196">
            23 21 33 38 vvcurveto
            31 -16 39 -42 31 vhcurveto
            -196 151 rlineto
            -40 30 -5 11 49 vvcurveto
            273 return
          </CharString>
          <CharString index="197">
            259 callgsubr
            -48 -47 -31 39 59 vhcurveto
            222 152 vlineto
            return
          </CharString>
          <CharString index="198">
            114 4 87 callgsubr
            return
          </CharString>
          <CharString index="199">
            vhcurveto
            84 -130 70 49 -105 126 rlineto
            20 22 13 23 20 vvcurveto
            37 -50 221 callsubr
            -40 -71 -55 48 75 76 45 31 88 vhcurveto
            return
          </CharString>
          <CharString index="200">
            109 -58 134 callsubr
            return
          </CharString>
          <CharString index="201">
            72 callsubr
            77 -94 hvcurveto
            return
          </CharString>
          <CharString index="202">
            -101 callgsubr
            94 -152 hlineto
            return
          </CharString>
          <CharString index="203">
            rmoveto
            -4 callgsubr
            return
          </CharString>
          <CharString index="204">
            16 -14 18 27 vvcurveto
            95 callgsubr
            return
          </CharString>
          <CharString index="205">
            16 24 21 8 20 hhcurveto
            80 59 -122 -88 44 hvcurveto
            55 28 rlineto
            return
          </CharString>
          <CharString index="206">
            -60 -49 vvcurveto
            -45 return
          </CharString>
          <CharString index="207">
            hlineto
            105 callsubr
            return
          </CharString>
          <CharString index="208">
            hhcurveto
            106 callgsubr
            return
          </CharString>
          <CharString index="209">
            -52 -48 -46 -20 -61 hhcurveto
            -73 -58 43 77 87 61 35 68 hvcurveto
            147 203 168 hlineto
            197 callgsubr
            return
          </CharString>
          <CharString index="210">
            hlineto
            59 -87 rlineto
            return
          </CharString>
          <CharString index="211">
            69 50 -105 125 rlineto
            20 22 13 23 20 vvcurveto
            37 -49 221 callsubr
            -41 -70 -56 49 74 76 46 31 88 vhcurveto
            return
          </CharString>
          <CharString index="212">
            -1 callgsubr
            -25 -24 -44 -87 -12 callsubr
            return
          </CharString>
          <CharString index="213">
            484 545 rmoveto
            133 -33 callgsubr
            -636 95 callsubr
            return
          </CharString>
          <CharString index="214">
            196 callgsubr
            -14 -16 11 17 -18 vhcurveto
            62 return
          </CharString>
          <CharString index="215">
            -521 hlineto
            108 -67 rlineto
            return
          </CharString>
          <CharString index="216">
            -40 -24 234 callsubr
            return
          </CharString>
          <CharString index="217">
            rmoveto
            130 callgsubr
            -73 -63 -47 -82 -72 49 -76 49 -35 hvcurveto
            50 20 rlineto
            -35 30 -29 41 48 83 callgsubr
          </CharString>
          <CharString index="218">
            hhcurveto
            118 callsubr
          </CharString>
          <CharString index="219">
            hlineto
            96 callgsubr
            return
          </CharString>
          <CharString index="220">
            51 63 94 68 82 hhcurveto
            38 37 -12 -26 40 hvcurveto
            -170 -115 rlineto
            -23 -16 -9 -16 -16 vvcurveto
            -50 79 -35 60 28 18 11 16 10 -3 8 -45 61 vhcurveto
            return
          </CharString>
          <CharString index="221">
            rmoveto
            58 11 36 23 54 77 89 -79 84 hhcurveto
            89 74 56 125 10 hvcurveto
            -48 hlineto
            -58 -10 -35 -23 -54 -83 -78 79 -87 hhcurveto
            -90 -74 -56 -125 -10 hvcurveto
            return
          </CharString>
          <CharString index="222">
            rmoveto
            -27 -30 14 25 -30 hvcurveto
            8 20 8 20 8 19 rrcurveto
            71 29 24 59 55 hhcurveto
            return
          </CharString>
          <CharString index="223">
            30 -32 -43 -92 callsubr
            222 return
          </CharString>
          <CharString index="224">
            139 callgsubr
            -14 -16 11 17 -18 vhcurveto
            62 return
          </CharString>
          <CharString index="225">
            213 callgsubr
            hvcurveto
            68 callgsubr
          </CharString>
          <CharString index="226">
            55 37 rlineto
            265 callsubr
            return
          </CharString>
          <CharString index="227">
            106 rlineto
            4 -27 -33 4 return
          </CharString>
          <CharString index="228">
            hlineto
            108 callgsubr
            -6 -9 -16 vvcurveto
            -78 127 -102 96 245 callgsubr
            return
          </CharString>
          <CharString index="229">
            -2 -20 -1 -12 24 1 25 return
          </CharString>
          <CharString index="230">
            -1 27 -3 22 return
          </CharString>
          <CharString index="231">
            108 -63 257 callgsubr
            -508 25 62 callgsubr
            return
          </CharString>
          <CharString index="232">
            -101 callgsubr
            169 43 callsubr
            -81 149 -150 104 48 return
          </CharString>
          <CharString index="233">
            -314 197 545 rmoveto
            154 hlineto
            -46 87 rlineto
            return
          </CharString>
          <CharString index="234">
            -91 callsubr
            -60 87 rlineto
            return
          </CharString>
          <CharString index="235">
            -517 hlineto
            108 -71 rlineto
            588 return
          </CharString>
          <CharString index="236">
            hhcurveto
            -45 -40 27 50 54 return
          </CharString>
          <CharString index="237">
            -19 -21 -56 -28 -50 -27 hvcurveto
            -16 227 callsubr
            97 46 47 28 41 37 151 callgsubr
            return
          </CharString>
          <CharString index="238">
            198 callsubr
            -5 -126 -69 callgsubr
            153 vlineto
            endchar
          </CharString>
          <CharString index="239">
            -280 hlineto
            197 callsubr
            33 30 25 vvcurveto
            54 -116 91 -99 vhcurveto
            return
          </CharString>
          <CharString index="240">
            rmoveto
            -31 -1 -42 -25 -17 -16 rrcurveto
            -18 vlineto
            158 -137 33 19 rlineto
            return
          </CharString>
          <CharString index="241">
            rlineto
            -1 callsubr
            return
          </CharString>
          <CharString index="242">
            -39 -41 29 53 hvcurveto
            return
          </CharString>
          <CharString index="243">
            75 45 35 88 vhcurveto
            return
          </CharString>
          <CharString index="244">
            30 -35 -28 7 -36 hhcurveto
            return
          </CharString>
          <CharString index="245">
            hhcurveto
            -77 -78 callgsubr
            return
          </CharString>
          <CharString index="246">
            rmoveto
            31 callsubr
            return
          </CharString>
          <CharString index="247">
            -76 callsubr
            endchar
          </CharString>
          <CharString index="248">
            -25 hvcurveto
            -32 -35 -34 -15 211 callsubr
            return
          </CharString>
          <CharString index="249">
            11 14 10 hvcurveto
            60 return
          </CharString>
          <CharString index="250">
            -101 callgsubr
            85 return
          </CharString>
          <CharString index="251">
            hlineto
            32 20 -24 -31 hvcurveto
            -146 return
          </CharString>
          <CharString index="252">
            rlineto
            -23 -16 -8 -15 -14 vvcurveto
            -51 78 -28 54 28 19 10 16 6 -2 5 -6 8 vhcurveto
            -3 8 -18 21 -16 23 return
          </CharString>
          <CharString index="253">
            hhcurveto
            -53 -42 33 45 56 59 12 49 29 29 -6 -5 20 hvcurveto
            return
          </CharString>
          <CharString index="254">
            -36 callsubr
            34 43 return
          </CharString>
          <CharString index="255">
            -20 -27 -24 -9 -26 hhcurveto
            -28 -19 14 44 hvcurveto
            return
          </CharString>
          <CharString index="256">
            hlineto
            -1 callgsubr
            return
          </CharString>
          <CharString index="257">
            -12 170 callsubr
            return
          </CharString>
          <CharString index="258">
            rmoveto
            -242 -47 242 hlineto
            return
          </CharString>
          <CharString index="259">
            hhcurveto
            -29 -37 -12 -20 -33 hvcurveto
            return
          </CharString>
          <CharString index="260">
            8 13 19 hvcurveto
            return
          </CharString>
          <CharString index="261">
            -101 callgsubr
            340 -79 -155 136 callgsubr
            -40 23 -48 58 -54 hvcurveto
            -39 -31 -27 -43 -52 vvcurveto
            return
          </CharString>
          <CharString index="262">
            -105 96 -116 30 callgsubr
            return
          </CharString>
          <CharString index="263">
            22 8 12 20 return
          </CharString>
          <CharString index="264">
            -12 -18 rlineto
            64 return
          </CharString>
          <CharString index="265">
            83 489 23 rmoveto
            -69 callgsubr
            153 vlineto
            -54 87 rlineto
            -770 262 callgsubr
            510 return
          </CharString>
          <CharString index="266">
            hlineto
            -95 callsubr
            return
          </CharString>
          <CharString index="267">
            311 rmoveto
            -55 -33 -50 -56 -83 hhcurveto
            -42 -52 28 40 15 return
          </CharString>
          <CharString index="268">
            -23 -46 -43 hvcurveto
            79 -86 rlineto
            28 22 36 27 36 hhcurveto
            50 return
          </CharString>
          <CharString index="269">
            43 callsubr
            -14 5 -17 8 return
          </CharString>
          <CharString index="270">
            -241 hlineto
            175 callsubr
            return
          </CharString>
          <CharString index="271">
            rmoveto
            -15 callgsubr
            143 -154 rlineto
            -12 -21 -21 -6 -20 hhcurveto
            endchar
          </CharString>
          <CharString index="272">
            hlineto
            -65 callsubr
            -25 -20 -20 return
          </CharString>
          <CharString index="273">
            15 171 callsubr
            return
          </CharString>
          <CharString index="274">
            28 40 15 11 149 callgsubr
            -25 56 -41 32 vhcurveto
            178 hlineto
            return
          </CharString>
          <CharString index="275">
            hhcurveto
            23 153 callsubr
            59 190 239 callgsubr
          </CharString>
          <CharString index="276">
            -81 -69 53 72 81 71 21 89 20 17 3 4 14 return
          </CharString>
          <CharString index="277">
            -11 -13 -26 -24 213 callsubr
            return
          </CharString>
          <CharString index="278">
            13 -2 -5 15 vhcurveto
            return
          </CharString>
          <CharString index="279">
            188 callsubr
            43 69 vhcurveto
            return
          </CharString>
          <CharString index="280">
            60 -45 -65 46 -54 hhcurveto
            -40 -33 86 callsubr
            return
          </CharString>
          <CharString index="281">
            vlineto
            -50 callsubr
            return
          </CharString>
          <CharString index="282">
            -81 -47 -66 -54 -72 142 callgsubr
            return
          </CharString>
          <CharString index="283">
            hhcurveto
            55 201 callsubr
            109 -72 rlineto
            588 153 vlineto
            endchar
          </CharString>
          <CharString index="284">
            23 callgsubr
            213 callgsubr
            return
          </CharString>
          <CharString index="285">
            108 -63 127 callsubr
            return
          </CharString>
          <CharString index="286">
            545 rmoveto
            159 -33 callgsubr
            return
          </CharString>
          <CharString index="287">
            -6 vhcurveto
            -5 -14 -1 -18 1 -15 rrcurveto
            return
          </CharString>
          <CharString index="288">
            44 callgsubr
            rrcurveto
            return
          </CharString>
          <CharString index="289">
            54 123 callgsubr
            return
          </CharString>
          <CharString index="290">
            rlineto
            298 vlineto
            return
          </CharString>
          <CharString index="291">
            hlineto
            32 -17 20 206 callgsubr
            -117 -60 vhcurveto
            -15 66 callgsubr
            return
          </CharString>
          <CharString index="292">
            -97 430 675 rmoveto
            -420 -712 rlineto
            54 hlineto
            420 712 rlineto
            endchar
          </CharString>
          <CharString index="293">
            rmoveto
            238 callgsubr
            27 24 rlineto
            endchar
          </CharString>
          <CharString index="294">
            186 38 callgsubr
            return
          </CharString>
          <CharString index="295">
            54 callsubr
            34 return
          </CharString>
          <CharString index="296">
            164 -174 rlineto
            -24 -25 -36 -12 -33 hhcurveto
            return
          </CharString>
          <CharString index="297">
            hhcurveto
            57 callgsubr
            1 140 rlineto
            return
          </CharString>
          <CharString index="298">
            -2 -15 -10 -3 -12 hhcurveto
            -17 -13 13 38 hvcurveto
            return
          </CharString>
          <CharString index="299">
            19 11 16 5 -2 5 -5 9 vhcurveto
            -4 8 return
          </CharString>
          <CharString index="300">
            rmoveto
            242 47 -242 hlineto
            endchar
          </CharString>
          <CharString index="301">
            -65 callsubr
            -26 return
          </CharString>
          <CharString index="302">
            13 rrcurveto
            -259 hlineto
            -2 -12 return
          </CharString>
          <CharString index="303">
            40 -39 -49 -36 return
          </CharString>
          <CharString index="304">
            -47 -25 -79 -83 -75 hhcurveto
            -31 -27 17 30 14 11 10 19 14 hvcurveto
            58 41 return
          </CharString>
          <CharString index="305">
            87 callgsubr
            -104 124 -104 90 274 callgsubr
            vhcurveto
            return
          </CharString>
          <CharString index="306">
            hlineto
            108 -51 -73 138 -128 hhcurveto
            -30 -36 -12 -20 -33 hvcurveto
            endchar
          </CharString>
          <CharString index="307">
            298 129 -519 234 callgsubr
            588 163 vlineto
            endchar
          </CharString>
          <CharString index="308">
            123 callgsubr
            hvcurveto
            -5 -119 return
          </CharString>
          <CharString index="309">
            vvcurveto
            -51 79 -28 54 27 19 11 return
          </CharString>
          <CharString index="310">
            11 16 5 -1 5 -6 9 vhcurveto
            return
          </CharString>
          <CharString index="311">
            vvcurveto
            36 27 12 45 vhcurveto
            return
          </CharString>
          <CharString index="312">
            hlineto
            -125 -57 -69 -90 return
          </CharString>
          <CharString index="313">
            85 -68 144 165 return
          </CharString>
          <CharString index="314">
            hlineto
            -57 -22 14 48 -7 hvcurveto
            -43 -2 -5 -56 0 -61 5 -55 rlinecurve
            43 return
          </CharString>
          <CharString index="315">
            270 callgsubr
            38 24 -16 -33 20 hvcurveto
            return
          </CharString>
          <CharString index="316">
            55 37 rcurveline
            265 callsubr
            113 hlineto
            return
          </CharString>
          <CharString index="317">
            rmoveto
            78 callgsubr
            return
          </CharString>
          <CharString index="318">
            -47 22 callgsubr
            return
          </CharString>
          <CharString index="319">
            -43 rmoveto
            -83 callsubr
            -60 87 rlineto
            return
          </CharString>
          <CharString index="320">
            vvcurveto
            -47 38 -31 return
          </CharString>
          <CharString index="321">
            hhcurveto
            -39 -50 13 34 -43 hvcurveto
            -35 -44 rlineto
            -66 66 70 -31 64 hhcurveto
            return
          </CharString>
          <CharString index="322">
            77 -176 138 hhcurveto
            83 45 -48 callgsubr
            return
          </CharString>
          <CharString index="323">
            -611 -101 callgsubr
            325 -100 -100 hlineto
            -114 -61 -74 -90 return
          </CharString>
          <CharString index="324">
            -682 hlineto
            57 -87 rlineto
            340 -105 -86 hlineto
            -112 -65 -62 -105 return
          </CharString>
          <CharString index="325">
            hlineto
            61 -87 rlineto
            return
          </CharString>
          <CharString index="326">
            50 59 -12 7 -94 64 -13 10 rlinecurve
            30 46 18 53 56 vvcurveto
            return
          </CharString>
          <CharString index="327">
            vvcurveto
            -51 243 callsubr
            return
          </CharString>
          <CharString index="328">
            75 -43 -42 -38 -33 -37 -22 8 -19 13 -20 vhcurveto
            0 -24 -22 return
          </CharString>
          <CharString index="329">
            4 -24 hhcurveto
            -71 -76 -46 -103 -58 callgsubr
            return
          </CharString>
          <CharString index="330">
            -46 -50 -61 -42 20 -37 18 -22 vhcurveto
            -76 4 -67 59 75 vvcurveto
            return
          </CharString>
          <CharString index="331">
            55 37 rcurveline
            -30 callsubr
            return
          </CharString>
          <CharString index="332">
            -68 90 rlineto
            -44 -45 -59 -33 -70 hhcurveto
            return
          </CharString>
          <CharString index="333">
            -41 -29 26 51 hvcurveto
            208 181 return
          </CharString>
          <CharString index="334">
            -9 -6 152 callgsubr
            return
          </CharString>
          <CharString index="335">
            -131 hlineto
            -84 -45 -38 -70 return
          </CharString>
          <CharString index="336">
            hlineto
            2 14 2 18 -1 14 return
          </CharString>
          <CharString index="337">
            hlineto
            65 callsubr
            return
          </CharString>
          <CharString index="338">
            rmoveto
            -41 -29 26 51 hvcurveto
            return
          </CharString>
          <CharString index="339">
            28 -3 -19 -21 -55 -28 return
          </CharString>
          <CharString index="340">
            -49 -22 -41 -35 -53 hhcurveto
            return
          </CharString>
          <CharString index="341">
            -10 -39 -6 vhcurveto
            return
          </CharString>
          <CharString index="342">
            hlineto
            51 -87 rlineto
            74 -522 -51 callgsubr
            return
          </CharString>
          <CharString index="343">
            hlineto
            -11 -18 264 callsubr
            return
          </CharString>
          <CharString index="344">
            -30 -61 vvcurveto
            -72 -56 -56 -92 -81 -73 53 79 84 72 22 return
          </CharString>
          <CharString index="345">
            56 37 rlineto
            -53 65 -51 78 73 vvcurveto
            63 33 43 69 vhcurveto
            return
          </CharString>
          <CharString index="346">
            151 callgsubr
            156 vlineto
            endchar
          </CharString>
          <CharString index="347">
            -5 -132 270 callsubr
          </CharString>
          <CharString index="348">
            -66 -98 callsubr
          </CharString>
          <CharString index="349">
            207 87 rmoveto
            return
          </CharString>
          <CharString index="350">
            78 -28 54 27 19 203 callsubr
            return
          </CharString>
          <CharString index="351">
            -327 187 545 rmoveto
            146 hlineto
            -47 87 rlineto
            return
          </CharString>
          <CharString index="352">
            203 callgsubr
            -115 128 -94 return
          </CharString>
          <CharString index="353">
            -86 53 rlineto
            -56 -10 -20 -19 -31 hhcurveto
            -27 -21 19 30 return
          </CharString>
          <CharString index="354">
            -80 rlineto
            66 42 35 49 85 vvcurveto
            194 143 vlineto
            return
          </CharString>
          <CharString index="355">
            -85 rlineto
            12 22 24 6 18 hhcurveto
            return
          </CharString>
          <CharString index="356">
            vlineto
            8 7 0 -1 7 hvcurveto
            -55 return
          </CharString>
          <CharString index="357">
            134 -165 57 return
          </CharString>
          <CharString index="358">
            88 callgsubr
            61 return
          </CharString>
          <CharString index="359">
            -20 29 31 39 return
          </CharString>
          <CharString index="360">
            vlineto
            -57 87 rlineto
            return
          </CharString>
          <CharString index="361">
            -28 -32 -34 -14 -44 -57 callsubr
            return
          </CharString>
          <CharString index="362">
            -21 -29 -30 -11 -39 -57 callsubr
            return
          </CharString>
          <CharString index="363">
            rlineto
            588 158 vlineto
            endchar
          </CharString>
          <CharString index="364">
            -43 -57 214 callgsubr
            return
          </CharString>
          <CharString index="365">
            19 -2 19 2 18 4 return
          </CharString>
          <CharString index="366">
            hlineto
            57 -87 rlineto
            131 return
          </CharString>
          <CharString index="367">
            hlineto
            33 20 -24 -31 hvcurveto
            return
          </CharString>
          <CharString index="368">
            -64 100 -76 hvcurveto
            return
          </CharString>
          <CharString index="369">
            -211 -7 hlineto
            return
          </CharString>
          <CharString index="370">
            hhcurveto
            -74 -61 -57 -76 -106 93 -60 94 -11 hvcurveto
            return
          </CharString>
          <CharString index="371">
            rlineto
            63 224 callgsubr
            return
          </CharString>
          <CharString index="372">
            -52 212 callgsubr
            return
          </CharString>
          <CharString index="373">
            75 68 38 hvcurveto
            -80 62 rlineto
            -61 -32 -46 -58 return
          </CharString>
          <CharString index="374">
            hhcurveto
            -42 -43 23 37 20 19 11 15 10 hvcurveto
            return
          </CharString>
          <CharString index="375">
            rlineto
            -382 hlineto
            60 -89 114 4 rlineto
            -23 return
          </CharString>
          <CharString index="376">
            -68 144 166 134 -166 57 38 return
          </CharString>
          <CharString index="377">
            35 callsubr
            endchar
          </CharString>
          <CharString index="378">
            -201 hlineto
            -20 -9 -8 -15 return
          </CharString>
          <CharString index="379">
            99 callsubr
            -26 -24 -43 return
          </CharString>
          <CharString index="380">
            -286 hlineto
            -49 -22 return
          </CharString>
          <CharString index="381">
            44 243 callgsubr
            return
          </CharString>
          <CharString index="382">
            13 19 -21 vhcurveto
            33 return
          </CharString>
          <CharString index="383">
            204 87 rmoveto
            return
          </CharString>
          <CharString index="384">
            171 callsubr
            24 45 rlineto
            23 -31 return
          </CharString>
          <CharString index="385">
            vlineto
            108 -63 257 callgsubr
            return
          </CharString>
          <CharString index="386">
            -64 227 callgsubr
            return
          </CharString>
          <CharString index="387">
            118 -174 -118 -175 46 -25 return
          </CharString>
          <CharString index="388">
            -11 13 -6 17 16 vvcurveto
            37 29 38 41 return
          </CharString>
          <CharString index="389">
            -101 callgsubr
            180 -200 hlineto
            -21 return
          </CharString>
          <CharString index="390">
            rmoveto
            79 -79 222 178 -5 -121 return
          </CharString>
          <CharString index="391">
            32 160 rlineto
            -82 hlineto
            -32 -160 rlineto
            return
          </CharString>
          <CharString index="392">
            -36 -23 vvcurveto
            -26 return
          </CharString>
          <CharString index="393">
            64 -64 100 -76 return
          </CharString>
        <CharString name=".notdef">
          161 166 -43 rmoveto
          422 701 -422 hlineto
          73 -68 rmoveto
          277 -565 -277 hlineto
          endchar
        </CharString>
        <CharString name="A">
          29 199 274 -99 callgsubr
        </CharString>
        <CharString name="AE">
          288 287 274 rmoveto
          95 146 39 68 rlineto
          -214 vlineto
          126 -221 rmoveto
          240 vlineto
          136 -8 rlineto
          38 73 -38 hlineto
          -136 -11 rlineto
          237 144 vlineto
          71 4 -46 -71 7 hvcurveto
          14 28 1 1 10 hvcurveto
          6 55 1 57 -2 54 rrcurveto
          -475 hlineto
          -3 -12 -2 -20 1 -13 rrcurveto
          18 26 -3 -7 20 hvcurveto
          -308 -468 -24 -36 -27 -20 -49 -6 rlinecurve
          -3 -15 -2 -19 1 -16 rrcurveto
          210 hlineto
          3 16 1 17 17 vvcurveto
          -23 1 -21 7 -20 12 97 147 rcurveline
          171 -115 hlineto
          109 callsubr
          -5 -13 -1 -18 1 -15 rrcurveto
          487 174 callgsubr
        </CharString>
        <CharString name="Aacute">
          29 479 812 -47 callsubr
          -121 -400 -99 callgsubr
        </CharString>
        <CharString name="Abreve">
          29 404 854 -9 callsubr
          -241 -580 -99 callgsubr
        </CharString>
        <CharString name="Acircumflex">
          29 311 757 19 callgsubr
          20 -404 -99 callgsubr
        </CharString>
        <CharString name="Adieresis">
          29 391 692 -75 callgsubr
          -30 -418 -99 callgsubr
        </CharString>
        <CharString name="Agrave">
          29 347 703 -2 callgsubr
          -115 -410 -99 callgsubr
        </CharString>
        <CharString name="Amacron">
          29 431 747 151 callsubr
          -232 -426 -99 callgsubr
        </CharString>
        <CharString name="Aogonek">
          29 199 274 rmoveto
          71 231 8 39 83 -270 rlineto
          281 -398 90 callgsubr
          3 16 1 13 1 17 -46 2 -18 15 -14 44 -173 541 rcurveline
          -37 -55 -4 -8 -32 hvcurveto
          -174 -528 -11 -32 -18 -20 -43 -10 rlinecurve
          -3 -15 -1 -15 -16 vvcurveto
          209 hlineto
          3 16 1 13 17 vvcurveto
          -31 1 -25 2 -23 12 49 156 rcurveline
          197 hlineto
          45 -147 -21 -12 -27 -6 -26 -6 rlinecurve
          -3 -16 -1 -14 -16 vvcurveto
          183 82 callsubr
        </CharString>
        <CharString name="Aring">
          29 310 801 3 callsubr
          -111 -407 -99 callgsubr
        </CharString>
        <CharString name="Atilde">
          29 430 831 8 callgsubr
          -267 -557 -99 callgsubr
        </CharString>
        <CharString name="B">
          28 233 53 rmoveto
          244 68 vlineto
          89 47 -45 -78 -77 -47 -44 -89 hvcurveto
          -68 297 rmoveto
          234 54 vlineto
          81 42 -46 -72 -56 -34 -42 -50 -19 hvcurveto
          -285 286 rmoveto
          182 callgsubr
          rrcurveto
          20 29 -4 -9 20 hvcurveto
          -475 63 callgsubr
          266 hlineto
          178 84 71 103 75 -40 59 -77 24 hvcurveto
          58 27 33 43 64 vvcurveto
          91 -68 78 -187 vhcurveto
          endchar
        </CharString>
        <CharString name="C">
          -38 callsubr
          -212 146 -113 156 91 83 41 57 52 hvcurveto
          endchar
        </CharString>
        <CharString name="CR">
          -343 endchar
        </CharString>
        <CharString name="Cacute">
          -38 callsubr
          -212 146 -113 156 91 83 41 57 52 hvcurveto
          -215 608 -23 callsubr
        </CharString>
        <CharString name="Ccaron">
          -38 callsubr
          -212 146 -113 156 91 83 41 57 52 hvcurveto
          -32 736 rmoveto
          -46 callgsubr
          87 hlineto
          endchar
        </CharString>
        <CharString name="Ccedilla">
          -38 callsubr
          -166 90 -106 114 -37 hvcurveto
          -22 -110 rlineto
          -60 callgsubr
          10 52 rlineto
          -1 8 8 0 8 hhcurveto
          91 83 41 57 52 hvcurveto
          endchar
        </CharString>
        <CharString name="D">
          73 234 53 rmoveto
          531 57 vlineto
          20 callgsubr
          -476 vlineto
          13 callsubr
        </CharString>
        <CharString name="Dcaron">
          73 375 681 rmoveto
          116 140 -46 callgsubr
          -54 -628 rmoveto
          531 57 vlineto
          20 callgsubr
          -476 vlineto
          13 callsubr
        </CharString>
        <CharString name="Dcroat">
          5 callsubr
        </CharString>
        <CharString name="E">
          -25 234 53 -97 callgsubr
        </CharString>
        <CharString name="Eacute">
          -25 477 811 -47 callsubr
          -84 -620 -97 callgsubr
        </CharString>
        <CharString name="Ecaron">
          -25 352 682 rmoveto
          116 140 -46 callgsubr
          -31 -629 -97 callgsubr
        </CharString>
        <CharString name="Ecircumflex">
          -25 308 757 19 callgsubr
          58 -625 -97 callgsubr
        </CharString>
        <CharString name="Edieresis">
          -25 387 692 -75 callgsubr
          9 -639 -97 callgsubr
        </CharString>
        <CharString name="Edotaccent">
          -25 307 684 32 callgsubr
          -73 -631 -97 callgsubr
        </CharString>
        <CharString name="Egrave">
          -25 345 703 -2 callgsubr
          -78 -631 -97 callgsubr
        </CharString>
        <CharString name="Emacron">
          -25 429 747 151 callsubr
          -195 -647 -97 callgsubr
        </CharString>
        <CharString name="Eogonek">
          -25 550 -124 90 callgsubr
          2 59 -1 54 -4 59 -11 3 -30 1 -14 -1 rrcurveto
          -74 -8 -7 -48 -70 hhcurveto
          -150 240 hlineto
          144 -8 rlineto
          38 73 -38 hlineto
          -144 -11 rlineto
          237 143 vlineto
          72 4 -46 -71 7 hvcurveto
          14 28 1 1 10 hvcurveto
          5 55 1 57 -1 54 rrcurveto
          -475 230 callsubr
          21 31 -4 -9 19 hvcurveto
          -475 vlineto
          109 callsubr
          -5 -13 -1 -18 1 -15 rrcurveto
          397 82 callsubr
        </CharString>
        <CharString name="Eth">
          5 callsubr
        </CharString>
        <CharString name="Euro">
          17 552 117 rmoveto
          -31 -45 -57 -15 -55 hhcurveto
          -95 -80 56 119 -24 hvcurveto
          203 hlineto
          9 47 rlineto
          -218 hlineto
          -1 10 0 10 10 vvcurveto
          10 0 10 1 10 vhcurveto
          209 hlineto
          9 47 rlineto
          -212 hlineto
          117 22 74 62 91 hhcurveto
          78 43 -54 -75 2 hvcurveto
          -1 3 35 0 2 hhcurveto
          12 59 6 55 3 52 rrcurveto
          22 -41 -76 12 -62 hhcurveto
          -158 -132 -94 -155 -36 hvcurveto
          -55 hlineto
          -8 -47 rlineto
          55 hlineto
          -1 -13 -1 -14 -14 -6 0 -7 -6 vvcurveto
          -45 hlineto
          -8 -47 rlineto
          58 hlineto
          -169 27 131 -90 139 hhcurveto
          91 83 41 57 52 hvcurveto
          endchar
        </CharString>
        <CharString name="F">
          -54 266 callgsubr
          30 -4 -9 19 hvcurveto
          -475 vlineto
          -39 -25 -10 -39 180 callsubr
          296 hlineto
          3 14 1 19 14 vvcurveto
          -32 3 -44 7 -29 10 rrcurveto
          206 vlineto
          140 -8 rlineto
          40 73 -40 hlineto
          -140 -11 rlineto
          257 144 vlineto
          71 4 -46 -71 7 hvcurveto
          14 28 1 1 10 hvcurveto
          5 55 1 57 -1 54 rrcurveto
          endchar
        </CharString>
        <CharString name="G">
          87 404 319 -54 callsubr
        </CharString>
        <CharString name="Gbreve">
          87 457 854 -9 callsubr
          -89 -535 -54 callsubr
        </CharString>
        <CharString name="H">
          130 617 535 rmoveto
          17 callsubr
          -260 hlineto
          -3 -12 -2 -20 1 -13 20 153 callgsubr
          -230 -255 187 vlineto
          -93 callgsubr
          226 255 -183 vlineto
          109 callsubr
          -4 -13 0 -18 -15 vvcurveto
          261 hlineto
          2 14 1 18 14 vvcurveto
          -20 1 -27 2 -22 9 rrcurveto
          endchar
        </CharString>
        <CharString name="I">
          47 callgsubr
          endchar
        </CharString>
        <CharString name="Iacute">
          47 callgsubr
          -86 634 -23 callsubr
        </CharString>
        <CharString name="Icircumflex">
          47 callgsubr
          -37 782 186 callsubr
        </CharString>
        <CharString name="Idieresis">
          -251 252 692 -75 callgsubr
          144 -157 rmoveto
          -93 callgsubr
          endchar
        </CharString>
        <CharString name="Idotaccent">
          -251 170 684 32 callgsubr
          64 -149 rmoveto
          -93 callgsubr
          endchar
        </CharString>
        <CharString name="Igrave">
          -251 208 703 -2 callgsubr
          59 -149 rmoveto
          -93 callgsubr
          endchar
        </CharString>
        <CharString name="Imacron">
          -251 291 747 151 callsubr
          -57 -165 rmoveto
          -93 callgsubr
          endchar
        </CharString>
        <CharString name="Iogonek">
          -251 322 -124 90 callgsubr
          1 229 callsubr
          -20 1 -27 2 -22 10 rrcurveto
          476 vlineto
          39 24 10 39 -61 callsubr
          -259 202 callgsubr
          123 callsubr
          -9 rrcurveto
          -475 vlineto
          109 callsubr
          -5 -13 -1 -18 1 -15 rrcurveto
          169 82 callsubr
        </CharString>
        <CharString name="J">
          -259 266 callgsubr
          123 callsubr
          -9 rrcurveto
          -528 vlineto
          -108 -21 -61 -102 -57 vhcurveto
          8 -13 14 -14 10 -9 rrcurveto
          126 37 91 79 147 vvcurveto
          485 vlineto
          39 24 10 39 -61 callsubr
          endchar
        </CharString>
        <CharString name="K">
          97 413 313 -25 callgsubr
        </CharString>
        <CharString name="L">
          -47 234 52 -57 callgsubr
        </CharString>
        <CharString name="Lacute">
          -47 347 812 -47 callsubr
          46 -622 -57 callgsubr
        </CharString>
        <CharString name="Lcaron">
          -47 364 522 8 callsubr
          -98 -490 -57 callgsubr
        </CharString>
        <CharString name="Lslash">
          -48 234 52 rmoveto
          267 vlineto
          116 40 -4 19 -6 18 -11 16 rlinecurve
          -95 -33 rlineto
          156 vlineto
          39 24 232 callgsubr
          2 19 -2 195 callsubr
          -2 -20 1 -13 20 -1 28 -3 21 -9 rrcurveto
          -241 vlineto
          -96 -33 3 -22 7 -17 11 -14 rlinecurve
          75 26 rlineto
          -174 63 callgsubr
          484 hlineto
          2 54 -3 56 -5 56 rrcurveto
          1 -9 -22 1 -14 hhcurveto
          -70 -6 -5 -46 -70 hhcurveto
          endchar
        </CharString>
        <CharString name="M">
          288 751 534 rmoveto
          -2 42 24 9 34 5 1 17 0 14 -3 14 rrcurveto
          -208 hlineto
          -164 -417 -145 417 rlineto
          -214 hlineto
          -4 -13 -2 -16 1 -16 22 -1 14 -3 20 -7 -26 -476 rcurveline
          -2 -40 -32 -11 -35 -6 -4 -15 -1 -15 -1 -16 rrcurveto
          215 hlineto
          3 15 2 17 1 14 -24 1 -26 1 -24 7 30 483 rcurveline
          35 -99 157 -439 rlineto
          35 hlineto
          178 450 32 84 12 -432 rlineto
          -42 -40 -8 -37 -6 vhcurveto
          -1 -15 0 -15 1 -16 rrcurveto
          281 hlineto
          1 15 0 17 -2 14 -25 1 -24 1 -26 8 rrcurveto
          endchar
        </CharString>
        <CharString name="N">
          132 476 635 -81 callgsubr
        </CharString>
        <CharString name="NULL">
          -593 endchar
        </CharString>
        <CharString name="Nacute">
          132 547 812 -47 callsubr
          88 -39 -81 callgsubr
        </CharString>
        <CharString name="Ncaron">
          132 422 682 rmoveto
          116 140 -46 callgsubr
          141 -47 -81 callgsubr
        </CharString>
        <CharString name="Ntilde">
          132 497 831 8 callgsubr
          -57 -196 -81 callgsubr
        </CharString>
        <CharString name="O">
          99 491 317 45 callgsubr
        </CharString>
        <CharString name="OE">
          355 474 93 rmoveto
          -33 -34 -33 -13 -53 hhcurveto
          -108 -38 106 163 -6 hvcurveto
          155 -6 45 117 117 hhcurveto
          47 38 -17 -28 31 hvcurveto
          127 -490 rmoveto
          240 vlineto
          135 -8 rlineto
          38 73 -38 hlineto
          -135 -11 rlineto
          237 143 vlineto
          71 4 -46 -71 7 hvcurveto
          14 28 1 1 10 hvcurveto
          6 55 1 57 -2 54 rrcurveto
          -384 hlineto
          9 -47 -43 5 -51 hhcurveto
          -175 -131 -136 -197 -197 118 -133 175 56 47 7 7 47 hvcurveto
          398 174 callgsubr
        </CharString>
        <CharString name="Oacute">
          99 491 317 -86 callgsubr
          -22 706 -23 callsubr
        </CharString>
        <CharString name="Ocircumflex">
          99 491 317 -86 callgsubr
          161 716 97 callgsubr
        </CharString>
        <CharString name="Odieresis">
          99 491 317 -86 callgsubr
          136 764 33 callgsubr
        </CharString>
        <CharString name="Ograve">
          99 282 881 133 callsubr
          108 -386 45 callgsubr
        </CharString>
        <CharString name="Ohungarumlaut">
          99 491 317 -86 callgsubr
          -114 720 38 callsubr
        </CharString>
        <CharString name="Omacron">
          99 491 317 -86 callgsubr
          -120 714 193 callsubr
        </CharString>
        <CharString name="Oslash">
          99 478 434 rmoveto
          7 -35 4 -39 2 -43 rrcurveto
          -158 5 -36 -112 -106 hhcurveto
          -56 -37 29 50 -24 hvcurveto
          -22 68 rmoveto
          -7 36 -4 41 -2 45 rrcurveto
          155 -6 34 117 106 hhcurveto
          58 39 -31 -55 24 hvcurveto
          189 146 rmoveto
          -75 hlineto
          -46 -59 rlineto
          38 -49 -61 22 -70 hhcurveto
          -175 -118 -136 -197 -98 23 -83 48 -58 hvcurveto
          -71 -91 rlineto
          75 hlineto
          40 51 rlineto
          -33 45 59 -18 74 hhcurveto
          175 121 133 197 93 -27 80 -47 58 hvcurveto
          endchar
        </CharString>
        <CharString name="Otilde">
          99 240 708 48 callgsubr
          287 -391 45 callgsubr
        </CharString>
        <CharString name="P">
          -17 234 315 rmoveto
          268 56 vlineto
          90 46 -52 -82 -80 -47 -54 -89 hvcurveto
          24 -51 rmoveto
          147 102 78 107 107 -103 79 -147 hvcurveto
          -272 hlineto
          182 callgsubr
          rrcurveto
          20 27 -4 -9 22 hvcurveto
          -475 vlineto
          138 callgsubr
          199 vlineto
          endchar
        </CharString>
        <CharString name="Q">
          99 202 316 rmoveto
          190 -2 49 88 90 hhcurveto
          91 58 -78 -199 3 hvcurveto
          -196 2 -51 -80 -91 hhcurveto
          -91 -55 73 202 -3 hvcurveto
          383 -380 rmoveto
          -12 -29 -38 -9 -27 hhcurveto
          -33 -24 32 48 -12 hvcurveto
          133 34 86 121 166 vvcurveto
          197 -121 136 -175 -175 -118 -136 -197 -178 96 -126 148 -22 vhcurveto
          -77 20 59 -69 70 hhcurveto
          62 53 24 33 43 hvcurveto
          endchar
        </CharString>
        <CharString name="R">
          57 234 344 -78 callsubr
        </CharString>
        <CharString name="Racute">
          57 494 812 -47 callsubr
          -101 -330 -78 callsubr
        </CharString>
        <CharString name="Rcaron">
          57 369 681 rmoveto
          116 140 -46 callgsubr
          -48 -337 -78 callsubr
        </CharString>
        <CharString name="S">
          -82 -70 callgsubr
          endchar
        </CharString>
        <CharString name="Sacute">
          -82 -70 callgsubr
          -190 75 -23 callsubr
        </CharString>
        <CharString name="Scaron">
          -58 -70 callgsubr
          7 204 rmoveto
          -46 callgsubr
          87 hlineto
          endchar
        </CharString>
        <CharString name="T">
          -32 18 635 -31 callgsubr
        </CharString>
        <CharString name="Tcaron">
          -32 325 682 rmoveto
          116 140 -46 callgsubr
          -220 -47 -31 callgsubr
        </CharString>
        <CharString name="Thorn">
          4 234 210 rmoveto
          228 82 vlineto
          82 43 -39 -75 -75 -51 -39 -74 hvcurveto
          -82 281 rmoveto
          44 vlineto
          -93 callgsubr
          100 108 vlineto
          144 92 60 105 105 -92 62 -144 hvcurveto
          endchar
        </CharString>
        <CharString name="U">
          107 415 635 -96 callgsubr
        </CharString>
        <CharString name="Uacute">
          112 516 811 -47 callsubr
          58 -38 -96 callgsubr
        </CharString>
        <CharString name="Ucircumflex">
          112 347 757 19 callgsubr
          200 -43 -96 callgsubr
        </CharString>
        <CharString name="Udieresis">
          112 425 692 -75 callgsubr
          152 -57 -96 callgsubr
        </CharString>
        <CharString name="Ugrave">
          107 389 703 -2 callgsubr
          59 -49 -96 callgsubr
        </CharString>
        <CharString name="Uhungarumlaut">
          107 416 696 114 callgsubr
          133 -61 -96 callgsubr
        </CharString>
        <CharString name="Umacron">
          107 473 747 151 callsubr
          -58 -65 -96 callgsubr
        </CharString>
        <CharString name="Uogonek">
          107 415 635 rmoveto
          -3 68 callsubr
          153 callgsubr
          -377 vlineto
          -110 -53 -41 -76 -76 -53 40 111 vhcurveto
          334 vlineto
          39 25 10 38 -61 callsubr
          -259 hlineto
          -2 -12 -3 -20 2 -13 20 123 callsubr
          -9 rrcurveto
          -373 vlineto
          -153 102 -61 144 -3 vhcurveto
          -47 -30 -20 -38 -40 20 callsubr
          33 18 31 48 24 hvcurveto
          94 25 61 63 118 vvcurveto
          331 vlineto
          17 callsubr
          endchar
        </CharString>
        <CharString name="Uring">
          107 352 801 3 callsubr
          63 -46 -96 callgsubr
        </CharString>
        <CharString name="V">
          52 457 635 rmoveto
          -3 -14 0 -14 -17 vvcurveto
          29 -1 21 -5 24 -9 -166 -426 rcurveline
          -4 hlineto
          -5 22 -5 20 -9 22 -129 315 rcurveline
          -17 40 16 17 61 5 1 16 0 16 -4 13 rrcurveto
          -268 hlineto
          -2 -16 2 -12 4 -17 20 -1 17 -3 17 -7 243 -585 rcurveline
          49 hlineto
          222 541 14 35 20 14 34 6 rlinecurve
          4 16 2 13 2 16 rrcurveto
          endchar
        </CharString>
        <CharString name="W">
          351 777 635 rmoveto
          -3 -14 -2 -14 -1 -17 21 -1 18 -5 19 -7 -125 -402 rcurveline
          -3 hlineto
          -1 24 -6 20 -8 20 -131 366 rcurveline
          -49 hlineto
          -178 -429 rlineto
          -3 hlineto
          -2 22 -4 20 -6 20 -93 290 rcurveline
          -13 40 14 17 64 5 rrcurveto
          16 -2 13 -4 16 vhcurveto
          -273 hlineto
          -3 -16 2 -12 3 -17 18 -1 17 -3 19 -6 192 -586 rcurveline
          49 hlineto
          180 426 160 -426 rlineto
          49 hlineto
          180 539 13 38 17 12 35 7 rlinecurve
          2 17 1 13 -1 15 rrcurveto
          endchar
        </CharString>
        <CharString name="X">
          33 373 336 rmoveto
          152 208 24 33 23 11 31 2 rlinecurve
          6 13 2 16 16 vvcurveto
          -183 hlineto
          -2 -13 1 -18 3 -14 18 -1 19 -4 18 -5 -144 -198 rcurveline
          -117 170 -13 18 4 15 47 6 rlinecurve
          14 -1 17 -3 13 vhcurveto
          -244 hlineto
          -3 -13 2 -17 3 -15 13 -1 13 -2 14 -5 197 -282 rcurveline
          -147 -208 -26 -32 -22 -13 -31 -1 rlinecurve
          -6 -13 -2 -16 1 -17 rrcurveto
          182 hlineto
          2 15 -1 17 -3 14 -18 2 -19 2 -18 5 140 198 rcurveline
          118 -169 12 -19 -4 -12 -46 -7 rlinecurve
          -14 -1 -18 5 -14 vhcurveto
          243 hlineto
          2 15 -2 20 -3 11 -13 1 -14 3 -13 4 rrcurveto
          endchar
        </CharString>
        <CharString name="Y">
          40 449 635 -64 callsubr
        </CharString>
        <CharString name="Yacute">
          40 510 812 -47 callsubr
          98 -39 -64 callsubr
        </CharString>
        <CharString name="Ydieresis">
          40 422 692 -75 callgsubr
          189 -57 -64 callsubr
        </CharString>
        <CharString name="Z">
          -36 195 65 -53 callgsubr
        </CharString>
        <CharString name="Zacute">
          -36 476 812 -47 callsubr
          -122 -609 -53 callgsubr
        </CharString>
        <CharString name="Zcaron">
          -36 351 682 rmoveto
          116 140 -46 callgsubr
          -69 -617 -53 callgsubr
        </CharString>
        <CharString name="Zdotaccent">
          -36 306 684 32 callgsubr
          -111 -619 -53 callgsubr
        </CharString>
        <CharString name="a">
          -100 285 226 -100 callsubr
        </CharString>
        <CharString name="aacute">
          -100 419 635 -47 callsubr
          25 -271 -100 callsubr
        </CharString>
        <CharString name="abreve">
          -100 344 677 -9 callsubr
          -95 -451 -100 callsubr
        </CharString>
        <CharString name="acircumflex">
          -100 250 580 19 callgsubr
          167 -275 -100 callsubr
        </CharString>
        <CharString name="acute">
          -383 9 518 -23 callsubr
        </CharString>
        <CharString name="adieresis">
          -100 331 515 -75 callgsubr
          116 -289 -100 callsubr
        </CharString>
        <CharString name="ae">
          150 513 298 rmoveto
          -92 -7 rlineto
          88 13 44 31 39 hhcurveto
          37 29 -29 -82 1 hvcurveto
          -299 -73 rmoveto
          -7 vlineto
          -38 7 -33 12 -28 vhcurveto
          -33 -21 -27 -21 -37 hhcurveto
          -33 -23 22 38 42 25 30 53 16 hvcurveto
          176 31 rmoveto
          276 hlineto
          6 9 6 12 4 11 rrcurveto
          144 -91 50 -90 -53 -56 -18 -37 -43 vhcurveto
          35 -22 -41 20 -56 hhcurveto
          -76 -63 -24 -48 -55 hvcurveto
          25 -37 rlineto
          14 40 38 8 42 hhcurveto
          53 24 -23 -51 hvcurveto
          -35 vlineto
          -108 -23 rlineto
          -96 -19 -49 -42 -76 vvcurveto
          -72 53 -56 88 70 52 37 52 35 vhcurveto
          -61 45 73 -28 62 hhcurveto
          83 66 36 50 46 hvcurveto
          -17 29 rlineto
          -23 -48 -49 -14 -46 hhcurveto
          -75 -53 46 124 hvcurveto
          endchar
        </CharString>
        <CharString name="agrave">
          -100 287 526 -2 callgsubr
          31 -281 -100 callsubr
        </CharString>
        <CharString name="amacron">
          -100 371 570 151 callsubr
          -86 -297 -100 callsubr
        </CharString>
        <CharString name="ampersand">
          113 385 128 rmoveto
          -34 -38 -33 -14 -42 hhcurveto
          -64 -38 39 59 47 24 42 58 30 hvcurveto
          64 118 rmoveto
          -30 38 -9 21 35 vvcurveto
          44 29 33 37 38 30 -33 -50 -47 -25 -38 -50 -28 vhcurveto
          169 -214 rmoveto
          65 66 36 35 29 14 41 5 rlinecurve
          3 13 1 19 -1 15 rrcurveto
          -192 hlineto
          -2 -14 -2 -19 1 -14 22 -1 19 -3 21 -7 -70 -72 rcurveline
          -113 143 rlineto
          111 38 63 39 77 vvcurveto
          74 -66 64 -126 -121 -80 -71 -88 -52 23 -34 37 -46 vhcurveto
          19 -24 rlineto
          -107 -32 -77 -59 -98 vvcurveto
          -96 75 -61 104 84 53 31 69 63 vhcurveto
          69 -87 rlineto
          183 hlineto
          6 17 1 15 13 vvcurveto
          -51 3 -33 17 -37 47 rrcurveto
          endchar
        </CharString>
        <CharString name="aogonek">
          -100 285 226 rmoveto
          -130 vlineto
          -22 -20 -21 -8 -25 hhcurveto
          -33 -23 22 38 42 25 30 53 16 hvcurveto
          236 -144 rmoveto
          -3 -16 -10 -3 -11 hhcurveto
          -18 -14 13 38 hvcurveto
          200 vlineto
          98 -50 58 -101 -76 -63 -24 -48 -55 vhcurveto
          25 -37 rlineto
          14 40 38 8 42 hhcurveto
          53 24 -23 -51 hvcurveto
          -35 vlineto
          -108 -23 rlineto
          -96 -19 -49 -42 -76 vvcurveto
          -72 53 -56 86 52 37 22 35 29 vhcurveto
          8 -23 19 -16 23 -9 rrcurveto
          -57 -31 -25 -42 -44 20 callsubr
          31 16 29 41 23 hvcurveto
          25 10 19 19 18 22 rrcurveto
          endchar
        </CharString>
        <CharString name="apostrophemod">
          -401 59 554 -42 callgsubr
          endchar
        </CharString>
        <CharString name="approxequal">
          76 95 328 114 callsubr
          45 -212 114 callsubr
          endchar
        </CharString>
        <CharString name="aring">
          -100 250 624 3 callsubr
          35 -278 -100 callsubr
        </CharString>
        <CharString name="asciicircum">
          -74 37 225 rmoveto
          90 hlineto
          133 294 132 -294 rlineto
          90 hlineto
          -184 381 rlineto
          -77 hlineto
          endchar
        </CharString>
        <CharString name="asciitilde">
          76 95 228 rmoveto
          52 11 31 28 52 84 75 -85 106 hhcurveto
          88 67 61 125 10 hvcurveto
          -45 hlineto
          -53 -11 -32 -28 -52 -84 -79 86 -101 hhcurveto
          -89 -66 -61 -125 -10 hvcurveto
          endchar
        </CharString>
        <CharString name="asterisk">
          -119 272 673 rmoveto
          -23 7 -57 1 -20 -9 23 -128 rcurveline
          -113 55 rlineto
          -15 -16 -13 -56 -25 vvcurveto
          128 -12 -91 -88 12 -22 48 -31 22 -6 rlinecurve
          52 112 54 -112 25 6 45 34 11 19 rlinecurve
          -95 88 128 11 rlineto
          24 -13 57 -14 17 vhcurveto
          -114 -57 rlineto
          endchar
        </CharString>
        <CharString name="at">
          418 557 126 rmoveto
          -34 -21 -25 -28 -36 hhcurveto
          -37 -36 29 111 18 hvcurveto
          93 15 44 48 50 hhcurveto
          38 15 -27 -47 -6 hvcurveto
          120 -22 rmoveto
          108 14 -60 63 -107 hhcurveto
          -122 -109 -97 -130 -21 hvcurveto
          -128 -22 67 -78 91 hhcurveto
          54 43 32 39 31 hvcurveto
          -49 9 40 -22 57 hhcurveto
          147 150 130 183 3 hvcurveto
          180 3 -147 126 -218 hhcurveto
          -305 -240 -208 -271 -4 hvcurveto
          -217 -3 166 -103 173 hhcurveto
          87 73 18 31 71 hvcurveto
          1 20 -6 22 -9 14 rrcurveto
          -19 -58 -61 -11 -75 hhcurveto
          -132 -117 79 166 4 hvcurveto
          218 3 169 187 240 hhcurveto
          184 90 -112 -159 -2 hvcurveto
          -132 -3 -78 -78 -60 hhcurveto
          -28 -6 20 38 5 hvcurveto
          endchar
        </CharString>
        <CharString name="atilde">
          -100 370 654 8 callgsubr
          -121 -428 -100 callsubr
        </CharString>
        <CharString name="b">
          -48 190 299 rmoveto
          70 9 43 31 41 hhcurveto
          44 53 -33 -132 -133 -53 -54 -60 -27 -26 6 12 -24 hvcurveto
          652 vmoveto
          -74 -4 -52 -12 -57 -21 -5 -13 -3 -19 -1 -14 25 1 23 1 21 -2 rrcurveto
          -515 vlineto
          -38 -6 -39 -14 -35 vhcurveto
          19 -18 23 8 21 15 18 20 rlinecurve
          -29 38 45 -15 49 hhcurveto
          136 118 89 157 155 -93 81 -102 -57 -48 -31 -53 -24 hvcurveto
          endchar
        </CharString>
        <CharString name="backslash">
          -142 66 737 rmoveto
          206 -813 rlineto
          99 hlineto
          -205 813 rlineto
          endchar
        </CharString>
        <CharString name="bar">
          -282 103 737 rmoveto
          -813 99 813 vlineto
          endchar
        </CharString>
        <CharString name="braceleft">
          -144 85 292 rmoveto
          67 -6 24 -35 -54 -61 -31 -51 -68 vvcurveto
          -93 78 -78 189 9 vhcurveto
          41 vlineto
          -101 5 -46 47 67 66 30 51 67 vvcurveto
          70 -31 39 -78 18 vhcurveto
          78 17 31 39 71 66 -30 52 65 vvcurveto
          68 46 46 101 5 vhcurveto
          41 vlineto
          -189 9 -78 -78 -93 -68 31 -51 -61 vvcurveto
          -54 -24 -34 -67 -7 vhcurveto
          endchar
        </CharString>
        <CharString name="braceright">
          -144 274 454 rmoveto
          61 31 51 68 vvcurveto
          93 -79 78 -189 -9 vhcurveto
          -41 vlineto
          101 -5 47 -46 -68 -65 -30 -52 -66 vvcurveto
          -71 31 -39 78 -17 vhcurveto
          -78 -18 -31 -39 -70 -67 30 -51 -66 vvcurveto
          -67 -47 -47 -101 -5 vhcurveto
          -41 vlineto
          189 -9 79 78 93 68 -31 51 61 vvcurveto
          54 24 35 67 6 vhcurveto
          67 vlineto
          -67 7 -24 34 54 vvcurveto
          endchar
        </CharString>
        <CharString name="bracketleft">
          -215 224 722 rmoveto
          124 61 -248 -919 248 61 -124 hlineto
          endchar
        </CharString>
        <CharString name="bracketright">
          -215 30 -75 rmoveto
          -61 248 919 -248 -61 125 -797 vlineto
          endchar
        </CharString>
        <CharString name="breve">
          -306 237 677 -9 callsubr
          endchar
        </CharString>
        <CharString name="brokenbar">
          -288 103 250 rmoveto
          -326 99 326 vlineto
          161 vmoveto
          326 -99 -326 vlineto
          endchar
        </CharString>
        <CharString name="bullet">
          -260 166 221 rmoveto
          49 40 39 47 48 -40 41 -49 -47 -39 -41 -48 -47 39 -39 47 hvcurveto
          endchar
        </CharString>
        <CharString name="c">
          -143 413 97 rmoveto
          -25 callsubr
          -153 110 -79 104 73 65 33 49 49 hvcurveto
          endchar
        </CharString>
        <CharString name="cacute">
          -143 413 97 rmoveto
          -25 callsubr
          -153 110 -79 104 73 65 33 49 49 hvcurveto
          -190 451 -23 callsubr
        </CharString>
        <CharString name="caron">
          -253 330 645 rmoveto
          -46 callgsubr
          87 hlineto
          endchar
        </CharString>
        <CharString name="ccaron">
          -143 413 97 rmoveto
          -25 callsubr
          -153 110 -79 104 73 65 33 49 49 hvcurveto
          -7 580 rmoveto
          -46 callgsubr
          87 hlineto
          endchar
        </CharString>
        <CharString name="ccedilla">
          -143 272 -11 rmoveto
          62 7 55 30 43 43 -19 28 rcurveline
          -25 callsubr
          -129 78 -76 87 -21 hvcurveto
          -20 -100 rlineto
          -60 callgsubr
          endchar
        </CharString>
        <CharString name="cedilla">
          -308 203 18 rmoveto
          -77 hlineto
          -25 -125 rlineto
          -60 callgsubr
          endchar
        </CharString>
        <CharString name="cent">
          -152 413 97 rmoveto
          -20 -43 -47 -13 -44 hhcurveto
          -64 -53 48 119 127 50 52 65 50 38 -36 -61 4 hvcurveto
          10 -3 12 -1 9 -1 6 35 7 55 1 41 -37 19 -40 11 -44 2 rrcurveto
          76 -59 -80 vlineto
          -115 -19 -88 -91 -138 vvcurveto
          -147 102 -79 100 -6 vhcurveto
          -75 59 80 vlineto
          54 10 48 29 38 38 rrcurveto
          endchar
        </CharString>
        <CharString name="circumflex">
          -253 330 525 97 callgsubr
        </CharString>
        <CharString name="colon">
          -281 228 466 rmoveto
          40 -32 33 -40 -40 -32 -33 -40 -40 32 -32 40 40 32 32 40 vhcurveto
          -393 vmoveto
          40 -32 33 -40 -40 -32 -33 -40 -39 32 -32 40 40 32 32 39 vhcurveto
          endchar
        </CharString>
        <CharString name="comma">
          -383 80 -129 -42 callgsubr
          endchar
        </CharString>
        <CharString name="commaaccent">
          -433 43 -231 140 callsubr
        </CharString>
        <CharString name="commaaccent.alt">
          -434 42 522 140 callgsubr
        </CharString>
        <CharString name="copyright">
          208 520 213 rmoveto
          -20 -30 -26 -10 -34 hhcurveto
          -66 -49 44 98 85 46 61 58 47 14 -27 -50 1 hvcurveto
          12 -2 12 0 11 2 12 35 8 41 3 37 rrcurveto
          13 -27 -44 12 -43 hhcurveto
          -120 -96 -83 -131 -132 95 -73 100 64 49 30 39 34 hvcurveto
          193 139 rmoveto
          213 -150 130 -193 -193 -151 -130 -213 -214 151 -130 193 193 150 130 214 vhcurveto
          -630 hmoveto
          193 128 102 159 159 128 -102 -193 -194 -128 -102 -159 -159 -128 102 194 vhcurveto
          endchar
        </CharString>
        <CharString name="currency">
          -87 252 226 rmoveto
          -35 -29 31 80 80 29 30 35 35 30 -30 -80 -80 -30 -31 -35 hvcurveto
          226 229 rmoveto
          -40 54 -68 -55 rlineto
          28 -31 -42 16 -45 hhcurveto
          -44 -42 -16 -28 -30 hvcurveto
          -69 55 -40 -54 73 -52 rlineto
          -9 -20 -5 -22 -25 vvcurveto
          -25 5 -22 8 -19 vhcurveto
          -72 -53 40 -53 68 55 rlineto
          -28 31 42 -16 44 hhcurveto
          45 42 16 28 31 hvcurveto
          68 -55 40 53 -72 52 rlineto
          9 20 5 22 25 vvcurveto
          25 -5 23 -9 19 vhcurveto
          endchar
        </CharString>
        <CharString name="d">
          -24 81 callsubr
          190 -330 rmoveto
          191 callsubr
          603 vlineto
          122 callgsubr
          -165 42 callsubr
          endchar
        </CharString>
        <CharString name="dagger">
          -43 437 578 rmoveto
          -48 -7 -24 -13 -57 hhcurveto
          -17 hlineto
          4 93 1 40 23 9 39 6 rlinecurve
          4 13 0 19 14 vvcurveto
          -259 hlineto
          -1 -14 1 -19 4 -13 39 -6 23 -9 1 -40 4 -93 rcurveline
          -20 hlineto
          -57 -22 13 48 -6 hvcurveto
          -44 -2 -9 -49 0 -73 9 -50 rlinecurve
          44 -2 rlineto
          48 6 22 14 57 hhcurveto
          22 hlineto
          30 -694 18 -7 17 0 18 7 rlinecurve
          30 694 rlineto
          19 hlineto
          57 24 -14 -48 7 hvcurveto
          44 2 9 50 0 77 -9 45 rlinecurve
          endchar
        </CharString>
        <CharString name="daggerdbl">
          -35 442 75 rmoveto
          -48 -7 -24 -14 -57 hhcurveto
          -39 hlineto
          22 198 rlineto
          36 vlineto
          -22 199 rlineto
          39 hlineto
          57 24 -13 -48 7 hvcurveto
          43 2 5 55 0 65 -5 52 rlinecurve
          -43 2 rlineto
          -48 -7 -24 -14 -57 hhcurveto
          -36 hlineto
          19 94 8 40 16 9 38 6 rlinecurve
          4 13 1 19 -1 13 rrcurveto
          -244 hlineto
          -1 -13 1 -19 4 -13 39 -6 15 -9 9 -40 19 -94 rcurveline
          -42 207 callsubr
          -2 rlineto
          48 7 22 13 57 hhcurveto
          44 hlineto
          -22 -199 rlineto
          -36 vlineto
          22 -198 rlineto
          -44 207 callsubr
          -3 rlineto
          49 7 22 13 57 hhcurveto
          41 hlineto
          -18 -93 -9 -40 -15 -9 -39 -6 rlinecurve
          -4 -13 -1 -19 1 -14 rrcurveto
          244 hlineto
          1 14 -1 19 -4 13 -38 6 -16 8 -8 41 -19 93 rcurveline
          36 hlineto
          57 24 -13 -49 7 hvcurveto
          43 3 5 51 0 65 -5 56 rlinecurve
          endchar
        </CharString>
        <CharString name="danda">
          -244 228 557 rmoveto
          -108 68 rlineto
          -598 vlineto
          108 -68 rlineto
          endchar
        </CharString>
        <CharString name="dcaron">
          -24 81 callsubr
          123 319 rmoveto
          122 callgsubr
          -165 42 callsubr
          -12 25 rlineto
          191 callsubr
          62 437 140 callgsubr
        </CharString>
        <CharString name="dcroat">
          -23 81 callsubr
          207 174 rmoveto
          2 17 -3 15 -7 14 -76 -15 rcurveline
          114 vlineto
          122 callgsubr
          -55 vlineto
          -104 -21 -2 -17 2 -15 9 -14 rlinecurve
          95 19 rlineto
          -62 42 callsubr
          -12 25 rlineto
          191 callsubr
          441 vlineto
          endchar
        </CharString>
        <CharString name="degree">
          -265 164 404 rmoveto
          72 62 45 87 87 -62 47 -72 -73 -61 -47 -87 -87 61 -45 73 hvcurveto
          214 vmoveto
          28 25 -22 -59 -59 -25 -23 -28 -28 -24 23 59 59 24 22 28 hvcurveto
          endchar
        </CharString>
        <CharString name="dieresis">
          -300 283 573 33 callgsubr
        </CharString>
        <CharString name="divide">
          56 397 520 rmoveto
          39 -33 33 -40 -39 -32 -33 -39 -39 32 -32 39 40 33 32 39 vhcurveto
          -378 vmoveto
          41 -33 33 -40 -39 -32 -33 -41 -39 32 -32 39 40 33 32 39 vhcurveto
          -350 231 rmoveto
          -82 555 82 vlineto
          endchar
        </CharString>
        <CharString name="dollar">
          -73 290 242 rmoveto
          42 -26 31 -31 -50 vvcurveto
          -43 -28 -30 -45 -10 vhcurveto
          -48 358 rmoveto
          -40 24 -29 29 45 vvcurveto
          42 28 27 41 10 vhcurveto
          48 2 rmoveto
          52 -5 40 -31 12 -85 rrcurveto
          -2 13 15 -1 13 hhcurveto
          7 45 6 58 50 vvcurveto
          -48 16 -49 12 -61 2 rrcurveto
          75 -48 -77 vlineto
          -102 -11 -74 -59 -99 vvcurveto
          -121 94 -45 82 -43 vhcurveto
          -218 vlineto
          -72 4 -50 38 2 109 rrcurveto
          3 -19 -14 1 -18 hhcurveto
          -5 -44 -6 -78 3 -60 63 -20 60 -14 56 -1 rrcurveto
          -75 48 77 vlineto
          103 14 84 66 106 vvcurveto
          123 -101 43 -86 42 vhcurveto
          endchar
        </CharString>
        <CharString name="dotaccent">
          -430 81 507 32 callgsubr
          endchar
        </CharString>
        <CharString name="dotlessi">
          -277 219 467 6 callgsubr
        </CharString>
        <CharString name="dottedcircle">
          67 139 474 rmoveto
          -26 18 -19 26 26 18 19 26 25 -18 19 -26 -26 -18 -19 -25 vhcurveto
          -82 -110 rmoveto
          -25 20 -19 26 24 20 19 25 25 -20 19 -24 -26 -20 -19 -25 vhcurveto
          -13 -126 rmoveto
          -25 19 -18 25 26 18 18 284 callgsubr
          52 -116 rmoveto
          -26 18 -18 26 25 19 18 26 25 -19 19 -25 -26 -18 -19 -25 vhcurveto
          101 -75 rmoveto
          -26 19 -20 26 25 19 20 26 24 -19 20 -25 -26 -19 -20 -24 vhcurveto
          127 -16 rmoveto
          -26 18 -18 26 26 19 18 26 26 -19 18 -26 -26 -18 -18 -26 vhcurveto
          121 53 rmoveto
          -26 19 -18 25 25 20 18 26 25 -20 19 -25 -25 -19 -19 -25 vhcurveto
          73 98 rmoveto
          -25 19 -19 26 24 19 19 25 26 -19 19 -24 -26 -19 -19 -26 vhcurveto
          10 134 rmoveto
          -26 18 -18 26 25 19 18 26 26 -19 18 -25 -26 -18 -18 -26 vhcurveto
          -50 118 rmoveto
          -25 19 -19 25 26 18 19 284 callgsubr
          -95 68 rmoveto
          -24 19 -20 26 25 18 20 24 26 -18 19 -25 -26 -19 -19 -26 vhcurveto
          -126 15 rmoveto
          -26 18 -18 26 26 18 18 26 26 -18 18 -26 -26 -18 -18 -26 vhcurveto
          endchar
        </CharString>
        <CharString name="doubledanda">
          -1 228 557 255 callgsubr
          269 598 255 callgsubr
          endchar
        </CharString>
        <CharString name="dvA">
          176 301 28 rmoveto
          108 61 78 88 27 -6 20 -9 19 hvcurveto
          -12 24 27 -9 25 hhcurveto
          20 20 4 11 17 hvcurveto
          -6 -236 108 -61 rlineto
          588 154 174 callsubr
          -345 hlineto
          3 -5 53 -76 4 -6 rrcurveto
          83 -159 hlineto
          -25 -14 -51 -25 -44 hhcurveto
          -20 -28 7 13 -19 hvcurveto
          23 26 14 28 33 vvcurveto
          85 -88 112 -87 -59 -56 -39 -48 -39 vhcurveto
          78 -78 rlineto
          44 40 41 21 32 hhcurveto
          29 25 -23 -30 -55 -69 -40 -94 -32 hvcurveto
          60 -100 33 13 34 15 28 19 rlinecurve
          21 -20 10 -24 -28 vvcurveto
          -57 -42 -50 -74 -87 -57 115 100 -45 vhcurveto
          -54 -30 rlineto
          -105 41 88 -180 149 hhcurveto
          endchar
        </CharString>
        <CharString name="dvAA">
          423 1007 -4 callsubr
          -599 -80 callsubr
          141 -521 -55 callsubr
          146 vlineto
          endchar
        </CharString>
        <CharString name="dvAI">
          -22 190 752 rmoveto
          16 24 21 8 20 hhcurveto
          61 49 -72 -72 39 hvcurveto
          -468 192 callgsubr
          21 -17 vhcurveto
          25 -18 185 -145 16 -12 rrcurveto
          39 -31 19 -19 -19 vvcurveto
          -17 -13 -18 -20 -19 vhcurveto
          87 -68 rlineto
          24 89 callsubr
          189 -188 vlineto
          -49 -22 -23 -51 -30 vhcurveto
          80 247 callsubr
          -53 87 rlineto
          -110 199 callsubr
        </CharString>
        <CharString name="dvAU">
          456 699 837 rmoveto
          5 13 13 2 11 hhcurveto
          89 54 -156 -48 18 hvcurveto
          79 -53 -87 74 55 callsubr
          19 hhcurveto
          49 46 -31 -37 32 hvcurveto
          -415 -80 callsubr
          174 -521 -55 callsubr
          154 vlineto
          -46 87 rlineto
          -125 hlineto
          115 -25 -66 190 -128 hhcurveto
          -20 -27 -4 -10 -23 hvcurveto
          endchar
        </CharString>
        <CharString name="dvAbbreviationsign">
          -84 249 395 rmoveto
          -90 -2 -59 -67 -75 vvcurveto
          -88 73 -64 87 vhcurveto
          92 4 57 67 75 vvcurveto
          84 -67 66 -93 vhcurveto
          -25 -234 rmoveto
          -34 -20 24 34 69 66 46 50 33 20 -23 -32 -62 -57 -56 -58 hvcurveto
          endchar
        </CharString>
        <CharString name="dvAnusvara">
          -593 -210 790 129 callgsubr
          endchar
        </CharString>
        <CharString name="dvAnusvara.amI">
          -593 -34 790 129 callgsubr
          endchar
        </CharString>
        <CharString name="dvAvagraha">
          15 290 410 rmoveto
          -46 42 -12 23 21 vvcurveto
          29 20 18 31 vhcurveto
          226 2 -52 87 rlineto
          -223 hlineto
          -74 -46 -40 -52 -33 12 -45 59 -55 hvcurveto
          147 -138 rlineto
          47 -42 17 -39 -33 vvcurveto
          -44 -25 -56 -91 -83 -66 64 56 -37 vhcurveto
          -49 -47 rlineto
          -64 39 106 -106 129 hhcurveto
          116 66 90 88 63 -48 64 -47 44 hvcurveto
          endchar
        </CharString>
        <CharString name="dvB">
          -240 433 28 callgsubr
          -453 -101 callgsubr
          417 -259 rmoveto
          -18 -24 -23 -29 -19 -14 -146 157 -87 callsubr
          65 68 40 85 60 hvcurveto
          -226 -46 164 callsubr
        </CharString>
        <CharString name="dvBA">
          -4 510 179 callsubr
          -689 -101 callgsubr
          421 hlineto
          60 callgsubr
          -280 213 rmoveto
          72 callgsubr
          143 -154 rlineto
          -12 -22 -21 -6 -19 hhcurveto
          endchar
        </CharString>
        <CharString name="dvBH">
          -260 353 -4 callsubr
          -123 -101 callgsubr
          122 hlineto
          -321 -210 rmoveto
          86 callgsubr
          262 vlineto
          -67 100 rlineto
          -196 -8 callgsubr
          -102 103 callsubr
          78 112 callsubr
          vlineto
          endchar
        </CharString>
        <CharString name="dvBHA">
          -17 596 18 callgsubr
          -101 103 callsubr
          76 112 callsubr
          vlineto
          -54 -17 -13 -26 -54 102 -98 44 33 callsubr
        </CharString>
        <CharString name="dvBH_LA">
          481 1094 -4 callsubr
          -864 -101 callgsubr
          597 35 callgsubr
          -76 -59 -45 -66 -21 hvcurveto
          -171 -8 callgsubr
          -102 103 callsubr
          78 280 callgsubr
          86 callgsubr
          166 vlineto
          22 -110 105 -101 78 -67 54 38 rcurveline
          -99 callsubr
        </CharString>
        <CharString name="dvBH_NA">
          0 614 -4 callsubr
          -382 103 callsubr
          115 -200 -200 104 hlineto
          43 -10 29 -30 28 vhcurveto
          -3 2 -46 41 -3 3 34 callgsubr
          198 -15 vlineto
          -222 -187 rlineto
          -21 -18 -9 -13 -14 vvcurveto
          -52 78 -27 54 27 19 10 16 6 -1 4 -6 9 194 callgsubr
          119 117 rcurveline
          -111 vlineto
          108 37 callgsubr
        </CharString>
        <CharString name="dvBH_R">
          -259 354 -4 callsubr
          -122 103 callsubr
          122 hlineto
          7 -306 rmoveto
          -270 -231 79 -55 272 276 -105 116 rlineto
          -190 104 hlineto
          42 -9 29 -29 27 vhcurveto
          -3 3 -47 41 -4 4 34 callgsubr
          212 vlineto
          endchar
        </CharString>
        <CharString name="dvBH_RA">
          0 150 8 rmoveto
          79 -55 177 177 rlineto
          -109 vlineto
          108 -64 257 callgsubr
          -59 87 rlineto
          82 callgsubr
          rrcurveto
          137 callsubr
          -94 103 callsubr
          70 144 callsubr
          -11 vlineto
          -42 -1 -17 -13 -25 vvcurveto
          -54 101 -98 230 callgsubr
          198 -18 vlineto
          endchar
        </CharString>
        <CharString name="dvBH_R_YA">
          336 743 311 6 callsubr
          -717 103 callsubr
          182 -49 callsubr
          -10 -5 -5 -5 -3 -7 rrcurveto
          -163 104 hlineto
          42 -9 29 -29 27 vhcurveto
          -3 3 -47 41 -4 4 34 callgsubr
          195 vlineto
          9 -12 -262 -224 79 -55 227 231 rlineto
          -47 50 63 -37 51 hhcurveto
          48 -102 callsubr
        </CharString>
        <CharString name="dvBH_VA">
          331 945 -4 callsubr
          -715 -101 callgsubr
          446 -89 callsubr
          -72 -75 -54 -93 -11 hvcurveto
          -169 -8 callgsubr
          -102 103 callsubr
          78 280 callgsubr
          86 callgsubr
          184 vlineto
          -86 37 91 -67 75 hhcurveto
          54 53 34 32 31 hvcurveto
          -74 callgsubr
        </CharString>
        <CharString name="dvBH_YA">
          319 726 311 6 callsubr
          -705 -101 callgsubr
          169 -49 callsubr
          -14 -6 -5 -8 -1 -13 rrcurveto
          -135 -8 callgsubr
          -102 103 callsubr
          78 280 callgsubr
          86 callgsubr
          177 vlineto
          -68 51 90 -67 69 hhcurveto
          48 -102 callsubr
        </CharString>
        <CharString name="dvB_BA">
          345 641 188 rmoveto
          -12 -22 -21 -6 -19 hhcurveto
          72 callgsubr
          -206 -154 -66 callgsubr
          809 290 rmoveto
          -1038 -101 callgsubr
          770 43 callgsubr
          -77 -91 -64 -107 -8 1 -8 1 -8 hvcurveto
          -17 -23 -21 -26 -18 -13 -146 157 -87 callsubr
          57 60 31 66 55 hvcurveto
          -56 42 69 -41 66 111 callsubr
        </CharString>
        <CharString name="dvB_BHA">
          325 -3 callgsubr
          789 290 rmoveto
          -367 103 callsubr
          101 -210 -176 114 hlineto
          44 -11 29 -31 29 vhcurveto
          -50 44 -32 27 -26 9 -32 1 rlinecurve
          0 -453 vlineto
          60 -87 rlineto
          418 112 callsubr
          vlineto
          -54 -17 -13 -26 -8 2 -8 4 -9 hvcurveto
          -16 -20 -18 -21 -15 -11 -146 157 -87 callsubr
          60 62 34 71 56 hvcurveto
          -30 30 34 -22 21 hhcurveto
          33 callsubr
        </CharString>
        <CharString name="dvB_BH_RA">
          352 -3 callgsubr
          814 290 rmoveto
          82 callgsubr
          -33 29 -27 7 -34 1 rrcurveto
          0 -453 vlineto
          60 -87 rlineto
          423 144 callsubr
          -11 vlineto
          -42 -1 -17 -13 -25 vvcurveto
          -8 2 -9 4 -10 vhcurveto
          -17 -22 -20 -24 -17 -13 -146 157 -87 callsubr
          62 64 36 76 58 hvcurveto
          -28 29 33 -22 21 118 callgsubr
        </CharString>
        <CharString name="dvB_DA">
          288 -3 callgsubr
          621 7 27 callsubr
          -980 -101 callgsubr
          683 -97 -89 hlineto
          -125 -56 -72 -91 hvcurveto
          -4 vlineto
          -17 -23 -21 -26 -18 -13 -146 157 -87 callsubr
          53 56 27 57 51 hvcurveto
          16 -28 20 -26 23 -22 rrcurveto
          -47 49 62 -30 61 hhcurveto
          29 30 8 14 25 hvcurveto
          -89 callgsubr
          endchar
        </CharString>
        <CharString name="dvB_DHA">
          -593 endchar
        </CharString>
        <CharString name="dvB_DH_VA">
          701 -3 callgsubr
          1165 290 rmoveto
          -685 -101 callgsubr
          416 -89 callsubr
          -77 -82 -62 -107 -12 1 -12 3 -12 hvcurveto
          -63 -47 -59 -51 -73 -77 callgsubr
          92 callgsubr
          92 hlineto
          -60 87 rlineto
          -660 -101 callgsubr
          429 hlineto
          -11 -12 -12 -24 -23 213 callsubr
          34 -22 vhcurveto
          -39 -18 -28 -36 -42 -4 0 -4 -3 vvcurveto
          -17 -23 -20 -24 -17 -13 -146 157 -87 callsubr
          55 57 29 60 53 hvcurveto
          -62 44 76 -43 71 hhcurveto
          45 72 23 76 70 hvcurveto
          -55 45 65 -37 56 hhcurveto
          54 53 34 32 31 hvcurveto
          -74 callgsubr
        </CharString>
        <CharString name="dvB_JA">
          505 -3 callgsubr
          965 290 rmoveto
          -1194 -101 callgsubr
          926 -122 47 callsubr
          -82 -53 119 120 -37 vhcurveto
          -44 -66 rlineto
          0 vlineto
          -22 -31 -48 -70 -20 -17 -145 156 -87 callsubr
          88 61 71 83 52 hvcurveto
          -103 49 67 -78 93 -51 callsubr
        </CharString>
        <CharString name="dvB_JHA">
          525 932 342 rmoveto
          65 callgsubr
          -640 -357 -66 callgsubr
          989 290 rmoveto
          -1218 -101 callgsubr
          707 -73 -135 hlineto
          -78 -50 -36 -70 -10 1 -10 3 -11 hvcurveto
          -17 -26 -32 -57 -42 -33 -146 157 -87 callsubr
          85 64 71 85 64 hvcurveto
          -41 35 46 -30 37 29 callsubr
        </CharString>
        <CharString name="dvB_J_YA">
          859 1266 160 callsubr
          11 7 23 14 hvcurveto
          83 53 31 -67 callgsubr
          -41 32 vhcurveto
          179 hlineto
          -974 -357 -66 callgsubr
          1323 290 rmoveto
          -1552 -101 callgsubr
          1016 hlineto
          31 -45 callsubr
          -24 -17 -19 -93 -49 vhcurveto
          25 -32 -46 21 -62 hhcurveto
          -186 236 callgsubr
          -82 -53 117 119 -37 vhcurveto
          -36 -55 rlineto
          0 vlineto
          -14 -20 -58 -86 -23 -20 -145 156 -87 callsubr
          88 61 71 80 50 hvcurveto
          -101 50 67 -77 91 148 callgsubr
          107 hlineto
          18 17 -3 -4 14 hvcurveto
          -83 11 141 -138 99 hhcurveto
          49 -102 callsubr
        </CharString>
        <CharString name="dvB_JxA">
          509 461 -40 rmoveto
          80 -77 78 77 -80 79 rlineto
          -247 149 -66 callgsubr
          965 290 rmoveto
          -1194 -101 callgsubr
          926 -122 47 callsubr
          -82 -53 119 120 -37 vhcurveto
          -44 -66 rlineto
          0 vlineto
          -22 -31 -48 -70 -20 -17 -145 156 -87 callsubr
          88 61 71 83 52 hvcurveto
          -103 49 67 -78 93 -51 callsubr
        </CharString>
        <CharString name="dvB_LA">
          495 -3 callgsubr
          959 290 rmoveto
          -1188 -101 callgsubr
          921 35 callgsubr
          -96 -69 -73 -95 hvcurveto
          -17 -22 -20 -25 -17 -12 -146 157 -87 callsubr
          52 53 25 54 50 hvcurveto
          42 -84 79 -75 62 -54 54 38 rcurveline
          -99 callsubr
        </CharString>
        <CharString name="dvB_L_YA">
          854 1261 311 -107 callsubr
          -969 -357 -66 callgsubr
          1318 290 rmoveto
          -1547 -101 callgsubr
          1011 hlineto
          -65 callsubr
          -23 -18 -20 -89 -47 vhcurveto
          35 -34 -51 30 -48 hhcurveto
          -49 -41 -76 callgsubr
          -96 -68 -72 -95 -1 hvcurveto
          -17 -22 -21 -25 -17 -13 -146 157 -87 callsubr
          52 54 26 53 50 hvcurveto
          41 -84 80 -75 62 -54 54 38 rcurveline
          -71 callgsubr
          63 25 59 70 14 13 -3 -5 12 vhcurveto
          -2 -4 0 -4 -5 -50 callgsubr
        </CharString>
        <CharString name="dvB_NA">
          -4 401 29 rmoveto
          109 -72 127 callsubr
          -689 -101 callgsubr
          421 hlineto
          2 -253 -18 -25 -30 -35 -18 -13 rlinecurve
          -146 157 rlineto
          9 17 18 6 18 hhcurveto
          40 26 -20 -22 22 hvcurveto
          36 48 rlineto
          35 -31 -52 44 -74 hhcurveto
          -78 -91 -64 -107 -93 89 -100 95 -9 hvcurveto
          -83 -70 rlineto
          -21 -17 -9 -14 -14 vvcurveto
          -51 78 -28 54 27 19 11 15 6 -1 5 -6 8 194 callgsubr
          159 158 rcurveline
          -175 6 164 callsubr
        </CharString>
        <CharString name="dvB_R">
          -247 130 11 rmoveto
          79 -56 41 39 207 218 2 3 rlinecurve
          -65 69 -13 -18 -31 -33 -15 -13 rlinecurve
          -144 156 11 callsubr
          -77 -92 -64 -107 -98 99 -108 102 hvcurveto
          184 446 286 callgsubr
          -446 -101 callgsubr
          249 -375 rmoveto
          -15 callgsubr
          191 callgsubr
          endchar
        </CharString>
        <CharString name="dvB_RA">
          -2 670 28 callgsubr
          -683 -101 callgsubr
          418 -255 hlineto
          131 callgsubr
          -78 -91 -63 -107 -98 99 -109 102 hvcurveto
          168 callgsubr
          vlineto
          -276 -371 rmoveto
          -57 -47 46 55 28 9 24 14 19 hvcurveto
          191 callgsubr
          endchar
        </CharString>
        <CharString name="dvB_SA">
          415 823 352 rmoveto
          -27 -24 -41 -18 -48 hhcurveto
          -34 -36 16 24 -27 hvcurveto
          198 210 vlineto
          -531 -357 -66 callgsubr
          879 290 rmoveto
          -1108 -101 callgsubr
          526 271 callsubr
          -14 -17 14 13 -15 vhcurveto
          -38 -52 -18 -25 -26 -34 -17 -13 rlinecurve
          -146 157 rlineto
          -85 callgsubr
          60 60 38 74 56 hvcurveto
          56 -77 60 -75 79 -95 73 175 callgsubr
          25 28 9 14 19 hvcurveto
          -5 -212 106 241 callsubr
        </CharString>
        <CharString name="dvB_SHA">
          438 324 -4 callsubr
          -404 -101 callgsubr
          404 hlineto
          -92 -357 -66 callgsubr
          436 56 75 callsubr
          -34 -28 21 17 -20 vhcurveto
          -42 -57 rlineto
          0 vlineto
          -16 -22 -21 -24 -15 -11 -146 157 -87 callsubr
          60 65 38 72 57 hvcurveto
          56 -71 72 -87 76 -86 -39 callsubr
        </CharString>
        <CharString name="dvB_TA">
          316 -3 callgsubr
          781 290 rmoveto
          -1010 -101 callgsubr
          746 -127 -165 hlineto
          -103 -56 -48 -85 -6 hvcurveto
          -17 -24 -23 -28 -19 -14 -146 157 -87 callsubr
          51 53 25 52 50 hvcurveto
          26 -72 47 -76 51 -63 55 37 rcurveline
          -63 callgsubr
        </CharString>
        <CharString name="dvB_VA">
          341 -3 callgsubr
          805 290 rmoveto
          -1034 -101 callgsubr
          765 -89 callsubr
          -77 -82 -62 -107 -10 1 -10 2 -10 hvcurveto
          -18 -24 -22 -27 -18 -13 -146 157 -87 callsubr
          58 60 31 67 54 hvcurveto
          -63 45 72 -44 60 hhcurveto
          54 53 34 32 31 hvcurveto
          -74 callgsubr
        </CharString>
        <CharString name="dvB_YA">
          350 757 311 -107 callsubr
          -465 -357 -66 callgsubr
          814 290 rmoveto
          -1043 -101 callgsubr
          507 162 callsubr
          -18 vhcurveto
          -17 -23 -22 -27 -18 -13 -146 157 -87 callsubr
          62 65 37 77 58 hvcurveto
          -56 53 74 -49 59 hhcurveto
          48 -102 callsubr
        </CharString>
        <CharString name="dvC">
          217 callgsubr
          508 -243 rmoveto
          -84 -49 -65 -49 -69 -28 callgsubr
          -104 124 -104 90 69 59 30 112 85 vhcurveto
          endchar
        </CharString>
        <CharString name="dvCA">
          158 callsubr
          -241 hlineto
          -81 -47 -66 -54 -72 -28 callgsubr
          -104 124 -104 90 274 callgsubr
          vhcurveto
          endchar
        </CharString>
        <CharString name="dvCH">
          115 659 -12 rmoveto
          219 callsubr
          96 -71 106 -93 228 callgsubr
          vhcurveto
          -30 callgsubr
          -115 128 -94 128 82 77 36 57 57 vhcurveto
          12 -10 89 -68 11 -8 rrcurveto
          129 557 286 callgsubr
          -808 -101 callgsubr
          577 -207 rmoveto
          -63 -30 -62 -20 -22 vhcurveto
          161 callgsubr
          vhcurveto
          endchar
        </CharString>
        <CharString name="dvCHA">
          113 300 293 rmoveto
          15 callsubr
          81 243 174 callsubr
          -806 -101 callgsubr
          458 46 callgsubr
          -45 -47 -64 -27 -70 hhcurveto
          -62 -50 24 48 51 55 12 36 30 28 -5 -4 19 hvcurveto
          106 103 rmoveto
          52 27 49 43 33 10 -35 -27 -63 -31 -62 -19 -22 vhcurveto
          -35 183 callgsubr
          endchar
        </CharString>
        <CharString name="dvCH_RA">
          113 508 191 -5 callsubr
          -806 -101 callgsubr
          458 -37 callsubr
          -23 -19 -14 -26 -34 vvcurveto
          -90 79 -78 95 -29 vhcurveto
          -111 -107 85 -68 143 165 rlineto
          1 hlineto
          250 callsubr
          38 -130 142 44 16 41 26 34 34 rlinecurve
          27 callgsubr
        </CharString>
        <CharString name="dvCH_R_YA">
          645 505 191 rmoveto
          161 callgsubr
          -63 -30 -62 -20 -22 vhcurveto
          746 441 rmoveto
          -1333 -101 callgsubr
          1067 132 callsubr
          -168 hlineto
          15 -22 -25 9 -27 hhcurveto
          228 callgsubr
          hvcurveto
          -30 callgsubr
          -88 74 -75 92 -31 vhcurveto
          -115 -112 84 -68 144 166 rlineto
          0 vlineto
          134 -166 57 38 -128 140 49 16 45 28 36 36 rlinecurve
          12 -10 89 -68 11 -8 50 59 rcurveline
          -12 7 -94 64 -13 10 rrcurveto
          30 46 18 53 56 vvcurveto
          26 -5 28 -10 25 vhcurveto
          132 100 callgsubr
        </CharString>
        <CharString name="dvCH_YA">
          635 507 191 rmoveto
          161 callgsubr
          -63 -30 -62 -20 -22 vhcurveto
          741 441 rmoveto
          -1328 -101 callgsubr
          1062 132 callsubr
          -163 hlineto
          15 -22 -25 9 -27 hhcurveto
          228 callgsubr
          hvcurveto
          -30 callgsubr
          -115 128 -94 128 82 77 36 57 57 vhcurveto
          12 -10 89 -68 11 -8 50 59 rcurveline
          -12 7 -94 64 -13 10 rrcurveto
          30 46 18 53 56 vvcurveto
          26 -5 28 -10 25 vhcurveto
          127 100 callgsubr
        </CharString>
        <CharString name="dvC_CA">
          430 399 353 rmoveto
          1 -1 29 1 rlineto
          6 0 hlineto
          79 3 87 callgsubr
          -4 vlineto
          -71 -47 -59 -40 -63 147 callgsubr
          703 279 rmoveto
          -1117 262 callgsubr
          857 163 callsubr
          -729 hlineto
          60 -89 91 callsubr
          -104 124 -104 90 59 51 22 75 67 vhcurveto
          -56 44 70 -41 56 hhcurveto
          274 callgsubr
          hvcurveto
          -5 -126 -69 callgsubr
          153 vlineto
          endchar
        </CharString>
        <CharString name="dvC_CHA">
          510 905 191 -5 callsubr
          -1197 262 callgsubr
          855 -37 callsubr
          -15 -12 -11 -16 -6 -19 rrcurveto
          -54 -54 -77 -39 -63 110 callgsubr
          17 51 70 vhcurveto
          -72 43 94 -51 93 hhcurveto
          83 77 36 57 57 hvcurveto
          27 callgsubr
        </CharString>
        <CharString name="dvC_CH_VA">
          510 903 191 rmoveto
          -35 183 callgsubr
          52 27 49 43 33 10 -35 -27 -63 -31 -62 -19 -22 vhcurveto
          -71 -275 rmoveto
          -73 -45 -59 -46 -54 hhcurveto
          -53 -32 34 45 62 43 44 73 hvcurveto
          -1 6 8 0 7 hhcurveto
          36 36 8 13 32 hvcurveto
          108 543 rmoveto
          259 -33 callgsubr
          -1211 262 callgsubr
          853 46 callgsubr
          -44 -47 -63 -28 -71 -42 callsubr
          -43 33 -40 34 -29 hvcurveto
          -16 -13 -11 -17 -6 -20 rrcurveto
          -53 -53 -76 -37 -62 110 callgsubr
          16 51 68 vhcurveto
          17 -28 25 -24 30 -19 rrcurveto
          -38 -21 -32 -36 -56 vvcurveto
          -109 119 -98 95 51 43 27 33 29 vhcurveto
          -6 -111 104 -65 rlineto
          468 vlineto
          10 10 12 -10 89 -68 10 -8 rlinecurve
          219 callsubr
          70 -37 76 -58 35 vhcurveto
          endchar
        </CharString>
        <CharString name="dvC_MA">
          422 828 -2 callsubr
          242 callsubr
          -1109 262 callgsubr
          553 262 callsubr
          -40 -25 -12 -31 -7 2 -8 3 -8 hvcurveto
          -63 -46 -56 -36 -59 -28 callgsubr
          -104 124 -104 90 62 54 24 86 72 vhcurveto
          -25 28 31 -18 19 hhcurveto
          87 callsubr
          -65 callgsubr
        </CharString>
        <CharString name="dvC_NA">
          158 callsubr
          -253 hlineto
          -67 -54 -60 -56 -71 -28 callgsubr
          -90 103 -103 80 -1 vhcurveto
          -82 -69 rlineto
          -22 -18 -9 -14 -14 202 callsubr
          16 5 -2 5 -5 9 vhcurveto
          -4 7 -17 21 -17 23 162 163 rcurveline
          endchar
        </CharString>
        <CharString name="dvC_R">
          217 callgsubr
          216 -556 rmoveto
          79 -55 280 285 -68 71 rlineto
          -67 -53 -60 -54 -69 -28 callgsubr
          -90 108 -111 82 6 vhcurveto
          endchar
        </CharString>
        <CharString name="dvC_RA">
          89 756 545 rmoveto
          -54 87 rlineto
          -752 262 callgsubr
          492 -259 hlineto
          -65 -52 -60 -52 -68 129 callsubr
          50 42 70 11 hvcurveto
          95 hlineto
          -60 88 268 callsubr
          -15 -17 -30 -27 vvcurveto
          -90 108 -111 82 6 vhcurveto
          -121 -100 79 -55 215 218 -6 -132 57 callsubr
          vlineto
          endchar
        </CharString>
        <CharString name="dvC_YA">
          431 837 311 6 callsubr
          -1117 262 callgsubr
          587 43 callsubr
          -15 5 -17 9 -18 vhcurveto
          -71 -47 -60 -41 -63 -28 callgsubr
          -104 124 -104 90 64 56 26 94 76 vhcurveto
          -52 52 69 -44 56 hhcurveto
          48 -102 callsubr
        </CharString>
        <CharString name="dvCandrabindu">
          -593 -237 937 204 callgsubr
          -200 -160 rmoveto
          -95 62 76 -68 95 hhcurveto
          96 53 266 callsubr
          -68 hhcurveto
          -66 -44 57 54 -37 hvcurveto
          endchar
        </CharString>
        <CharString name="dvD">
          -55 261 -168 -74 callsubr
          226 432 27 callsubr
          -631 218 callgsubr
          341 119 callgsubr
          -47 49 62 -30 61 hhcurveto
          29 30 8 14 25 hvcurveto
          -89 callgsubr
          endchar
        </CharString>
        <CharString name="dvDA">
          -55 48 callsubr
          -47 49 62 -30 61 hhcurveto
          29 30 8 14 25 hvcurveto
          -89 callgsubr
          endchar
        </CharString>
        <CharString name="dvDA_mvR">
          -106 407 123 rmoveto
          -52 -51 -74 -31 -55 hhcurveto
          -56 -30 34 38 55 65 15 56 29 25 -4 -4 14 hvcurveto
          -31 88 rlineto
          6 -21 -29 3 -25 hhcurveto
          -18 -18 -2 -3 -16 hvcurveto
          -21 16 -16 28 21 vvcurveto
          45 47 5 26 vhcurveto
          166 164 163 hlineto
          -59 87 rlineto
          -558 -101 callgsubr
          286 -80 -123 hlineto
          -47 -59 -28 -60 -56 46 -52 26 -20 hvcurveto
          -33 -13 -30 -27 -43 vvcurveto
          -90 105 -115 115 86 72 49 51 43 vhcurveto
          endchar
        </CharString>
        <CharString name="dvDD">
          -69 203 -201 -74 callsubr
          -109 252 rmoveto
          -102 56 100 -72 104 hhcurveto
          116 78 80 76 64 261 callsubr
          -47 callgsubr
          endchar
        </CharString>
        <CharString name="dvDDA">
          -69 35 136 rmoveto
          -102 56 100 -72 104 hhcurveto
          116 78 80 76 64 261 callsubr
          -47 callgsubr
          endchar
        </CharString>
        <CharString name="dvDDH">
          -60 254 -177 -74 callsubr
          358 724 -41 callsubr
          endchar
        </CharString>
        <CharString name="dvDDHA">
          -60 553 632 -41 callsubr
          endchar
        </CharString>
        <CharString name="dvDDH_DDHA">
          -56 556 -4 callsubr
          -612 -101 callgsubr
          317 -71 -98 hlineto
          -108 -69 -62 -99 -77 40 -79 63 -43 hvcurveto
          -66 -20 -37 -52 -69 vvcurveto
          -162 157 -114 124 96 78 66 81 82 -82 70 -66 -64 223 callsubr
          90 69 25 68 vhcurveto
          52 hlineto
          96 78 67 80 82 -82 70 -66 -64 -46 -50 -61 -42 20 -37 18 -22 hvcurveto
          -76 4 -67 59 75 vvcurveto
          90 69 25 68 vhcurveto
          154 168 187 hlineto
          -190 -323 rmoveto
          -43 -40 -36 -46 -11 vhcurveto
          -11 12 -5 17 16 vvcurveto
          38 29 37 41 21 11 -12 -18 vhcurveto
          -102 -384 rmoveto
          38 29 37 41 21 11 -12 -18 -42 -40 -37 -46 -11 vhcurveto
          -11 13 -5 16 16 vvcurveto
          endchar
        </CharString>
        <CharString name="dvDDH_R">
          146 callgsubr
          58 -382 rmoveto
          57 38 -126 137 rlineto
          69 19 50 55 65 vvcurveto
          159 callgsubr
          154 196 178 -33 callgsubr
          216 callsubr
          -123 80 -94 92 -43 hvcurveto
          -130 -126 206 callsubr
          rlineto
          -38 -272 -74 callsubr
          endchar
        </CharString>
        <CharString name="dvDDH_RA">
          146 callgsubr
          36 140 rmoveto
          196 178 174 callsubr
          216 callsubr
          -124 82 -95 92 -43 hvcurveto
          -127 -123 85 -67 226 callgsubr
          37 -125 137 rlineto
          66 21 47 54 63 vvcurveto
          159 callgsubr
          endchar
        </CharString>
        <CharString name="dvDDH_YA">
          469 353 306 rmoveto
          -64 -47 -53 -61 hvcurveto
          1 -41 18 -32 20 -25 rrcurveto
          -76 5 -67 60 75 vvcurveto
          90 61 38 76 vhcurveto
          309 hlineto
          40 232 callsubr
          -50 -27 hvcurveto
          -16 227 callsubr
          96 47 47 28 41 37 vhcurveto
          -4 -98 108 -64 127 callsubr
          -1138 -101 callgsubr
          317 -84 -100 hlineto
          -114 -61 -77 -90 -81 37 -71 53 -51 hvcurveto
          -55 57 72 -28 62 hhcurveto
          96 78 66 80 83 -82 69 -66 hvcurveto
          191 155 rmoveto
          -115 84 446 -280 hlineto
          -47 -25 -78 -83 -75 54 callgsubr
          -220 -314 rmoveto
          38 29 37 41 21 11 -12 -18 -43 -42 -35 -44 -12 vhcurveto
          -11 13 -5 16 16 vvcurveto
          endchar
        </CharString>
        <CharString name="dvDDHxA">
          -60 553 632 -41 callsubr
          -76 -281 -26 callsubr
          endchar
        </CharString>
        <CharString name="dvDD_DDA">
          -50 296 7 rmoveto
          111 84 75 75 66 -70 93 -75 hvcurveto
          -16 callsubr
          14 -25 42 -52 43 -28 rlinecurve
          -42 -10 -18 -31 -38 vvcurveto
          -91 95 -95 75 vhcurveto
          48 50 39 38 hhcurveto
          21 11 -12 -13 -54 -69 -46 -84 -75 -56 59 61 -39 hvcurveto
          -54 -37 rlineto
          -98 54 101 -73 107 hhcurveto
          111 84 74 76 65 -70 93 -75 hvcurveto
          -47 -50 -38 -46 hhcurveto
          -29 -19 16 31 38 24 18 48 hvcurveto
          endchar
        </CharString>
        <CharString name="dvDD_DDHA">
          -50 296 7 rmoveto
          111 84 75 75 66 -70 93 -75 hvcurveto
          -16 callsubr
          21 -36 38 -45 40 -25 rlinecurve
          -55 -24 -26 -46 -59 vvcurveto
          -162 158 -114 124 95 79 67 80 82 -82 70 -66 -65 223 callsubr
          86 76 29 76 vhcurveto
          34 -198 rmoveto
          38 29 37 41 21 12 -12 -18 -43 -41 -36 -46 -11 vhcurveto
          -10 12 -6 17 16 vvcurveto
          endchar
        </CharString>
        <CharString name="dvDD_R">
          -69 432 -205 rmoveto
          57 38 -127 139 rlineto
          78 23 49 63 60 vvcurveto
          286 callsubr
          vhcurveto
          -47 callgsubr
          -53 -37 37 -68 57 -55 65 -29 rlinecurve
          -125 -121 206 callsubr
          rlineto
          -28 -278 -74 callsubr
          endchar
        </CharString>
        <CharString name="dvDD_RA">
          -69 436 193 callgsubr
          -622 218 callsubr
          350 -90 -131 hlineto
          -17 callgsubr
          -53 -37 38 -69 57 -55 66 -28 rlinecurve
          -124 -120 85 269 callsubr
          -127 139 rlineto
          76 24 48 62 59 vvcurveto
          286 callsubr
          vhcurveto
          162 callgsubr
          -31 252 callsubr
          25 20 48 hvcurveto
          endchar
        </CharString>
        <CharString name="dvDD_VA">
          -50 491 157 rmoveto
          66 -70 93 -75 vhcurveto
          -16 callsubr
          20 -34 43 -48 40 -29 rlinecurve
          -52 -21 -35 -39 -55 vvcurveto
          -108 110 -96 92 45 35 21 28 25 vhcurveto
          -5 -106 104 -60 rlineto
          443 vlineto
          22 24 13 29 30 vvcurveto
          -195 -150 rmoveto
          20 20 3 5 18 hvcurveto
          1 -74 rlineto
          -69 -38 -48 -37 -52 hhcurveto
          -45 -33 31 44 61 49 41 67 -2 hvcurveto
          -2 13 14 -1 14 hhcurveto
          endchar
        </CharString>
        <CharString name="dvDD_YA">
          461 34 137 rmoveto
          -101 57 100 -72 104 hhcurveto
          115 78 79 76 65 261 callsubr
          -46 -51 -39 -46 hhcurveto
          -30 252 callsubr
          24 20 48 hvcurveto
          349 hlineto
          41 28 -5 130 callsubr
          159 vlineto
          -60 87 rlineto
          -1146 218 callsubr
          344 -86 -131 hlineto
          -84 -45 -40 -70 -93 95 -103 75 hvcurveto
          50 50 39 34 hhcurveto
          24 10 -17 -18 -53 -62 -53 -84 -75 -63 62 62 -39 hvcurveto
          449 284 rmoveto
          -102 86 433 -280 hlineto
          158 callgsubr
          89 -99 vhcurveto
          endchar
        </CharString>
        <CharString name="dvDDxA">
          -75 32 136 rmoveto
          -102 56 100 -72 104 hhcurveto
          116 78 80 76 64 261 callsubr
          -47 callgsubr
          135 -353 -26 callsubr
          endchar
        </CharString>
        <CharString name="dvDH">
          -232 159 465 rmoveto
          95 callgsubr
          -330 7 callsubr
          50 85 29 101 78 vhcurveto
          -68 84 rlineto
          -69 -48 -62 -57 -77 -77 callgsubr
          222 80 rmoveto
          74 -33 callgsubr
          -74 hlineto
          endchar
        </CharString>
        <CharString name="dvDHA">
          13 380 545 rmoveto
          39 -275 hlineto
          -46 -36 -59 -61 -78 hhcurveto
          -55 -37 32 44 53 56 14 42 28 27 -5 -9 33 hvcurveto
          -32 120 callsubr
          -28 hhcurveto
          -9 -12 -1 -1 -7 hvcurveto
          -20 97 callsubr
          -329 -101 callgsubr
          38 hlineto
          7 47 2 7 hhcurveto
          -11 170 callsubr
          34 -22 vhcurveto
          -39 -18 -28 -36 -42 vvcurveto
          -117 121 -98 107 47 52 23 32 37 vhcurveto
          -4 -108 107 -65 127 callsubr
          -306 hlineto
          endchar
        </CharString>
        <CharString name="dvDH_MA">
          339 745 279 callgsubr
          242 callsubr
          -633 hlineto
          56 -87 rlineto
          75 262 callsubr
          -39 -25 -12 -31 -14 7 -17 11 -18 hvcurveto
          -46 -41 -50 -33 -59 -37 callgsubr
          43 69 22 70 69 vhcurveto
          -14 20 20 -10 14 168 callsubr
        </CharString>
        <CharString name="dvDH_NA">
          13 159 465 rmoveto
          95 callgsubr
          -330 -22 callgsubr
          -101 98 -97 92 -5 vhcurveto
          -54 -46 74 callgsubr
          124 123 rcurveline
          -4 -115 107 -65 127 callsubr
          -304 -101 callgsubr
          37 -280 hlineto
          -54 -45 -60 -48 -67 -77 callgsubr
          endchar
        </CharString>
        <CharString name="dvDH_N_YA">
          373 780 160 callsubr
          12 53 callsubr
          -665 -101 callgsubr
          129 67 callsubr
          -18 7 -21 12 -22 vhcurveto
          -57 -47 -60 -50 -69 -77 callgsubr
          92 callgsubr
          92 hlineto
          -60 87 rlineto
          -330 -22 callgsubr
          -101 98 -97 92 -5 vhcurveto
          -54 -46 74 callgsubr
          181 182 rcurveline
          -53 51 69 -43 55 hhcurveto
          49 -102 callsubr
        </CharString>
        <CharString name="dvDH_R">
          -232 507 222 rmoveto
          -68 68 rlineto
          -66 -50 -65 -61 -78 hhcurveto
          -54 -37 32 44 53 55 14 43 27 27 -5 -9 34 hvcurveto
          -33 120 callsubr
          -27 hhcurveto
          -9 -12 -1 -1 -7 hvcurveto
          -21 97 callsubr
          -329 -101 callgsubr
          39 hlineto
          7 46 145 callgsubr
          -112 -90 80 -58 rlineto
          148 610 rmoveto
          73 hlineto
          -59 87 rlineto
          -74 hlineto
          endchar
        </CharString>
        <CharString name="dvDH_RA">
          -56 155 -7 rmoveto
          80 -58 193 200 -7 -115 108 -63 257 callgsubr
          -59 87 rlineto
          58 callgsubr
          -332 -101 callgsubr
          39 hlineto
          7 49 145 callgsubr
          endchar
        </CharString>
        <CharString name="dvDH_VA">
          345 953 -4 callsubr
          -625 218 callsubr
          362 hlineto
          -66 callsubr
          -58 -30 39 49 61 48 64 65 42 25 -21 -21 20 hvcurveto
          29 79 callgsubr
          -78 hhcurveto
          -77 -82 -62 -107 -20 3 -20 7 -19 hvcurveto
          -52 -44 -53 -39 -64 -37 callgsubr
          42 66 20 66 66 vhcurveto
          -48 44 59 -31 51 176 callsubr
        </CharString>
        <CharString name="dvDH_YA">
          352 760 160 callsubr
          12 53 callsubr
          -646 -101 callgsubr
          110 67 callsubr
          -21 10 -26 17 -26 vhcurveto
          -54 -45 -54 -41 -65 -37 callgsubr
          45 74 24 79 71 vhcurveto
          -44 49 59 -34 49 hhcurveto
          49 -102 callsubr
        </CharString>
        <CharString name="dvD_BA">
          -34 437 373 179 callgsubr
          -645 218 callgsubr
          352 -73 -87 205 callsubr
          -50 19 -48 31 -40 hvcurveto
          -18 callgsubr
          -84 -445 rmoveto
          -48 -30 28 42 10 2 11 6 9 hvcurveto
          134 -72 rlineto
          -18 -19 -23 -10 -22 hhcurveto
          82 128 rmoveto
          258 callsubr
          -10 -26 -13 -23 -16 -20 -128 68 rcurveline
          24 9 26 1 12 1 15 -6 17 -5 17 -3 rrcurveto
          endchar
        </CharString>
        <CharString name="dvD_BHA">
          26 509 49 callsubr
          -712 218 callgsubr
          422 119 callgsubr
          27 -26 35 -24 38 -5 -99 -66 rcurveline
          -56 78 -23 31 -24 16 -38 4 rlinecurve
          -58 6 -40 5 -25 -10 -25 -19 rlinecurve
          -72 -52 86 -32 55 40 25 17 27 -7 17 -24 rlinecurve
          78 -107 rlineto
          -27 -20 -11 -14 -14 vvcurveto
          -40 80 -20 57 22 37 2 23 2 vhcurveto
          2 6 -1 5 -4 7 rrcurveto
          5 -30 40 -3 3 vhcurveto
          204 136 89 -132 63 43 -103 123 rlineto
          26 25 16 29 23 vvcurveto
          37 -49 74 -43 -42 -38 -32 -37 -23 8 -19 13 -20 vhcurveto
          0 -24 -21 -41 -70 -56 53 73 136 callsubr
          endchar
        </CharString>
        <CharString name="dvD_B_RA">
          -34 437 373 179 callgsubr
          -645 218 callgsubr
          352 -73 -87 205 callsubr
          -50 19 -48 31 -40 hvcurveto
          8 -11 9 -10 9 -9 rrcurveto
          -50 -13 -56 -30 -70 vvcurveto
          -85 99 -79 81 -6 vhcurveto
          -88 -77 79 -57 151 162 43 43 27 65 10 57 rlinecurve
          67 -111 69 49 -105 126 rlineto
          20 22 13 23 20 vvcurveto
          37 -49 75 -43 -43 -37 -33 -37 -22 8 -19 13 -20 vhcurveto
          0 -24 -22 -41 -70 -56 48 75 76 46 31 88 vhcurveto
          -84 -445 rmoveto
          -48 -30 28 42 10 2 11 6 9 hvcurveto
          134 -72 rlineto
          -18 -19 -23 -10 -22 hhcurveto
          82 128 rmoveto
          258 callsubr
          -10 -26 -13 -23 -16 -20 -128 68 rcurveline
          24 9 26 1 12 1 15 -6 17 -5 17 -3 rrcurveto
          endchar
        </CharString>
        <CharString name="dvD_DA">
          -56 466 51 rmoveto
          38 -31 58 -43 -38 -38 -18 -40 -14 6 -20 7 -13 vhcurveto
          -12 -26 -32 -5 -32 hhcurveto
          -55 -33 29 37 81 166 20 58 6 hvcurveto
          -47 88 -27 -1 -77 -11 -47 -17 rlinecurve
          -16 15 -19 30 25 vvcurveto
          42 37 16 36 vhcurveto
          173 160 163 hlineto
          -59 87 rlineto
          -565 -101 callgsubr
          293 -76 -124 hlineto
          -60 -52 -28 -60 -56 48 -69 28 -23 hvcurveto
          -35 -19 -29 -29 -44 vvcurveto
          -108 121 -92 104 29 34 5 11 30 vhcurveto
          96 -149 70 50 -109 130 rlineto
          21 18 14 22 23 vvcurveto
          endchar
        </CharString>
        <CharString name="dvD_DHA">
          61 656 -4 callsubr
          -729 218 callgsubr
          458 -73 -88 205 callsubr
          -44 14 -43 25 -37 hvcurveto
          -17 -10 -11 -10 -10 -9 rrcurveto
          -46 7 -32 25 36 vvcurveto
          33 21 27 18 12 vhcurveto
          -80 46 rlineto
          -30 -23 -32 -42 -44 vvcurveto
          -67 61 -53 78 -4 vhcurveto
          -13 -19 -7 -23 -21 vvcurveto
          -100 125 -43 79 106 90 60 107 16 92 callsubr
          150 172 163 hlineto
          -437 -431 rmoveto
          28 -24 36 -18 33 -8 rrcurveto
          -2 13 14 -2 12 hhcurveto
          -48 -22 -36 -37 -56 hhcurveto
          -41 -35 23 42 30 26 26 28 18 hvcurveto
          endchar
        </CharString>
        <CharString name="dvD_GA">
          -64 482 -51 rmoveto
          104 callsubr
          149 167 164 hlineto
          -53 87 rlineto
          -607 218 callgsubr
          336 -68 -88 205 callsubr
          -51 19 -48 31 -41 hvcurveto
          -149 vlineto
          -41 -27 -10 -27 -52 84 -88 42 25 10 16 53 hvcurveto
          171 vlineto
          21 -13 26 -9 25 -5 16 -5 21 -2 20 2 rrcurveto
          -10 -75 0 -242 0 vvcurveto
          96 -56 rlineto
          397 vlineto
          endchar
        </CharString>
        <CharString name="dvD_GHA">
          61 546 373 rmoveto
          172 163 vlineto
          -53 87 rlineto
          -729 218 callgsubr
          458 -73 -88 hlineto
          -86 -55 -33 -51 -24 hvcurveto
          -123 -9 -63 -59 -73 vvcurveto
          -76 71 -45 62 -9 vhcurveto
          -10 -16 -7 -20 -21 vvcurveto
          -100 125 -43 80 105 84 59 98 14 92 callsubr
          12 -313 rmoveto
          -37 -17 -33 -38 -56 hhcurveto
          -40 -36 23 40 29 25 23 20 14 hvcurveto
          -33 42 48 -21 47 hhcurveto
          -201 129 rmoveto
          -14 -9 -8 -7 -12 -9 rrcurveto
          -43 7 -37 28 35 vvcurveto
          44 42 18 34 5 vhcurveto
          2 -42 14 -37 22 -33 rrcurveto
          endchar
        </CharString>
        <CharString name="dvD_G_RA">
          -64 420 378 rmoveto
          167 164 vlineto
          -53 87 rlineto
          -607 218 callgsubr
          336 -68 -88 205 callsubr
          -51 19 -48 31 -41 hvcurveto
          -149 vlineto
          -41 -27 -10 -27 -52 84 -88 42 25 10 16 53 hvcurveto
          171 vlineto
          21 -13 26 -9 25 -5 16 -5 21 -2 20 2 -4 -29 -2 -52 -2 -55 -221 -203 rcurveline
          75 -51 145 158 rlineto
          -1 -49 0 -36 0 vvcurveto
          96 -56 rlineto
          397 vlineto
          81 -135 104 callsubr
          endchar
        </CharString>
        <CharString name="dvD_MA">
          192 319 -20 rmoveto
          -39 -25 -12 -31 -52 91 -83 44 23 153 callsubr
          47 189 -137 vlineto
          96 -68 rlineto
          869 152 vlineto
          -53 87 rlineto
          -881 218 callgsubr
          336 -73 -88 hlineto
          -125 -57 -65 -91 -64 30 -62 47 -47 hvcurveto
          -51 49 68 -34 64 hhcurveto
          7 12 2 2 7 hvcurveto
          -82 vlineto
          93 393 rmoveto
          172 190 -565 -189 121 vlineto
          34 26 22 34 27 vvcurveto
          41 -52 57 -44 -36 -18 -35 -40 vhcurveto
          -44 vlineto
          0 -23 -21 -41 -70 -56 48 75 76 49 28 85 vhcurveto
          endchar
        </CharString>
        <CharString name="dvD_NA">
          -55 48 callsubr
          28 -27 31 -22 43 -8 -77 -40 rcurveline
          -21 -12 -18 -14 -22 vvcurveto
          -55 88 -42 43 18 17 8 17 6 -3 8 -4 11 vhcurveto
          -7 17 -10 19 -7 12 135 89 rcurveline
          -89 callgsubr
          endchar
        </CharString>
        <CharString name="dvD_R">
          -60 48 callsubr
          32 -31 42 -26 42 -9 -150 -89 rcurveline
          78 -55 212 155 -89 callgsubr
          21 -559 rmoveto
          8 17 18 4 16 hhcurveto
          82 61 -103 -48 37 hvcurveto
          50 35 rlineto
          76 -58 -85 136 -117 hhcurveto
          -27 -29 -8 -15 -24 hvcurveto
          endchar
        </CharString>
        <CharString name="dvD_RA">
          -55 48 callsubr
          32 -31 43 -27 43 -7 -154 -92 rcurveline
          78 -55 214 157 -89 callgsubr
          endchar
        </CharString>
        <CharString name="dvD_VA">
          -34 437 373 179 callgsubr
          -645 218 callgsubr
          352 -73 -87 205 callsubr
          -50 19 -48 31 -40 hvcurveto
          -18 callgsubr
          -2 -317 rmoveto
          258 callsubr
          rrcurveto
          -68 -29 -50 -64 -59 hhcurveto
          216 callgsubr
          rrcurveto
          endchar
        </CharString>
        <CharString name="dvD_YA">
          208 callgsubr
          -95 113 -95 112 62 57 31 34 39 vhcurveto
          -1 -75 117 callgsubr
          -50 -46 -91 -53 70 callsubr
        </CharString>
        <CharString name="dvD_Y_RA">
          208 callgsubr
          -83 92 -87 94 -5 vhcurveto
          -107 -81 79 -55 225 193 -1 -82 117 callgsubr
          -62 -73 -64 -41 70 callsubr
        </CharString>
        <CharString name="dvE">
          -29 577 -4 callsubr
          -649 192 callgsubr
          22 -17 vhcurveto
          24 -18 186 -145 16 -12 rrcurveto
          38 -31 20 -19 -19 vvcurveto
          -17 -14 -18 -20 -19 vhcurveto
          88 -68 rlineto
          23 89 callsubr
          190 -188 vlineto
          -49 -23 -23 -50 -30 vhcurveto
          79 247 callsubr
          endchar
        </CharString>
        <CharString name="dvEcandra">
          -22 585 -4 callsubr
          -649 192 callgsubr
          21 -17 vhcurveto
          25 -18 185 -145 16 -12 rrcurveto
          39 -31 19 -19 -19 vvcurveto
          -17 -13 -18 -20 -19 vhcurveto
          87 -68 rlineto
          24 89 callsubr
          189 -188 vlineto
          -49 -22 -23 -51 -30 vhcurveto
          80 247 callsubr
          -564 132 callgsubr
        </CharString>
        <CharString name="dvEight">
          -44 427 195 rmoveto
          -81 -27 -57 -74 -81 hhcurveto
          -59 -51 45 52 28 9 30 31 41 hvcurveto
          255 340 -91 56 -271 -344 rlineto
          -31 -40 -8 -35 -33 vvcurveto
          -102 136 -131 117 129 57 105 82 32 vhcurveto
          -86 62 rlineto
          endchar
        </CharString>
        <CharString name="dvEyelash">
          -403 340 28 callgsubr
          -360 -101 callgsubr
          -22 -223 rmoveto
          -66 66 70 -31 64 hhcurveto
          70 62 26 32 46 hvcurveto
          -56 92 rlineto
          -34 -48 -56 -22 -51 hhcurveto
          -39 -50 13 34 -43 hvcurveto
          endchar
        </CharString>
        <CharString name="dvEyelash_HA">
          110 618 372 150 callgsubr
          -800 -101 callgsubr
          533 -79 -150 136 callgsubr
          -5 0 -6 1 -6 hvcurveto
          -22 -40 -44 -14 -40 214 callsubr
          53 48 15 20 40 hvcurveto
          7 -8 7 -8 9 -8 rrcurveto
          -34 -32 -24 -43 -50 vvcurveto
          -139 207 -125 63 -37 vhcurveto
          58 43 rlineto
          -62 30 -165 86 107 -59 callgsubr
          endchar
        </CharString>
        <CharString name="dvEyelash_YA">
          190 597 311 6 callsubr
          -883 -101 callgsubr
          347 -49 callsubr
          -11 -5 -6 -6 -2 -9 rrcurveto
          -15 -32 -34 -8 -31 214 callsubr
          36 33 7 11 31 hvcurveto
          -71 51 93 -72 72 hhcurveto
          48 -102 callsubr
        </CharString>
        <CharString name="dvFive">
          27 326 -46 rmoveto
          272 -69 448 172 -26 hvcurveto
          -105 47 14 -72 12 -81 7 -74 rlinecurve
          -34 -25 -50 -44 -55 hhcurveto
          -58 -45 48 65 56 21 44 27 46 hvcurveto
          -100 54 rlineto
          -29 -66 -10 -40 -52 vvcurveto
          -127 147 -106 90 44 32 22 22 25 vhcurveto
          -127 1 -24 -119 -119 hhcurveto
          -18 -17 6 7 -10 hvcurveto
          60 -37 -39 57 -35 hhcurveto
          -31 -27 -33 -29 -53 72 -46 65 -27 hvcurveto
          119 -211 59 39 -105 151 rlineto
          -1 7 9 -2 11 hhcurveto
          endchar
        </CharString>
        <CharString name="dvFour">
          28 290 391 rmoveto
          -220 244 -50 -40 228 -252 -69 -79 rlineto
          -32 -36 -17 -29 -40 vvcurveto
          -84 109 -122 99 96 56 73 66 62 -40 65 -49 54 vhcurveto
          -39 43 208 251 -77 62 rlineto
          -269 -498 rmoveto
          22 46 55 10 11 vhcurveto
          43 48 rlineto
          37 -39 40 -44 -51 vvcurveto
          -63 -51 -41 -55 -60 -29 51 51 19 vhcurveto
          endchar
        </CharString>
        <CharString name="dvG">
          -315 298 -4 callsubr
          -381 -90 callsubr
          156 vlineto
          endchar
        </CharString>
        <CharString name="dvGA">
          -71 443 545 rmoveto
          163 hlineto
          -64 87 rlineto
          -625 -90 callsubr
          129 -519 234 callgsubr
          endchar
        </CharString>
        <CharString name="dvGH">
          -219 438 285 rmoveto
          -72 -54 -59 -53 -76 hhcurveto
          -34 callgsubr
          239 hlineto
          -59 87 rlineto
          -474 4 callgsubr
          -106 123 -107 118 54 73 30 106 72 vhcurveto
          endchar
        </CharString>
        <CharString name="dvGHA">
          17 531 -43 rmoveto
          250 callgsubr
          -710 4 callgsubr
          -106 123 -107 118 46 45 22 35 38 vhcurveto
          -6 -104 rlineto
          -114 373 rmoveto
          5 -19 -26 4 -23 hhcurveto
          -18 -19 -2 -4 -17 hvcurveto
          -19 17 -13 23 25 vvcurveto
          34 27 38 32 10 vhcurveto
          209 -276 hlineto
          -48 -32 -62 -61 -80 146 callsubr
          endchar
        </CharString>
        <CharString name="dvGH_MA">
          343 750 -2 callsubr
          -441 -150 rmoveto
          5 -19 -26 4 -23 hhcurveto
          -18 -19 -2 -4 -17 hvcurveto
          -19 17 -13 23 25 vvcurveto
          34 27 38 32 10 vhcurveto
          241 262 callsubr
          -40 -25 -12 -31 -15 7 -17 12 -18 hvcurveto
          -48 -44 -49 -33 -60 146 callsubr
          617 337 rmoveto
          -1037 4 callgsubr
          -106 123 -107 118 47 62 23 77 63 vhcurveto
          -16 22 20 -10 15 hhcurveto
          87 callsubr
          -65 callgsubr
        </CharString>
        <CharString name="dvGH_NA">
          17 689 545 rmoveto
          -59 87 rlineto
          -710 4 callgsubr
          -93 108 -108 96 5 vhcurveto
          -77 -65 rlineto
          -22 -18 -9 -13 -15 vvcurveto
          -51 79 -28 54 27 192 callsubr
          -17 20 -17 24 139 137 rcurveline
          -5 -109 108 -65 rlineto
          588 vlineto
          -282 -385 rmoveto
          -34 callgsubr
          209 hlineto
          3 -276 rlineto
          -68 -53 -64 -41 -60 hhcurveto
          endchar
        </CharString>
        <CharString name="dvGH_R">
          -219 145 -24 rmoveto
          79 -55 277 285 -68 71 rlineto
          -54 -43 -65 -63 -76 hhcurveto
          -34 callgsubr
          239 hlineto
          -59 87 rlineto
          -474 4 callgsubr
          -91 103 -111 111 1 vhcurveto
          endchar
        </CharString>
        <CharString name="dvGH_RA">
          21 154 -24 rmoveto
          79 -55 198 203 -5 -106 109 -61 rlineto
          250 callgsubr
          -709 -101 callgsubr
          51 -20 callsubr
          -91 103 -111 111 1 vhcurveto
          -24 79 rmoveto
          -34 callgsubr
          204 -287 hlineto
          -48 -42 -59 -50 -68 hhcurveto
          endchar
        </CharString>
        <CharString name="dvGH_YA">
          347 754 311 -107 callsubr
          -445 -150 rmoveto
          5 -19 -26 4 -23 hhcurveto
          -18 -19 -2 -4 -17 hvcurveto
          -19 17 -13 23 25 vvcurveto
          34 27 38 32 10 vhcurveto
          270 43 callsubr
          -23 12 -29 20 -29 vhcurveto
          -54 -47 -51 -36 -63 146 callsubr
          620 337 rmoveto
          -1040 4 callgsubr
          -106 123 -107 118 48 64 24 82 65 vhcurveto
          -43 48 58 -32 48 hhcurveto
          48 -102 callsubr
        </CharString>
        <CharString name="dvG_BA">
          279 575 188 11 callgsubr
          -975 -90 callsubr
          478 vlineto
          60 callgsubr
          588 159 vlineto
          endchar
        </CharString>
        <CharString name="dvG_BHA">
          260 873 18 callgsubr
          -382 -90 callsubr
          127 vlineto
          96 callgsubr
          vlineto
          -54 -17 -13 -26 -54 102 -98 44 33 callsubr
        </CharString>
        <CharString name="dvG_BH_YA">
          605 1012 311 6 callsubr
          -707 -101 callgsubr
          171 -49 callsubr
          -14 -6 -5 -8 -1 -13 rrcurveto
          -140 -8 callgsubr
          -387 -90 callsubr
          133 vlineto
          96 callgsubr
          -20 vlineto
          86 callgsubr
          182 vlineto
          -68 51 90 -67 69 hhcurveto
          48 -102 callsubr
        </CharString>
        <CharString name="dvG_DA">
          210 694 49 callsubr
          -907 -90 callsubr
          381 -97 -89 vlineto
          77 callgsubr
          -47 49 62 -30 61 hhcurveto
          29 30 8 14 25 hvcurveto
          -89 callgsubr
          endchar
        </CharString>
        <CharString name="dvG_DHA">
          -593 endchar
        </CharString>
        <CharString name="dvG_DH_VA">
          663 1276 79 callsubr
          2 -14 2 -13 hvcurveto
          -62 -46 -58 -48 -71 -77 callgsubr
          92 callgsubr
          92 hlineto
          -60 87 rlineto
          -629 -90 callsubr
          156 vlineto
          -1 2 rlineto
          16 hlineto
          164 callgsubr
          44 71 23 74 70 vhcurveto
          -54 45 64 -36 55 hhcurveto
          54 53 34 32 31 hvcurveto
          -74 callgsubr
        </CharString>
        <CharString name="dvG_DH_YA">
          687 1094 311 6 callsubr
          -680 -101 callgsubr
          144 162 callsubr
          -18 vhcurveto
          -66 -47 -61 -53 -74 -77 callgsubr
          92 callgsubr
          92 hlineto
          -60 87 rlineto
          -635 -90 callsubr
          156 vlineto
          -1 1 22 1 rlineto
          164 callgsubr
          48 81 27 93 76 vhcurveto
          -52 51 69 -43 55 hhcurveto
          48 -102 callsubr
        </CharString>
        <CharString name="dvG_GA">
          179 792 -4 callsubr
          -875 -90 callsubr
          145 -190 vlineto
          -41 -26 -9 -28 -51 87 -89 50 25 10 17 52 hvcurveto
          200 callsubr
        </CharString>
        <CharString name="dvG_GHA">
          299 705 269 rmoveto
          -48 -32 -62 -61 -80 hhcurveto
          -34 callgsubr
          209 hlineto
          242 callsubr
          -995 -90 callsubr
          152 vlineto
          -14 -14 -8 -24 -21 vvcurveto
          -42 33 -39 37 -25 vhcurveto
          -40 -20 -25 -33 -45 vvcurveto
          -106 123 -107 118 46 45 22 35 38 vhcurveto
          -6 -104 108 -65 256 callsubr
        </CharString>
        <CharString name="dvG_JA">
          395 1010 -4 callsubr
          -1093 -90 callsubr
          596 -122 -290 vlineto
          83 callsubr
          108 -66 rlineto
          588 160 vlineto
          endchar
        </CharString>
        <CharString name="dvG_LA">
          439 1052 -4 callsubr
          -1135 -90 callsubr
          639 -134 vlineto
          20 -30 -35 13 -33 -105 callgsubr
          64 25 58 73 18 19 -4 -5 14 vhcurveto
          -319 -55 callsubr
          159 vlineto
          endchar
        </CharString>
        <CharString name="dvG_MA">
          271 677 -2 callsubr
          242 callsubr
          -967 -90 callsubr
          176 -211 -7 vlineto
          -40 -25 -12 -31 -54 102 -94 44 87 callsubr
          -65 callgsubr
        </CharString>
        <CharString name="dvG_NA">
          -71 443 545 rmoveto
          163 hlineto
          -64 87 rlineto
          -625 hlineto
          63 -87 rlineto
          121 -162 hlineto
          -41 -26 -9 -28 -51 87 -89 50 25 10 17 52 hvcurveto
          270 129 -286 vlineto
          -228 -184 rlineto
          -21 -18 -9 -13 -15 vvcurveto
          -51 82 -30 54 28 19 10 16 6 -2 4 -6 9 vhcurveto
          -3 8 -18 21 -16 23 120 113 rcurveline
          -132 234 callgsubr
          endchar
        </CharString>
        <CharString name="dvG_NNA">
          439 607 90 callsubr
          444 87 rmoveto
          -1134 -90 callsubr
          143 -187 vlineto
          -56 37 -63 55 -45 vhcurveto
          9 callgsubr
          endchar
        </CharString>
        <CharString name="dvG_N_YA">
          279 686 311 6 callsubr
          -975 -90 callsubr
          210 115 callgsubr
          -26 15 -32 23 -32 vhcurveto
          -224 -188 rlineto
          -21 -18 -9 -14 -14 vvcurveto
          -51 82 -31 54 28 18 203 callsubr
          -3 7 -18 21 -17 24 165 163 rcurveline
          -48 51 64 -38 52 hhcurveto
          48 -102 callsubr
        </CharString>
        <CharString name="dvG_R">
          -315 298 -4 callsubr
          -381 -90 callsubr
          156 vlineto
          2 -291 rmoveto
          -280 -245 78 -56 253 252 rlineto
          endchar
        </CharString>
        <CharString name="dvG_RA">
          60 callsubr
          endchar
        </CharString>
        <CharString name="dvG_R_YA">
          281 688 311 6 callsubr
          -977 -90 callsubr
          212 115 callgsubr
          -25 15 -32 23 -32 vhcurveto
          -266 -233 78 -56 235 234 rlineto
          -48 51 64 -39 53 hhcurveto
          48 -102 callsubr
        </CharString>
        <CharString name="dvG_SA">
          343 753 352 -44 callsubr
          276 callsubr
          -1040 -90 callsubr
          229 -201 vlineto
          -101 callsubr
          -43 callsubr
        </CharString>
        <CharString name="dvG_VA">
          274 888 -4 callsubr
          -971 -90 callsubr
          473 vlineto
          -87 callgsubr
          -77 -82 -62 -107 2 callgsubr
          hvcurveto
          -74 callgsubr
        </CharString>
        <CharString name="dvG_YA">
          292 699 311 6 callsubr
          -988 -90 callsubr
          223 vlineto
          -15 callsubr
        </CharString>
        <CharString name="dvGx">
          -315 298 -4 callsubr
          -381 -90 callsubr
          156 vlineto
          -292 -603 -26 callsubr
          endchar
        </CharString>
        <CharString name="dvGxA">
          -49 454 545 rmoveto
          163 hlineto
          -64 87 rlineto
          -625 -90 callsubr
          129 -519 234 callgsubr
          -366 12 -26 callsubr
          endchar
        </CharString>
        <CharString name="dvGx_R">
          -315 298 -4 callsubr
          -381 -90 callsubr
          156 vlineto
          2 -291 rmoveto
          -280 -245 78 -56 253 252 rlineto
          -147 -252 -26 callsubr
          endchar
        </CharString>
        <CharString name="dvGx_RA">
          60 callsubr
          -398 -632 -26 callsubr
          endchar
        </CharString>
        <CharString name="dvH">
          -96 315 198 rmoveto
          313 hlineto
          -65 93 rlineto
          -293 hlineto
          -28 -30 -7 -12 -26 hvcurveto
          -13 14 -13 17 21 vvcurveto
          36 27 12 44 vhcurveto
          201 173 145 -33 callgsubr
          -597 -101 callgsubr
          347 -79 -154 136 callgsubr
          -38 20 -46 52 -50 hvcurveto
          -34 -31 -24 -42 -51 vvcurveto
          -139 209 -128 63 -37 vhcurveto
          58 43 rlineto
          -62 30 -165 93 107 vvcurveto
          74 74 41 66 vhcurveto
          endchar
        </CharString>
        <CharString name="dvHA">
          41 callsubr
          -139 207 -125 63 -37 vhcurveto
          58 43 rlineto
          -62 30 -165 86 107 vvcurveto
          74 76 49 66 41 20 -18 -24 -30 -27 -45 -60 -24 vhcurveto
          endchar
        </CharString>
        <CharString name="dvHA_mU">
          -83 323 -104 rmoveto
          -69 42 -79 64 74 vvcurveto
          74 76 49 66 41 20 -18 -24 -30 -27 -45 -60 -24 vhcurveto
          77 -82 rlineto
          50 callsubr
          -96 98 -89 82 -58 vhcurveto
          -24 -23 -10 -35 2 -32 82 -49 rcurveline
          88 callsubr
          endchar
        </CharString>
        <CharString name="dvHA_mUU">
          41 callsubr
          -81 70 -76 71 -57 vhcurveto
          -52 -19 -37 -46 -59 vvcurveto
          -78 94 -95 79 64 36 43 62 11 vhcurveto
          246 callsubr
          52 47 29 42 79 81 -89 -98 65 hvcurveto
          45 40 -62 99 -89 115 -111 23 rlinecurve
          -67 42 -70 61 70 vvcurveto
          74 76 49 66 41 20 -18 -24 -30 -27 -45 -60 -24 vhcurveto
          endchar
        </CharString>
        <CharString name="dvHA_mvR">
          -25 480 135 rmoveto
          73 -118 76 -77 -34 -35 -8 -13 -32 vhcurveto
          -19 15 -18 21 25 204 callsubr
          201 173 228 -33 callgsubr
          -673 154 callsubr
          -175 216 -128 49 -27 vhcurveto
          56 40 rlineto
          -43 22 -182 99 123 vvcurveto
          89 89 42 62 33 29 -10 -18 -9 -17 -13 -11 -7 vhcurveto
          -38 -25 -37 -25 -41 vvcurveto
          -78 96 -83 81 60 56 34 36 34 vhcurveto
          -64 58 rlineto
          -34 -35 -41 -21 -45 hhcurveto
          -33 -29 15 35 hvcurveto
          52 134 34 46 vvcurveto
          endchar
        </CharString>
        <CharString name="dvH_LA">
          12 352 -85 rmoveto
          -39 30 -43 41 51 vvcurveto
          34 25 17 27 13 9 -4 -4 7 vhcurveto
          -2 -10 -1 -8 -10 vvcurveto
          -17 4 -19 10 -17 vhcurveto
          55 -22 rlineto
          -7 16 -4 18 18 vvcurveto
          33 13 32 37 7 7 0 -3 6 vhcurveto
          -145 vlineto
          85 -59 rlineto
          191 vlineto
          96 -136 117 -132 28 callsubr
          75 54 -33 -32 10 vhcurveto
          7 -15 -16 4 -16 hhcurveto
          -25 -20 -12 -17 -13 hvcurveto
          17 -17 -24 13 -31 hhcurveto
          -57 -35 -39 -50 -81 71 -57 40 -35 hvcurveto
          endchar
        </CharString>
        <CharString name="dvH_MA">
          189 347 88 rmoveto
          -40 -25 -12 -31 -54 95 -88 44 156 callsubr
          hvcurveto
          53 157 -152 vlineto
          95 -54 rlineto
          763 159 174 callsubr
          -887 -101 callgsubr
          328 -79 -143 136 callgsubr
          -39 22 -48 55 -51 hvcurveto
          -38 -31 -24 -45 -54 vvcurveto
          1 -175 214 -121 50 -27 56 40 rcurveline
          -43 22 -182 92 123 vvcurveto
          89 85 44 60 50 6 -26 -35 vhcurveto
          -42 vlineto
          51 457 rmoveto
          200 -457 -158 32 hlineto
          42 -86 122 -91 -32 -32 -6 -12 -29 vhcurveto
          -17 15 -16 21 22 204 callsubr
          189 hlineto
          endchar
        </CharString>
        <CharString name="dvH_NA">
          -38 428 372 rmoveto
          173 209 174 callsubr
          -662 -101 callgsubr
          348 -79 -163 136 callgsubr
          -40 22 -48 57 -52 hvcurveto
          -38 -33 -26 -45 -50 vvcurveto
          -175 215 -112 49 -28 vhcurveto
          57 40 rlineto
          -44 22 -181 84 123 vvcurveto
          89 91 54 74 32 23 -7 -10 17 vhcurveto
          -153 -110 rlineto
          -21 -15 -8 -13 -14 vvcurveto
          -44 70 -31 53 25 15 10 14 5 -1 4 -4 8 vhcurveto
          -3 7 -19 25 -15 21 96 74 rcurveline
          -158 vlineto
          85 -59 rlineto
          170 vlineto
          82 -128 131 -101 -35 -37 -9 -16 -33 vhcurveto
          -16 15 -16 20 23 204 callsubr
          endchar
        </CharString>
        <CharString name="dvH_NNA">
          -33 558 -115 rmoveto
          193 vlineto
          91 -136 122 -126 -47 -41 -9 -14 -33 vhcurveto
          -15 14 -13 19 23 204 callsubr
          230 173 188 -33 callgsubr
          -662 -101 callgsubr
          369 -79 -184 136 callgsubr
          -39 21 -46 53 -51 hvcurveto
          -45 -36 -23 -51 -55 vvcurveto
          -176 239 -127 49 -28 vhcurveto
          56 37 rlineto
          -43 22 -210 106 123 vvcurveto
          45 17 38 35 26 vhcurveto
          -67 vlineto
          -34 18 -33 30 -27 vhcurveto
          -27 31 35 -15 26 hhcurveto
          56 34 42 53 hvcurveto
          129 vlineto
          31 -14 20 -22 -22 vvcurveto
          -179 vlineto
          -137 257 rmoveto
          3 8 -1 -1 3 hvcurveto
          -128 vlineto
          -38 -15 -14 -26 -28 -17 22 34 vhcurveto
          116 vlineto
          6 22 24 4 26 hhcurveto
          endchar
        </CharString>
        <CharString name="dvH_RA">
          -43 291 -33 rmoveto
          134 150 rlineto
          -143 vlineto
          85 -59 rlineto
          163 vlineto
          82 -128 131 -101 -35 -35 -9 -15 -33 vhcurveto
          -16 14 -15 20 23 204 callsubr
          222 173 193 -33 callgsubr
          -659 -101 callgsubr
          361 -79 -176 136 callgsubr
          -40 22 -47 56 -53 hvcurveto
          -38 -32 -25 -45 -51 vvcurveto
          -175 222 -119 49 -28 vhcurveto
          57 40 rlineto
          -44 22 -188 91 123 vvcurveto
          89 88 54 74 27 25 -8 -11 17 vhcurveto
          -176 -157 rlineto
          endchar
        </CharString>
        <CharString name="dvH_VA">
          13 555 -110 rmoveto
          188 vlineto
          96 -136 117 -126 28 callsubr
          53 46 -20 -24 21 vhcurveto
          1 -4 0 -5 -1 -5 rrcurveto
          13 -32 -38 11 -41 hhcurveto
          -80 -65 -59 -55 -66 73 -70 73 50 44 45 51 31 hvcurveto
          -64 vlineto
          -164 29 rmoveto
          -23 -12 14 23 56 68 34 52 13 19 -2 -3 13 hvcurveto
          -55 -31 -51 -67 -48 hhcurveto
          endchar
        </CharString>
        <CharString name="dvH_YA">
          179 60 104 rmoveto
          -175 216 -125 49 -28 vhcurveto
          56 40 rlineto
          -43 22 -182 97 123 vvcurveto
          89 89 42 62 38 24 -14 -19 -14 -47 -30 -40 -23 vhcurveto
          -14 -8 -15 -8 -19 vvcurveto
          -68 127 -125 90 56 46 34 27 30 vhcurveto
          -4 -119 95 -52 rlineto
          794 159 174 callsubr
          -877 154 callsubr
          87 220 rmoveto
          36 27 12 45 vhcurveto
          201 173 179 -487 hlineto
          -48 -30 -70 -60 -66 hhcurveto
          -35 -42 19 33 13 8 6 21 12 hvcurveto
          46 29 42 31 26 vvcurveto
          73 -111 92 -77 -34 -35 -8 -13 -32 vhcurveto
          -19 15 -18 21 25 vvcurveto
          endchar
        </CharString>
        <CharString name="dvI">
          -48 497 115 rmoveto
          74 -79 92 -76 vhcurveto
          -49 -49 -35 -52 hhcurveto
          -28 -15 21 27 40 31 27 43 hvcurveto
          226 184 164 hlineto
          -59 87 rlineto
          -613 -101 callgsubr
          343 -84 -148 hlineto
          -70 -59 -40 -71 -88 102 -110 69 hvcurveto
          63 53 39 35 hhcurveto
          19 13 -18 -19 -65 -109 -42 -75 1 hvcurveto
          48 -38 -38 41 -28 hhcurveto
          -32 -31 -25 -29 -52 87 -60 70 -17 hvcurveto
          134 -176 69 46 -122 132 rlineto
          94 14 95 65 80 vvcurveto
          endchar
        </CharString>
        <CharString name="dvII">
          -49 542 875 -24 callsubr
        </CharString>
        <CharString name="dvII_Anusvara">
          -49 446 732 rmoveto
          61 -60 60 60 -61 60 rlineto
          36 83 -24 callsubr
        </CharString>
        <CharString name="dvJ">
          -128 545 28 callgsubr
          -565 -101 callgsubr
          572 -122 rmoveto
          -324 -95 callgsubr
          266 hlineto
          endchar
        </CharString>
        <CharString name="dvJA">
          112 625 41 callgsubr
          endchar
        </CharString>
        <CharString name="dvJH">
          -88 584 545 rmoveto
          -59 87 rlineto
          -605 -101 callgsubr
          340 -73 -135 hlineto
          -78 -50 -36 -70 -86 102 -104 68 hvcurveto
          -68 callsubr
          -7 24 22 -3 19 hhcurveto
          50 45 30 34 37 hvcurveto
          -60 76 rlineto
          -47 -39 -37 -15 -48 hhcurveto
          -37 -30 8 5 -26 hvcurveto
          2 -15 -14 2 -18 126 callgsubr
          hlineto
          endchar
        </CharString>
        <CharString name="dvJHA">
          157 671 212 callsubr
          -850 -101 callgsubr
          339 -73 -135 hlineto
          -78 -50 -36 -70 -86 102 -104 68 hvcurveto
          44 callsubr
          rlineto
          319 vmoveto
          65 callgsubr
          endchar
        </CharString>
        <CharString name="dvJH_MA">
          483 889 -2 callsubr
          -464 -167 rmoveto
          167 169 -211 -7 vlineto
          -35 -24 -9 -24 -5 hvcurveto
          -9 -20 -21 -3 -23 hhcurveto
          -37 -30 8 5 -26 hvcurveto
          2 -15 -14 2 -18 -45 49 callgsubr
          40 hvcurveto
          883 254 rmoveto
          -1176 -101 callgsubr
          340 -73 -135 hlineto
          -78 -50 -36 -70 -86 102 -104 68 hvcurveto
          -68 callsubr
          -7 24 22 -3 19 hhcurveto
          16 15 3 5 15 hvcurveto
          -40 34 50 -36 27 hhcurveto
          87 callsubr
          -65 callgsubr
        </CharString>
        <CharString name="dvJH_NA">
          242 756 -43 rmoveto
          250 callgsubr
          -935 29 callgsubr
          33 36 9 30 38 hvcurveto
          -156 -252 rlineto
          -11 -18 -5 -14 -11 vvcurveto
          -41 48 -12 43 36 61 7 30 10 -5 8 -8 7 vhcurveto
          -10 11 -33 22 -9 6 82 167 rcurveline
          -6 -151 rlineto
          1 343 rmoveto
          -51 -61 -61 -23 -58 137 callgsubr
          223 hlineto
          endchar
        </CharString>
        <CharString name="dvJH_R">
          -84 437 -59 rmoveto
          78 -55 197 405 -63 74 rlineto
          -53 -62 -59 -23 -59 137 callgsubr
          163 -33 callgsubr
          -609 29 callgsubr
          35 36 10 29 37 hvcurveto
          endchar
        </CharString>
        <CharString name="dvJH_RA">
          242 437 -59 rmoveto
          79 -55 138 280 -6 -146 178 callsubr
          -937 218 callsubr
          342 -73 -134 hlineto
          -79 -50 -36 -70 -86 102 -104 69 hvcurveto
          49 43 38 42 hhcurveto
          23 13 -16 -17 -64 -93 -41 -79 -1 hvcurveto
          49 -37 -40 45 -28 hhcurveto
          -32 -32 -25 -30 -52 85 -62 72 -16 hvcurveto
          137 -179 70 45 -125 134 rlineto
          86 18 92 61 79 vvcurveto
          22 -9 34 -29 30 vhcurveto
          -8 24 32 -8 21 hhcurveto
          43 37 10 38 52 hvcurveto
          -176 29 rmoveto
          -51 -34 11 4 -34 hvcurveto
          1 -10 -10 1 -11 -44 49 callgsubr
          39 hvcurveto
          212 167 223 -175 hlineto
          -58 -56 -51 -23 -72 hhcurveto
          endchar
        </CharString>
        <CharString name="dvJH_YA">
          509 916 311 -107 callsubr
          -491 -167 rmoveto
          167 221 115 callgsubr
          -6 1 -6 1 -6 vhcurveto
          -18 -25 -27 -6 -31 hhcurveto
          -37 -30 8 5 -26 hvcurveto
          2 -15 -14 2 -18 -45 49 callgsubr
          40 hvcurveto
          909 254 rmoveto
          -1202 -101 callgsubr
          340 -73 -135 hlineto
          -78 -50 -36 -70 -86 102 -104 68 hvcurveto
          -68 callsubr
          -7 24 22 -3 19 hhcurveto
          26 25 8 13 23 hvcurveto
          -67 52 88 -65 68 hhcurveto
          48 -102 callsubr
        </CharString>
        <CharString name="dvJ_BA">
          459 755 188 11 callgsubr
          -1152 -101 callgsubr
          884 43 callgsubr
          -42 -46 -19 -34 -33 hvcurveto
          -324 -95 callgsubr
          155 hlineto
          -1 -7 0 -8 -8 71 callgsubr
        </CharString>
        <CharString name="dvJ_DA">
          406 890 49 callsubr
          -1100 -101 callgsubr
          803 -97 -89 hlineto
          -45 -35 -9 -16 -28 hvcurveto
          -358 -95 callgsubr
          167 hlineto
          -3 -14 -2 -14 -15 vvcurveto
          -68 37 -68 52 -50 vhcurveto
          -47 49 62 -30 61 hhcurveto
          29 30 8 14 25 hvcurveto
          -89 callgsubr
          endchar
        </CharString>
        <CharString name="dvJ_DDA">
          373 878 193 callgsubr
          -1066 -101 callgsubr
          795 -90 -131 hlineto
          -45 -34 -11 -21 -22 hvcurveto
          -315 -95 callgsubr
          165 hlineto
          -87 12 87 -89 70 -36 callgsubr
          -31 252 callsubr
          25 20 48 hvcurveto
          endchar
        </CharString>
        <CharString name="dvJ_JA">
          590 1204 -4 callsubr
          -1284 -101 callgsubr
          1016 -122 -290 100 callsubr
          -1 hlineto
          -1 4 rlineto
          -324 hlineto
          25 callgsubr
          168 hlineto
          -131 50 74 -133 120 -51 callsubr
        </CharString>
        <CharString name="dvJ_JHA">
          614 1021 342 rmoveto
          65 callgsubr
          102 callgsubr
          -1307 -101 callgsubr
          796 -73 -135 hlineto
          -53 -40 -17 -32 -20 hvcurveto
          -300 -95 callgsubr
          168 hlineto
          -76 23 83 -76 58 29 callsubr
        </CharString>
        <CharString name="dvJ_J_NYA">
          585 1199 -4 callsubr
          -1279 -101 callgsubr
          1011 -122 -763 -95 callgsubr
          394 hlineto
          29 -39 19 -39 -38 vvcurveto
          -57 -32 -35 -59 -33 -17 9 5 -6 vhcurveto
          77 -39 -23 67 -32 hhcurveto
          -28 -24 -29 -27 -36 37 -45 61 -48 hvcurveto
          1 -1 106 -215 0 vvcurveto
          66 43 -76 124 rlineto
          -4 13 14 -1 14 hhcurveto
          83 57 60 75 59 -25 52 -42 43 hvcurveto
          182 -305 -51 callgsubr
          219 callgsubr
        </CharString>
        <CharString name="dvJ_J_VA">
          943 1557 -4 callsubr
          -1637 -101 callgsubr
          1368 -89 callsubr
          -57 -60 -34 -62 -27 hvcurveto
          20 -33 -42 17 -46 hhcurveto
          -181 14 callsubr
          110 hlineto
          17 20 -3 -5 17 hvcurveto
          -7 vlineto
          -59 callsubr
        </CharString>
        <CharString name="dvJ_J_YA">
          969 1376 311 6 callsubr
          -1662 -101 callgsubr
          1126 127 callgsubr
          -21 -100 -52 vhcurveto
          27 -33 -47 24 -66 hhcurveto
          -186 14 callsubr
          107 hlineto
          26 21 -5 -8 17 hvcurveto
          -83 16 137 -132 98 hhcurveto
          48 -102 callsubr
        </CharString>
        <CharString name="dvJ_KA">
          656 1328 28 callgsubr
          -1348 -101 callgsubr
          824 229 callgsubr
          -53 hhcurveto
          -54 -44 39 54 25 8 20 13 15 hvcurveto
          0 vlineto
          0 vlineto
          24 20 32 12 32 hhcurveto
          16 22 -2 -9 21 hvcurveto
          -33 166 callgsubr
          -24 hhcurveto
          -39 -40 -14 -29 -29 hvcurveto
          -312 -95 callgsubr
          150 -11 hlineto
          85 callgsubr
          vhcurveto
          -4 -98 108 -63 rlineto
          -94 callsubr
          endchar
        </CharString>
        <CharString name="dvJ_MA">
          484 890 -2 callsubr
          242 callsubr
          -1177 -101 callgsubr
          615 -209 hlineto
          37 -28 -57 50 -96 hhcurveto
          -186 -95 callgsubr
          107 hlineto
          29 23 -7 -9 18 hvcurveto
          -3 -6 -2 -7 -8 vvcurveto
          -54 102 -94 44 22 8 13 19 vhcurveto
          -65 callgsubr
        </CharString>
        <CharString name="dvJ_NA">
          223 629 20 rmoveto
          178 callsubr
          -916 -101 callgsubr
          650 hlineto
          4 -209 rlineto
          49 -50 -76 47 -101 hhcurveto
          -182 hlineto
          -12 -18 rlineto
          64 -62 43 -60 -49 vvcurveto
          -45 -25 -79 callgsubr
          260 callgsubr
          -41 38 hvcurveto
          74 hlineto
          102 72 -19 -64 41 hvcurveto
          -236 -203 rlineto
          -21 -18 -9 -13 -15 220 callsubr
          -4 7 -17 21 -17 24 129 135 rcurveline
          endchar
        </CharString>
        <CharString name="dvJ_NY">
          -95 578 28 callgsubr
          -598 -101 callgsubr
          604 -122 rmoveto
          -340 -14 callsubr
          287 hlineto
          endchar
        </CharString>
        <CharString name="dvJ_NYA">
          142 656 212 callsubr
          -835 -101 callgsubr
          568 -122 -304 -14 callsubr
          182 -305 hlineto
          endchar
        </CharString>
        <CharString name="dvJ_NY_YA">
          498 905 311 6 callsubr
          -1191 -101 callgsubr
          655 165 callsubr
          -101 -53 vhcurveto
          26 -37 -57 26 -77 hhcurveto
          -152 -14 callsubr
          63 hlineto
          43 42 -26 -23 30 hvcurveto
          -80 40 114 -99 84 hhcurveto
          48 -102 callsubr
        </CharString>
        <CharString name="dvJ_R">
          -107 506 -4 callsubr
          -586 -101 callgsubr
          586 hlineto
          -339 -113 rmoveto
          25 callgsubr
          74 hlineto
          102 67 -15 -65 39 hvcurveto
          -282 -257 79 -55 281 293 rlineto
          22 -11 -96 172 -193 hhcurveto
          endchar
        </CharString>
        <CharString name="dvJ_RA">
          10 callsubr
          endchar
        </CharString>
        <CharString name="dvJ_TA">
          430 1044 -4 callsubr
          -1124 -101 callgsubr
          860 -127 -165 hlineto
          -9 -8 0 -1 -8 hvcurveto
          -422 hlineto
          -11 -19 rlineto
          63 -62 44 -60 -49 vvcurveto
          -45 -26 -79 callgsubr
          46 -48 callgsubr
          165 hlineto
          -4 -15 -2 -17 -18 vvcurveto
          -38 callgsubr
        </CharString>
        <CharString name="dvJ_TTA">
          380 882 342 78 callsubr
          -1073 -101 callgsubr
          794 -104 -86 hlineto
          -32 -30 -6 -12 -25 hvcurveto
          -373 -95 callgsubr
          167 hlineto
          -5 -17 -3 -19 -21 vvcurveto
          -12 callgsubr
        </CharString>
        <CharString name="dvJ_VA">
          454 1068 -4 callsubr
          -1148 -101 callgsubr
          879 -89 callsubr
          -45 -46 -21 -38 -31 hvcurveto
          -315 -95 callgsubr
          156 hlineto
          -1 -5 0 -5 -5 vvcurveto
          -59 callsubr
        </CharString>
        <CharString name="dvJ_YA">
          480 886 311 6 callsubr
          -1172 -101 callgsubr
          636 134 callgsubr
          -94 -49 vhcurveto
          25 -32 -46 22 -64 hhcurveto
          -186 -95 callgsubr
          107 hlineto
          20 18 -3 -6 15 hvcurveto
          -82 13 140 -137 99 hhcurveto
          48 -102 callsubr
        </CharString>
        <CharString name="dvJx">
          -128 3 -19 -26 callsubr
          465 485 286 callgsubr
          -565 -101 callgsubr
          572 -122 rmoveto
          -324 -95 callgsubr
          266 hlineto
          endchar
        </CharString>
        <CharString name="dvJxA">
          124 626 41 callgsubr
          -451 -83 -26 callsubr
          endchar
        </CharString>
        <CharString name="dvJx_JxA">
          589 105 -68 rmoveto
          80 46 callsubr
          376 -79 rmoveto
          79 46 callsubr
          567 621 rmoveto
          -1283 -101 callgsubr
          1015 -122 -290 100 callsubr
          0 vlineto
          -1 4 rlineto
          -325 -95 callgsubr
          167 hlineto
          -131 50 74 -133 120 -51 callsubr
        </CharString>
        <CharString name="dvJx_R">
          -107 506 -4 callsubr
          -586 -101 callgsubr
          586 hlineto
          -572 -532 -26 callsubr
          156 340 rmoveto
          25 callgsubr
          74 hlineto
          102 67 -15 -65 39 hvcurveto
          -282 -257 79 -55 281 293 rlineto
          22 -11 -96 172 -193 hhcurveto
          endchar
        </CharString>
        <CharString name="dvJx_RA">
          10 callsubr
          -613 -263 -26 callsubr
          endchar
        </CharString>
        <CharString name="dvJx_YA">
          471 92 -65 rmoveto
          80 46 callsubr
          708 297 6 callsubr
          -1164 -101 callgsubr
          628 85 callsubr
          -18 -19 -90 -48 vhcurveto
          24 -32 -46 21 -61 hhcurveto
          -186 -95 callgsubr
          107 hlineto
          17 15 -2 -4 13 hvcurveto
          -83 10 142 -139 100 hhcurveto
          48 -102 callsubr
        </CharString>
        <CharString name="dvK">
          -9 710 349 rmoveto
          63 -42 -66 50 -59 hhcurveto
          -84 callgsubr
          212 -33 callgsubr
          -684 -104 callgsubr
          28 41 34 53 hhcurveto
          42 26 -22 -37 21 hvcurveto
          endchar
        </CharString>
        <CharString name="dvKA">
          195 452 -11 callsubr
          endchar
        </CharString>
        <CharString name="dvKH">
          -5 callgsubr
          endchar
        </CharString>
        <CharString name="dvKHA">
          177 23 -10 callgsubr
          endchar
        </CharString>
        <CharString name="dvKH_KHA">
          740 1125 205 rmoveto
          -60 -2 -76 28 67 vvcurveto
          46 34 31 40 54 40 -35 -53 -41 -23 -33 -9 -8 261 callgsubr
          318 hlineto
          -1 -136 rlineto
          31 -31 -43 20 -48 hhcurveto
          -74 -61 -57 -76 -106 93 -60 93 -11 hvcurveto
          -33 -30 -45 -21 -60 hhcurveto
          -87 -78 56 59 -40 hvcurveto
          70 12 24 45 55 vvcurveto
          -106 22 rmoveto
          -21 -11 -9 -16 -20 -18 13 19 -18 vhcurveto
          -13 21 -18 22 -25 20 rrcurveto
          116 callsubr
          456 vlineto
          -159 -340 -61 callgsubr
          790 427 rmoveto
          -1433 -82 callsubr
          97 129 69 125 32 hvcurveto
          -97 70 96 -97 140 hhcurveto
          85 72 52 35 32 hvcurveto
          -4 128 callgsubr
          endchar
        </CharString>
        <CharString name="dvKH_MA">
          546 952 279 callgsubr
          -686 hmoveto
          391 262 callsubr
          -4 hlineto
          -13 25 -20 27 -30 24 rrcurveto
          30 -32 -43 -92 callsubr
          297 -118 -61 callgsubr
          596 427 rmoveto
          -1239 -82 callsubr
          94 123 64 117 38 hvcurveto
          -24 26 30 -18 20 168 callsubr
        </CharString>
        <CharString name="dvKH_NA">
          177 563 205 rmoveto
          -60 -2 -76 28 67 vvcurveto
          46 34 31 40 52 196 callsubr
          -17 -32 -13 -14 201 callgsubr
          -131 hlineto
          28 -32 -44 18 -46 263 callsubr
          -33 -31 -45 -21 -60 hhcurveto
          -87 -77 56 59 -41 hvcurveto
          70 12 24 45 55 vvcurveto
          582 222 286 callgsubr
          -867 -101 callgsubr
          179 -200 hlineto
          -21 -10 211 callgsubr
          78 -127 101 -152 154 -12 rlinecurve
          -104 -73 rlineto
          -24 -17 -8 -15 -14 vvcurveto
          -52 86 -33 52 26 17 10 15 6 -1 5 -5 8 vhcurveto
          -3 8 -4 6 -29 40 135 96 rcurveline
          10 7 80 65 6 10 -5 -68 rcurveline
          105 -63 rlineto
          588 vlineto
          endchar
        </CharString>
        <CharString name="dvKH_R">
          -14 callgsubr
          endchar
        </CharString>
        <CharString name="dvKH_RA">
          -24 callgsubr
          endchar
        </CharString>
        <CharString name="dvKH_SHA">
          669 563 205 -54 callgsubr
        </CharString>
        <CharString name="dvKH_TA">
          512 922 233 callgsubr
          -62 -44 -17 -32 -27 hvcurveto
          -11 14 -14 14 113 callgsubr
          222 656 vlineto
          -496 -247 rmoveto
          46 34 31 41 51 196 callsubr
          -16 235 callgsubr
          -61 -2 -76 28 67 vvcurveto
          700 334 rmoveto
          -1206 -82 callsubr
          78 98 44 81 52 hvcurveto
          27 -60 40 -61 42 -51 55 37 rcurveline
          -63 callgsubr
        </CharString>
        <CharString name="dvKH_VA">
          540 915 77 callsubr
          -57 -59 -34 -60 -28 hvcurveto
          -7 7 -8 8 -9 7 rrcurveto
          116 callsubr
          679 45 callsubr
          -322 -139 -61 callgsubr
          591 427 rmoveto
          -1234 -82 callsubr
          90 117 59 107 42 hvcurveto
          -52 45 64 -36 54 hhcurveto
          54 53 34 32 31 hvcurveto
          -74 callgsubr
        </CharString>
        <CharString name="dvKH_YA">
          556 963 311 -107 callsubr
          -400 -340 -61 callgsubr
          -297 340 rmoveto
          427 165 callsubr
          -103 -54 vhcurveto
          -11 14 -13 13 113 callgsubr
          903 309 rmoveto
          -1249 -82 callsubr
          98 130 70 127 31 hvcurveto
          -55 52 72 -46 57 hhcurveto
          48 -102 callsubr
        </CharString>
        <CharString name="dvKHx">
          -5 callgsubr
          -504 -261 -26 callsubr
          endchar
        </CharString>
        <CharString name="dvKHxA">
          200 26 -10 callgsubr
          -523 -348 -26 callsubr
          endchar
        </CharString>
        <CharString name="dvKHx_MA">
          553 63 -67 rmoveto
          80 46 callsubr
          818 322 rmoveto
          -191 211 191 hlineto
          -396 -340 -61 callgsubr
          -297 340 rmoveto
          398 262 callsubr
          -11 hlineto
          -13 25 -20 27 -30 24 rrcurveto
          30 -32 -43 -92 callsubr
          900 309 rmoveto
          -1246 -82 callsubr
          95 125 66 120 36 hvcurveto
          -27 29 33 -20 20 hhcurveto
          87 callsubr
          -65 callgsubr
        </CharString>
        <CharString name="dvKHx_R">
          -14 callgsubr
          -74 -287 -26 callsubr
          endchar
        </CharString>
        <CharString name="dvKHx_RA">
          -24 callgsubr
          -114 -305 -26 callsubr
          endchar
        </CharString>
        <CharString name="dvKHx_SA">
          624 59 -66 rmoveto
          79 46 callsubr
          897 339 -44 callsubr
          -318 -201 196 callgsubr
          -16 -17 13 20 -21 vhcurveto
          -13 20 -18 21 -24 20 rrcurveto
          116 callsubr
          449 vlineto
          -152 -340 -61 callgsubr
          674 427 rmoveto
          -1317 -82 callsubr
          96 127 67 122 34 hvcurveto
          53 -74 57 -71 76 -92 -62 callgsubr
        </CharString>
        <CharString name="dvKHx_SHA">
          669 68 -68 204 callgsubr
          418 194 -54 callgsubr
        </CharString>
        <CharString name="dvKHx_TA">
          513 52 -67 rmoveto
          80 46 callsubr
          793 406 rmoveto
          -165 hlineto
          -62 -45 -17 -33 -27 hvcurveto
          -11 15 -14 14 113 callgsubr
          222 657 vlineto
          -360 -340 -61 callgsubr
          564 427 rmoveto
          -1207 -82 callsubr
          78 98 44 82 53 hvcurveto
          27 -60 40 -61 42 -52 55 37 rcurveline
          -63 callgsubr
        </CharString>
        <CharString name="dvKHx_VA">
          540 47 -66 rmoveto
          79 46 callsubr
          791 380 96 callsubr
          -57 -59 -34 -60 -28 hvcurveto
          -7 7 -8 8 -9 7 rrcurveto
          116 callsubr
          679 45 callsubr
          -322 -139 -61 callgsubr
          591 427 rmoveto
          -1234 -82 callsubr
          90 117 59 107 42 hvcurveto
          -52 45 64 -36 54 hhcurveto
          54 53 34 32 31 hvcurveto
          -74 callgsubr
        </CharString>
        <CharString name="dvKHx_YA">
          556 40 -66 204 callgsubr
          846 298 -107 callsubr
          -400 -340 -61 callgsubr
          -297 340 rmoveto
          427 165 callsubr
          -103 -54 vhcurveto
          -11 14 -13 13 113 callgsubr
          903 309 rmoveto
          -1249 -82 callsubr
          98 130 70 127 31 hvcurveto
          -55 52 72 -46 57 hhcurveto
          48 -102 callsubr
        </CharString>
        <CharString name="dvK_CA">
          626 1033 304 rmoveto
          175 callsubr
          -382 hlineto
          -9 hlineto
          -35 -32 -17 -14 -13 hvcurveto
          1 25 3 90 1 20 rrcurveto
          581 hlineto
          102 callgsubr
          -1319 -106 callsubr
          26 49 46 27 54 3 18 1 rcurveline
          0 vlineto
          114 4 131 callsubr
        </CharString>
        <CharString name="dvK_DA">
          503 880 545 rmoveto
          -97 -89 vlineto
          -58 -43 -15 -26 -30 hvcurveto
          33 -36 -42 22 -39 hhcurveto
          -84 callgsubr
          535 -196 27 callsubr
          -1197 -104 callgsubr
          28 41 34 53 hhcurveto
          18 15 -4 -8 13 hvcurveto
          -7 -19 -3 -22 -22 vvcurveto
          -68 37 -68 52 -50 vhcurveto
          -47 49 62 -30 61 hhcurveto
          29 30 8 14 25 hvcurveto
          -89 callgsubr
          endchar
        </CharString>
        <CharString name="dvK_JA">
          701 1107 188 callgsubr
          -72 -49 92 98 -35 vhcurveto
          55 -34 -51 52 -62 hhcurveto
          -39 -31 -17 -21 -23 hvcurveto
          1 26 3 75 1 20 rrcurveto
          655 hlineto
          208 87 rmoveto
          -1395 -104 callgsubr
          28 36 34 52 hhcurveto
          32 24 -27 -24 13 hvcurveto
          -124 51 71 -121 115 -51 callsubr
        </CharString>
        <CharString name="dvK_KA">
          809 959 259 rmoveto
          233 callsubr
          -54 -44 -31 callsubr
          52 16 22 -2 -9 21 hvcurveto
          -33 166 callgsubr
          -24 hhcurveto
          -48 -51 -21 -46 -27 hvcurveto
          37 -38 -46 26 -42 hhcurveto
          -84 callgsubr
          499 hlineto
          524 hmoveto
          -50 callsubr
          -1495 -104 callgsubr
          28 41 34 53 hhcurveto
          33 23 -13 -24 18 hvcurveto
          -6 vlineto
          85 callgsubr
          vhcurveto
          -4 -98 108 -63 rlineto
          -94 callsubr
          endchar
        </CharString>
        <CharString name="dvK_KHA">
          777 1163 -52 callsubr
          -106 22 rmoveto
          -21 -11 -9 -17 -14 -18 9 17 -18 vhcurveto
          0 vlineto
          51 -44 -33 67 -71 hhcurveto
          -30 -30 -16 -24 -20 hvcurveto
          1 26 3 80 1 20 rrcurveto
          301 hlineto
          630 87 rmoveto
          -1463 -106 callsubr
          47 25 31 34 42 hhcurveto
          26 20 -19 -28 21 hvcurveto
          -131 79 112 -171 187 callsubr
          endchar
        </CharString>
        <CharString name="dvK_LA">
          720 1126 411 rmoveto
          -49 callgsubr
          -46 -40 -17 -28 -29 hvcurveto
          37 -37 -45 24 -41 hhcurveto
          -84 callgsubr
          674 hlineto
          242 callsubr
          -1413 -104 callgsubr
          28 41 34 53 hhcurveto
          22 17 -6 -11 15 hvcurveto
          -8 -20 -4 -22 -23 vvcurveto
          -58 callsubr
          vhcurveto
          54 38 rlineto
          -99 callsubr
        </CharString>
        <CharString name="dvK_MA">
          577 991 -2 callsubr
          -295 hmoveto
          -204 vlineto
          52 -30 -57 69 -77 hhcurveto
          -34 -31 269 callgsubr
          747 87 rmoveto
          -1278 52 callgsubr
          55 26 34 29 42 hhcurveto
          26 30 -16 -25 23 hvcurveto
          -5 -6 -3 -8 -10 vvcurveto
          -54 102 -94 44 22 8 13 19 vhcurveto
          -65 callgsubr
        </CharString>
        <CharString name="dvK_NA">
          195 344 244 rmoveto
          -25 -28 -52 -44 -37 1 callsubr
          -71 -75 -46 -103 -83 64 -93 70 -29 hvcurveto
          -66 -50 rlineto
          -22 -17 -8 -15 -14 vvcurveto
          -51 83 -31 53 28 192 callsubr
          -18 21 -16 23 rrcurveto
          0 124 98 6 6 vhcurveto
          -4 -72 callgsubr
          417 hlineto
          264 callgsubr
          hlineto
          endchar
        </CharString>
</ttFont>
